<?xml version="1.0" encoding="UTF-8" standalone="no"?>
<!-- Created with Inkscape (http://www.inkscape.org/) -->

<svg
   xmlns:dc="http://purl.org/dc/elements/1.1/"
   xmlns:cc="http://creativecommons.org/ns#"
   xmlns:rdf="http://www.w3.org/1999/02/22-rdf-syntax-ns#"
   xmlns:svg="http://www.w3.org/2000/svg"
   xmlns="http://www.w3.org/2000/svg"
   xmlns:sodipodi="http://sodipodi.sourceforge.net/DTD/sodipodi-0.dtd"
   xmlns:inkscape="http://www.inkscape.org/namespaces/inkscape"
   width="99.596725mm"
   height="101.86459mm"
   viewBox="0 0 99.596725 101.86459"
   version="1.1"
   id="svg4490"
   inkscape:version="0.92.1 r15371"
   sodipodi:docname="iconbasket.svg">
  <defs
     id="defs4484" />
  <sodipodi:namedview
     id="base"
     pagecolor="#ffffff"
     bordercolor="#666666"
     borderopacity="1.0"
     inkscape:pageopacity="0.0"
     inkscape:pageshadow="2"
     inkscape:zoom="0.7"
     inkscape:cx="-70.921873"
     inkscape:cy="62.555273"
     inkscape:document-units="mm"
     inkscape:current-layer="layer1"
     showgrid="false"
     fit-margin-top="0"
     fit-margin-left="0"
     fit-margin-right="0"
     fit-margin-bottom="0"
     inkscape:window-width="1536"
     inkscape:window-height="793"
     inkscape:window-x="-8"
     inkscape:window-y="-8"
     inkscape:window-maximized="1" />
  <metadata
     id="metadata4487">
    <rdf:RDF>
      <cc:Work
         rdf:about="">
        <dc:format>image/svg+xml</dc:format>
        <dc:type
           rdf:resource="http://purl.org/dc/dcmitype/StillImage" />
        <dc:title></dc:title>
      </cc:Work>
    </rdf:RDF>
  </metadata>
  <g
     inkscape:label="Layer 1"
     inkscape:groupmode="layer"
     id="layer1"
     transform="translate(-57.546875,-6.8087845)">
    <ellipse
       style="opacity:0.76599995;fill:#c1b5ff;fill-opacity:1;stroke:none;stroke-width:0.86700004;stroke-miterlimit:4;stroke-dasharray:none;stroke-dashoffset:0;stroke-opacity:1;paint-order:fill markers stroke"
       id="path4865"
       cx="107.34524"
       cy="57.741077"
       rx="49.798363"
       ry="50.932293" />
    <path
       style="fill:#ececec;fill-opacity:1;stroke-width:0.14754112"
       d="m 82.405695,86.298518 c -2.700944,-0.64081 -4.870453,-2.9205 -5.341454,-5.61274 -0.167689,-0.95851 -0.03679,-2.59157 1.794679,-22.39045 1.086558,-11.7461 2.070666,-21.79769 2.186905,-22.33688 0.283204,-1.31366 0.790025,-2.247983 1.7987,-3.315883 0.94831,-1.003993 2.434733,-1.815127 3.771486,-2.058082 0.441497,-0.08024 2.670006,-0.145896 4.952241,-0.145896 h 4.14952 l 0.0809,-0.401698 c 0.9581,-4.757246 3.461511,-7.449837 7.940948,-8.541025 1.86901,-0.455289 5.64462,-0.455289 7.51362,0 4.47943,1.091188 6.98284,3.783779 7.94094,8.541025 l 0.0809,0.401698 4.28163,0.0084 c 4.82744,0.0095 5.57555,0.116682 7.10388,1.017828 1.73939,1.025589 2.888,2.661141 3.28666,4.680003 0.11796,0.59736 1.10188,10.63558 2.1865,22.30716 1.83321,19.72711 1.95923,21.29426 1.79016,22.26066 -0.48443,2.76903 -2.86356,5.14625 -5.67306,5.6685 -0.52656,0.0979 -9.07532,0.14491 -24.88653,0.13692 -20.263146,-0.0102 -24.223156,-0.0451 -24.958627,-0.21956 z m 49.430815,-4.64182 c 0.62997,-0.258 1.25533,-0.99321 1.37452,-1.61597 0.14218,-0.74284 -3.76863,-42.66577 -4.05168,-43.43311 -0.13871,-0.37602 -0.44177,-0.7817 -0.76387,-1.0225 l -0.53394,-0.39919 H 107.49643 87.131314 l -0.533939,0.39919 c -0.321381,0.24027 -0.625803,0.64732 -0.764699,1.0225 -0.283245,0.76509 -4.192966,42.69057 -4.050489,43.43499 0.115893,0.60552 0.736736,1.34978 1.341264,1.60787 0.684492,0.29224 47.999929,0.29828 48.713059,0.006 z m -26.57545,-18.70991 c -2.01022,-0.42236 -3.37442,-1.1024 -4.79189,-2.38872 -3.052866,-2.7704 -4.754751,-7.96431 -4.803555,-14.65972 -0.01528,-2.09688 0.009,-2.32186 0.290581,-2.69331 1.048337,-1.38289 2.868557,-1.42528 3.906842,-0.091 0.380152,0.48852 0.401882,0.61421 0.507842,2.9374 0.30839,6.76159 1.78292,10.61602 4.57329,11.95466 0.76681,0.36787 0.98495,0.40229 2.55226,0.4027 1.60232,4.4e-4 1.77045,-0.0276 2.58485,-0.43068 2.78564,-1.37875 4.23323,-5.18533 4.54142,-11.94217 0.12078,-2.64793 0.18427,-2.84712 1.1275,-3.53739 0.63995,-0.46832 1.96473,-0.42224 2.65294,0.0923 1.04611,0.78209 1.19399,1.7438 0.86041,5.5955 -0.72314,8.34991 -3.70894,13.275 -8.86113,14.61652 -1.24113,0.32317 -3.93001,0.39844 -5.14136,0.14393 z m 9.09052,-32.721829 c 0,-0.576809 -0.68137,-1.899286 -1.34556,-2.611621 -1.18328,-1.269043 -2.90701,-1.846849 -5.50959,-1.846849 -2.60257,0 -4.3263,0.577806 -5.50958,1.846849 -0.6642,0.712335 -1.34557,2.034812 -1.34557,2.611621 0,0.18436 0.93919,0.213628 6.85515,0.213628 5.91597,0 6.85515,-0.02927 6.85515,-0.213628 z"
       id="path5061"
       inkscape:connector-curvature="0" />
  </g>
</svg>
