<?xml version="1.0" encoding="UTF-8" standalone="no"?>
<!-- Created with Inkscape (http://www.inkscape.org/) -->

<svg
   xmlns:dc="http://purl.org/dc/elements/1.1/"
   xmlns:cc="http://creativecommons.org/ns#"
   xmlns:rdf="http://www.w3.org/1999/02/22-rdf-syntax-ns#"
   xmlns:svg="http://www.w3.org/2000/svg"
   xmlns="http://www.w3.org/2000/svg"
   xmlns:sodipodi="http://sodipodi.sourceforge.net/DTD/sodipodi-0.dtd"
   xmlns:inkscape="http://www.inkscape.org/namespaces/inkscape"
   width="54.940182mm"
   height="45.735123mm"
   viewBox="0 0 54.940181 45.735123"
   version="1.1"
   id="svg4506"
   inkscape:version="0.92.1 r15371"
   sodipodi:docname="icon2.svg">
  <defs
     id="defs4500" />
  <sodipodi:namedview
     id="base"
     pagecolor="#ffffff"
     bordercolor="#666666"
     borderopacity="1.0"
     inkscape:pageopacity="0.0"
     inkscape:pageshadow="2"
     inkscape:zoom="1.979899"
     inkscape:cx="109.89408"
     inkscape:cy="70.5912"
     inkscape:document-units="mm"
     inkscape:current-layer="layer1"
     showgrid="false"
     fit-margin-top="0"
     fit-margin-left="0"
     fit-margin-right="0"
     fit-margin-bottom="0"
     inkscape:window-width="1536"
     inkscape:window-height="793"
     inkscape:window-x="-8"
     inkscape:window-y="-8"
     inkscape:window-maximized="1" />
  <metadata
     id="metadata4503">
    <rdf:RDF>
      <cc:Work
         rdf:about="">
        <dc:format>image/svg+xml</dc:format>
        <dc:type
           rdf:resource="http://purl.org/dc/dcmitype/StillImage" />
        <dc:title></dc:title>
      </cc:Work>
    </rdf:RDF>
  </metadata>
  <g
     inkscape:label="Layer 1"
     inkscape:groupmode="layer"
     id="layer1"
     transform="translate(-51.470467,-295.26776)">
    <rect
       style="opacity:1;fill:#babeff;fill-opacity:1;stroke:none;stroke-width:0.70547402;stroke-miterlimit:4;stroke-dasharray:none;stroke-dashoffset:0;stroke-opacity:1;paint-order:fill markers stroke"
       id="rect5652"
       width="54.940182"
       height="45.735123"
       x="51.470467"
       y="295.26776"
       ry="6.9490075" />
    <text
       xml:space="preserve"
       style="font-style:normal;font-weight:normal;font-size:6.38787937px;line-height:1.25;font-family:sans-serif;letter-spacing:0px;word-spacing:0px;fill:#fbfbfb;fill-opacity:1;stroke:none;stroke-width:0.15969698"
       x="54.286476"
       y="350.93069"
       id="text5656"
       transform="scale(1.0687193,0.93569939)"><tspan
         sodipodi:role="line"
         x="54.286476"
         y="350.93069"
         style="font-style:normal;font-variant:normal;font-weight:normal;font-stretch:normal;font-size:6.3877182px;font-family:Gabriola;-inkscape-font-specification:'Gabriola, Normal';font-variant-ligatures:normal;font-variant-caps:normal;font-variant-numeric:normal;font-feature-settings:normal;text-align:start;writing-mode:lr-tb;text-anchor:start;fill:#fbfbfb;fill-opacity:1;stroke-width:0.15969698"
         id="tspan5720"><tspan
   id="tspan5711"
   style="font-size:6.38787937px;font-family:sans-serif;fill:#fbfbfb;fill-opacity:1;stroke-width:0.15969698">  </tspan> Большой выбор </tspan><tspan
         sodipodi:role="line"
         x="54.286476"
         y="359.40204"
         style="font-style:normal;font-variant:normal;font-weight:normal;font-stretch:normal;font-size:6.3877182px;font-family:Gabriola;-inkscape-font-specification:'Gabriola, Normal';font-variant-ligatures:normal;font-variant-caps:normal;font-variant-numeric:normal;font-feature-settings:normal;text-align:start;writing-mode:lr-tb;text-anchor:start;fill:#fbfbfb;fill-opacity:1;stroke-width:0.15969698"
         id="tspan5726">        украшений</tspan></text>
    <path
       style="fill:#ffffff;fill-opacity:1;stroke-width:0.18686847"
       d="m 72.799713,321.02944 c -0.589653,-0.0955 -1.383139,-0.31208 -1.763302,-0.4813 -0.667378,-0.29707 -0.693197,-0.34553 -0.749084,-1.40585 -0.07808,-1.48152 -0.0085,-1.52459 3.437545,-2.12865 0.396007,-0.0694 0.440825,-0.18116 0.440825,-1.09903 v -1.02174 l -0.926002,-0.44528 c -0.509303,-0.2449 -1.560215,-1.02163 -2.335362,-1.72605 -1.95209,-1.77399 -3.143249,-4.01522 -3.679187,-6.9226 l -0.132281,-0.7176 1.173624,-0.69092 c 1.280956,-0.75413 2.218711,-1.79898 2.678435,-2.98433 0.626686,-1.61585 1.893431,-2.19711 4.788152,-2.19711 2.894721,0 4.161472,0.58126 4.788152,2.19711 0.458764,1.18286 1.396728,2.22976 2.668626,2.97855 0.640103,0.37684 1.163819,0.74476 1.163819,0.81762 0,0.43081 -0.634716,2.75955 -0.972488,3.56801 -0.219333,0.52495 -0.398821,0.98873 -0.398874,1.03062 -6.1e-5,0.0419 0.738532,-0.57968 1.641305,-1.38129 1.100718,-0.9774 1.791272,-1.45749 2.096366,-1.45749 0.637366,0 4.686894,3.68391 4.686894,4.26372 0,0.27681 -0.519128,0.89772 -1.567377,1.8747 l -1.567386,1.46081 v 1.25979 1.25978 l 0.867866,0.1184 c 0.477318,0.0651 1.094481,0.28056 1.371459,0.47875 0.436929,0.31267 0.503592,0.49655 0.503592,1.3892 0,1.25275 -0.239072,1.49427 -1.859173,1.87815 -1.482344,0.35124 -3.419891,0.35124 -4.902235,0 -1.620101,-0.38388 -1.859181,-0.6254 -1.859181,-1.87815 0,-0.89265 0.06667,-1.07653 0.503592,-1.3892 0.276987,-0.19819 0.89414,-0.41364 1.371467,-0.47875 l 0.867858,-0.1184 v -1.25978 -1.25979 l -1.567378,-1.46081 c -0.862059,-0.80344 -1.567386,-1.55801 -1.567386,-1.67682 0,-0.11881 -0.337546,0.17216 -0.75011,0.64659 -0.78696,0.90498 -2.497685,2.19286 -3.413241,2.56958 -0.49814,0.20497 -0.538787,0.29996 -0.538787,1.25909 0,0.9341 0.04387,1.04509 0.440825,1.11467 3.388206,0.59391 3.477626,0.6468 3.477626,2.0566 0,1.19067 -0.133239,1.34374 -1.509298,1.73398 -1.151722,0.3266 -5.42399,0.46586 -6.909896,0.22522 z m 6.751177,-0.90096 c 0.476541,-0.14917 0.808709,-0.37533 0.852061,-0.58014 0.06087,-0.28757 -0.0089,-0.31725 -0.487127,-0.20719 -2.578448,0.59346 -5.780244,0.59516 -8.346101,0.005 -0.414607,-0.0955 -0.538788,-0.0604 -0.538788,0.1521 0,0.36966 0.289459,0.51347 1.567384,0.77872 1.373476,0.28508 5.875307,0.1893 6.952571,-0.14792 z m 10.043704,0.0239 c 0.429016,-0.14423 0.636751,-0.33091 0.636751,-0.57218 0,-0.27105 -0.08334,-0.32694 -0.342869,-0.2299 -0.932757,0.34873 -3.229832,0.50934 -4.604177,0.32191 -0.781237,-0.10655 -1.574729,-0.25141 -1.763305,-0.32191 -0.260196,-0.0973 -0.34286,-0.0409 -0.34286,0.23352 0,0.34591 0.315165,0.49989 1.665341,0.81365 0.670947,0.15591 4.081715,-0.02 4.751119,-0.24509 z m -10.090011,-1.42364 c 1.246618,-0.33627 0.932912,-0.59641 -1.065856,-0.88384 -0.876092,-0.12598 -1.10636,-0.0973 -1.5046,0.18771 -0.270021,0.19322 -0.781352,0.33647 -1.201051,0.33647 -0.419699,0 -0.931023,-0.14325 -1.201045,-0.33647 -0.398245,-0.28497 -0.628513,-0.31369 -1.504605,-0.18771 -2.44101,0.35103 -2.397158,0.66161 0.158659,1.12372 0.826075,0.14937 5.538813,-0.0295 6.318498,-0.23988 z m 9.296676,0.16927 c 0.517155,-0.1012 1.072523,-0.26161 1.234159,-0.35647 0.261231,-0.15329 0.261231,-0.19198 0,-0.34807 -0.606899,-0.36266 -1.60417,-0.41618 -2.162652,-0.11606 -0.298515,0.16042 -0.824135,0.29167 -1.168031,0.29167 -0.343895,0 -0.869507,-0.13125 -1.16803,-0.29167 -0.552377,-0.29683 -1.541305,-0.24807 -2.156976,0.10637 -1.04167,0.59967 3.17095,1.15464 5.42153,0.71423 z m -12.325279,-2.40443 0.05718,-1.07344 h -0.791888 -0.791881 v 0.99918 c 0,0.54955 0.06295,1.05645 0.139898,1.12646 0.07694,0.07 0.407565,0.1034 0.734711,0.0743 0.582845,-0.0519 0.595958,-0.0746 0.651984,-1.12646 z m 10.971656,0 0.0572,-1.07344 h -0.79189 -0.791878 v 0.99918 c 0,0.54955 0.06299,1.05645 0.139897,1.12646 0.07694,0.07 0.407559,0.1034 0.734707,0.0743 0.582853,-0.0519 0.595959,-0.0746 0.651981,-1.12646 z m -10.367147,-2.26473 c 0.909909,-0.40358 1.765785,-1.0026 2.86492,-2.00511 2.051053,-1.87077 2.713447,-3.07132 3.508229,-6.35849 0.09725,-0.40222 0.01018,-0.529 -0.581563,-0.84661 -0.382776,-0.20545 -0.733198,-0.37354 -0.778728,-0.37354 -0.04553,0 -0.254463,0.30613 -0.464293,0.68029 -0.20983,0.37417 -0.521904,0.78629 -0.693497,0.91585 -0.223387,0.16865 -0.27788,0.40095 -0.191881,0.81798 0.200528,0.97242 -0.74985,1.60335 -1.710575,1.13561 -0.285894,-0.13919 -0.542303,-0.13812 -0.91775,0.004 -0.451977,0.17088 -0.521665,0.30181 -0.525969,0.98817 -0.0085,1.35995 -1.195065,2.33593 -2.375078,1.95361 -0.797201,-0.25829 -1.331801,-1.03913 -1.337533,-1.95361 -0.0045,-0.68636 -0.07399,-0.81729 -0.525969,-0.98817 -0.375447,-0.14196 -0.631857,-0.14302 -0.91775,-0.004 -0.585633,0.28512 -0.961542,0.23748 -1.420478,-0.18 -0.316655,-0.28808 -0.382811,-0.506 -0.290092,-0.95561 0.086,-0.41703 0.03148,-0.64933 -0.19188,-0.81798 -0.171599,-0.12956 -0.483673,-0.54168 -0.693503,-0.91585 -0.209825,-0.37416 -0.418755,-0.68029 -0.464284,-0.68029 -0.04554,0 -0.395957,0.16809 -0.77873,0.37354 -0.591731,0.31761 -0.678819,0.44439 -0.581568,0.84661 0.794941,3.28784 1.457237,4.48804 3.508227,6.35762 1.071471,0.97669 1.970306,1.60994 2.840878,2.00142 0.700422,0.31498 1.306759,0.57435 1.347412,0.57638 0.04065,0.002 0.657809,-0.25529 1.371455,-0.57182 z m 11.726736,-1.06961 c 0.998771,-0.90482 1.815967,-1.76552 1.815967,-1.91266 0,-0.34952 -3.528172,-3.57153 -3.910904,-3.57153 -0.384214,0 -3.926001,3.20962 -3.926001,3.55779 0,0.34952 3.528163,3.57153 3.910895,3.57153 0.161741,0 1.111263,-0.74031 2.110043,-1.64513 z m -4.047493,-0.25035 c -0.51283,-0.5931 -0.518234,-1.31314 -0.01421,-1.89605 0.215508,-0.24924 0.391838,-0.70118 0.391838,-1.00431 0,-0.43233 0.08448,-0.55115 0.391846,-0.55115 0.31013,0 0.393207,0.1208 0.398365,0.57925 0.0035,0.3186 0.179918,0.76862 0.391847,1.00004 l 0.385328,0.42077 0.38532,-0.42077 c 0.211929,-0.23142 0.388258,-0.68144 0.391846,-1.00004 0.0053,-0.45845 0.08823,-0.57925 0.398365,-0.57925 0.307366,0 0.391846,0.11882 0.391846,0.55115 0,0.30313 0.17633,0.75507 0.391838,1.00431 0.215517,0.24926 0.391856,0.67216 0.391856,0.9398 0,0.59767 -0.682808,1.42587 -1.17554,1.42587 -0.199875,0 -0.546139,-0.21133 -0.769464,-0.46962 l -0.406067,-0.46962 -0.406067,0.46962 c -0.223333,0.25829 -0.569597,0.46962 -0.769473,0.46962 -0.199866,0 -0.54613,-0.21133 -0.769472,-0.46962 z m 1.063355,-0.97109 c 0,-0.42249 -0.09,-0.60897 -0.293883,-0.60897 -0.313682,0 -0.497302,0.65142 -0.309278,1.09718 0.198726,0.4711 0.603161,0.14375 0.603161,-0.48821 z m 2.351071,0 c 0,-0.42249 -0.09,-0.60897 -0.293883,-0.60897 -0.313683,0 -0.497311,0.65142 -0.309279,1.09718 0.198726,0.4711 0.603162,0.14375 0.603162,-0.48821 z m -11.67161,-1.88065 c 0.533512,-0.61701 0.514529,-1.35636 -0.05015,-1.95357 -1.141743,-1.20751 -2.584774,0.68604 -1.488778,1.95357 0.223337,0.25829 0.5696,0.46962 0.769472,0.46962 0.199873,0 0.546135,-0.21133 0.769467,-0.46962 z m -4.383486,-2.57587 c 0.201899,-0.29719 -0.252194,-0.63798 -0.522471,-0.39212 -0.22608,0.20568 -0.08458,0.58588 0.218039,0.58588 0.09503,0 0.232028,-0.0872 0.304432,-0.19376 z m 2.580941,-0.1627 c 0.643186,-0.46025 1.432784,-0.45323 2.092177,0.0186 0.45145,0.32304 0.601106,0.3461 1.07858,0.16618 0.304921,-0.1149 0.653027,-0.40583 0.773576,-0.64651 0.138043,-0.27561 0.443625,-0.47844 0.825548,-0.54792 0.452332,-0.0823 0.781511,-0.35029 1.295802,-1.05493 0.379185,-0.51952 0.65707,-1.00944 0.617522,-1.08868 -0.03955,-0.0792 -0.365295,-0.55774 -0.723882,-1.06331 l -0.651982,-0.91923 -0.67271,0.4153 c -0.369993,0.2284 -1.115629,0.5017 -1.656971,0.60732 -2.005683,0.3913 -4.343145,0.13534 -5.546138,-0.60732 l -0.67271,-0.4153 -0.651983,0.91923 c -0.358592,0.50557 -0.684339,0.98407 -0.723887,1.06331 -0.03954,0.0792 0.238337,0.56916 0.617522,1.08868 0.51429,0.70464 0.843469,0.97264 1.295808,1.05493 0.378835,0.0689 0.687466,0.27223 0.822482,0.54181 0.194557,0.38845 0.7823,0.78035 1.218078,0.8122 0.09076,0.006 0.389187,-0.14834 0.663168,-0.34439 z m 5.255958,0.1627 c 0.201905,-0.29719 -0.252194,-0.63798 -0.522471,-0.39212 -0.22608,0.20568 -0.08459,0.58588 0.218039,0.58588 0.09503,0 0.232034,-0.0872 0.304432,-0.19376 z m -1.366407,-5.34246 c 0.770277,-0.34724 0.964013,-0.52413 0.964013,-0.88015 0,-0.35648 -0.195924,-0.53471 -0.979613,-0.89117 -0.838688,-0.38149 -1.247374,-0.44558 -2.840878,-0.44558 -1.593503,0 -2.002189,0.0641 -2.840877,0.44558 -1.617073,0.73553 -1.36684,1.44402 0.729535,2.06555 1.305727,0.38713 3.781637,0.24049 4.96782,-0.29423 z"
       id="path5062"
       inkscape:connector-curvature="0" />
  </g>
</svg>
