<?xml version="1.0" encoding="UTF-8" standalone="no"?>
<!-- Created with Inkscape (http://www.inkscape.org/) -->

<svg
   xmlns:dc="http://purl.org/dc/elements/1.1/"
   xmlns:cc="http://creativecommons.org/ns#"
   xmlns:rdf="http://www.w3.org/1999/02/22-rdf-syntax-ns#"
   xmlns:svg="http://www.w3.org/2000/svg"
   xmlns="http://www.w3.org/2000/svg"
   xmlns:sodipodi="http://sodipodi.sourceforge.net/DTD/sodipodi-0.dtd"
   xmlns:inkscape="http://www.inkscape.org/namespaces/inkscape"
   width="54.940182mm"
   height="45.735123mm"
   viewBox="0 0 54.940183 45.735122"
   version="1.1"
   id="svg5070"
   inkscape:version="0.92.1 r15371"
   sodipodi:docname="icon3.svg">
  <defs
     id="defs5064" />
  <sodipodi:namedview
     id="base"
     pagecolor="#ffffff"
     bordercolor="#666666"
     borderopacity="1.0"
     inkscape:pageopacity="0.0"
     inkscape:pageshadow="2"
     inkscape:zoom="1.979899"
     inkscape:cx="65.998596"
     inkscape:cy="114.98049"
     inkscape:document-units="mm"
     inkscape:current-layer="layer1"
     showgrid="false"
     fit-margin-top="0"
     fit-margin-left="0"
     fit-margin-right="0"
     fit-margin-bottom="0"
     inkscape:window-width="1536"
     inkscape:window-height="793"
     inkscape:window-x="-8"
     inkscape:window-y="-8"
     inkscape:window-maximized="1" />
  <metadata
     id="metadata5067">
    <rdf:RDF>
      <cc:Work
         rdf:about="">
        <dc:format>image/svg+xml</dc:format>
        <dc:type
           rdf:resource="http://purl.org/dc/dcmitype/StillImage" />
        <dc:title></dc:title>
      </cc:Work>
    </rdf:RDF>
  </metadata>
  <g
     inkscape:label="Layer 1"
     inkscape:groupmode="layer"
     id="layer1"
     transform="translate(-17.838722,-303.53387)">
    <rect
       style="opacity:1;fill:#babeff;fill-opacity:1;stroke:none;stroke-width:0.70547402;stroke-miterlimit:4;stroke-dasharray:none;stroke-dashoffset:0;stroke-opacity:1;paint-order:fill markers stroke"
       id="rect5652"
       width="54.940182"
       height="45.735123"
       x="17.838722"
       y="303.53387"
       ry="6.9490075" />
    <text
       xml:space="preserve"
       style="font-style:normal;font-weight:normal;font-size:6.38787937px;line-height:1.25;font-family:sans-serif;letter-spacing:0px;word-spacing:0px;fill:#fbfbfb;fill-opacity:1;stroke:none;stroke-width:0.15969698"
       x="24.854568"
       y="359.68118"
       id="text5656"
       transform="scale(1.0687193,0.93569939)"><tspan
         sodipodi:role="line"
         x="24.854568"
         y="359.68118"
         style="font-style:normal;font-variant:normal;font-weight:normal;font-stretch:normal;font-size:6.3877182px;font-family:Gabriola;-inkscape-font-specification:'Gabriola, Normal';font-variant-ligatures:normal;font-variant-caps:normal;font-variant-numeric:normal;font-feature-settings:normal;text-align:start;writing-mode:lr-tb;text-anchor:start;fill:#fbfbfb;fill-opacity:1;stroke-width:0.15969698"
         id="tspan5762"><tspan
   id="tspan5711"
   style="font-size:6.38787937px;font-family:sans-serif;fill:#fbfbfb;fill-opacity:1;stroke-width:0.15969698"> </tspan>Любовь в каждом </tspan><tspan
         sodipodi:role="line"
         x="24.854568"
         y="368.15253"
         style="font-style:normal;font-variant:normal;font-weight:normal;font-stretch:normal;font-size:6.3877182px;font-family:Gabriola;-inkscape-font-specification:'Gabriola, Normal';font-variant-ligatures:normal;font-variant-caps:normal;font-variant-numeric:normal;font-feature-settings:normal;text-align:start;writing-mode:lr-tb;text-anchor:start;fill:#fbfbfb;fill-opacity:1;stroke-width:0.15969698"
         id="tspan5772">      украшении</tspan></text>
    <path
       style="fill:#fbfbfb;fill-opacity:1;stroke-width:0.16562985"
       d="m 34.149635,329.27456 c -0.05905,-0.14119 -0.03733,-0.32097 0.04827,-0.39951 0.08559,-0.0785 3.344345,-0.16299 7.241674,-0.18768 7.948074,-0.0503 7.592168,-7.3e-4 9.168531,-1.27413 0.749381,-0.6053 0.810619,-0.6261 1.084903,-0.36843 0.273224,0.25667 0.241885,0.31398 -0.521649,0.95373 -0.446788,0.37436 -1.185949,0.85089 -1.642583,1.05897 -0.829221,0.37785 -0.839133,0.37838 -8.051016,0.42605 -6.523019,0.0431 -7.231148,0.0229 -7.328128,-0.209 z m 10.227555,-3.13707 c -1.538631,-0.46503 -2.263534,-0.76012 -2.300544,-0.93647 -0.02972,-0.14161 0.028,-0.304 0.128279,-0.36088 0.100274,-0.0569 1.236015,0.19928 2.523869,0.56919 l 2.341554,0.67257 0.356712,-0.32734 c 0.65651,-0.60243 0.314239,-0.94808 -1.902225,-1.921 -2.796325,-1.22743 -3.368145,-1.25327 -6.23619,-0.28181 -1.862297,0.63081 -2.325113,0.72757 -3.480123,0.72757 -0.95541,0 -1.391272,-0.0653 -1.541133,-0.23105 -0.374874,-0.4145 -0.01384,-0.56228 1.373704,-0.56228 1.177006,0 1.622598,-0.0905 3.318186,-0.67431 1.706391,-0.58748 2.136725,-0.67429 3.341832,-0.67413 1.340566,1.8e-4 1.450694,0.0302 3.570723,0.97289 2.175643,0.96743 2.46458,1.18964 2.729684,2.09925 0.109582,0.37599 0.209666,0.31612 2.238815,-1.33937 1.168257,-0.95312 2.368083,-1.89359 2.666278,-2.08994 0.771629,-0.50807 1.580389,-0.46895 2.207812,0.10679 0.849001,0.77908 0.603601,1.72562 -0.695762,2.6837 -0.670133,0.49412 -1.219475,0.57677 -1.219475,0.18348 0,-0.0933 0.350129,-0.48182 0.778065,-0.86346 0.784702,-0.69983 0.951688,-1.13407 0.570582,-1.48379 -0.473726,-0.43471 -0.990288,-0.16486 -3.271988,1.70927 -3.583996,2.94381 -4.03956,3.06659 -7.498655,2.02112 z m 8.0946,-0.0496 c -0.147404,-0.35249 0.31307,-0.58595 0.613014,-0.3108 0.130125,0.11937 0.183889,0.29528 0.119476,0.39092 -0.173946,0.25827 -0.610974,0.21047 -0.73249,-0.0802 z m -9.676174,-6.12255 c -1.077485,-0.96963 -1.673458,-1.63498 -1.779175,-1.98632 -0.178455,-0.59308 0.0025,-1.36797 0.417623,-1.78895 0.242978,-0.24638 0.223859,-0.34183 -0.21011,-1.04911 -0.394701,-0.64328 -0.477543,-0.97048 -0.478191,-1.88871 -8.52e-4,-1.25062 0.292777,-1.94791 1.165182,-2.76673 0.919097,-0.86265 1.78767,-1.19034 3.156619,-1.19093 1.302919,-4.6e-4 2.031822,0.24882 2.896133,0.99087 l 0.475484,0.40822 0.475484,-0.40822 c 0.864311,-0.74205 1.593213,-0.99143 2.896132,-0.99087 1.79327,7.5e-4 3.093061,0.72887 3.945799,2.21028 0.514549,0.89391 0.511941,2.60979 -0.0053,3.49267 -0.204503,0.34905 -1.776816,1.91817 -3.494028,3.48695 -2.998917,2.73969 -3.149378,2.85232 -3.810399,2.85232 -0.541235,0 -0.811136,-0.10935 -1.263911,-0.51205 -0.316644,-0.28163 -0.64039,-0.51205 -0.719433,-0.51205 -0.07904,0 -0.445145,0.2499 -0.813558,0.55532 -0.368413,0.30543 -0.796809,0.55532 -0.951989,0.55532 -0.155181,0 -1.01124,-0.65611 -1.902354,-1.45801 z m 4.779047,-2.53319 c 0,-1.06443 -1.306058,-1.60325 -2.247743,-0.92733 -0.548754,0.39389 -0.790355,0.39389 -1.336048,0 -0.579772,-0.41848 -1.132263,-0.40095 -1.708937,0.0542 -0.331059,0.26131 -0.470718,0.52312 -0.470718,0.88242 0,0.42848 0.234076,0.72678 1.451556,1.84981 l 1.451555,1.33896 1.430167,-1.30555 c 1.277516,-1.16621 1.430168,-1.36821 1.430168,-1.89254 z m 4.188243,0.38164 c 1.924962,-1.77119 3.15941,-3.03516 3.32659,-3.40615 0.398579,-0.8845 0.331515,-1.71775 -0.215603,-2.67879 -0.389728,-0.68458 -0.656946,-0.92978 -1.402971,-1.28742 -1.507753,-0.72278 -2.832048,-0.53623 -4.190985,0.59037 -0.367866,0.30497 -0.746206,0.55449 -0.840756,0.55449 -0.09455,0 -0.472889,-0.24952 -0.840756,-0.55449 -1.324764,-1.09827 -2.647846,-1.30338 -4.106115,-0.63654 -1.780862,0.81434 -2.456952,2.61626 -1.580232,4.21166 0.356939,0.64953 0.453221,0.71508 1.167098,0.79455 0.427936,0.0476 0.959199,0.17807 1.180584,0.28986 0.335404,0.16936 0.498325,0.16154 0.977099,-0.0469 0.799255,-0.34804 1.494365,-0.31247 2.180039,0.11154 0.797094,0.49293 1.050722,0.99346 0.967458,1.90931 -0.05709,0.62792 -0.189091,0.87716 -0.742145,1.40128 l -0.672709,0.6375 0.598631,0.46301 c 0.329247,0.25466 0.719089,0.46301 0.866318,0.46301 0.147228,0 1.645034,-1.26731 3.328455,-2.81625 z"
       id="path5639"
       inkscape:connector-curvature="0" />
  </g>
</svg>
