<?xml version="1.0" encoding="UTF-8" standalone="no"?>
<!-- Created with Inkscape (http://www.inkscape.org/) -->

<svg
   xmlns:dc="http://purl.org/dc/elements/1.1/"
   xmlns:cc="http://creativecommons.org/ns#"
   xmlns:rdf="http://www.w3.org/1999/02/22-rdf-syntax-ns#"
   xmlns:svg="http://www.w3.org/2000/svg"
   xmlns="http://www.w3.org/2000/svg"
   xmlns:sodipodi="http://sodipodi.sourceforge.net/DTD/sodipodi-0.dtd"
   xmlns:inkscape="http://www.inkscape.org/namespaces/inkscape"
   width="54.806545mm"
   height="45.735115mm"
   viewBox="0 0 54.806545 45.735115"
   version="1.1"
   id="svg8"
   inkscape:version="0.92.1 r15371"
   sodipodi:docname="icon1.svg">
  <defs
     id="defs2" />
  <sodipodi:namedview
     id="base"
     pagecolor="#ffffff"
     bordercolor="#666666"
     borderopacity="1.0"
     inkscape:pageopacity="0.0"
     inkscape:pageshadow="2"
     inkscape:zoom="1.979899"
     inkscape:cx="121.68461"
     inkscape:cy="55.306975"
     inkscape:document-units="mm"
     inkscape:current-layer="layer1"
     showgrid="false"
     fit-margin-top="0"
     fit-margin-left="0"
     fit-margin-right="0"
     fit-margin-bottom="0"
     inkscape:window-width="1536"
     inkscape:window-height="793"
     inkscape:window-x="-8"
     inkscape:window-y="-8"
     inkscape:window-maximized="1" />
  <metadata
     id="metadata5">
    <rdf:RDF>
      <cc:Work
         rdf:about="">
        <dc:format>image/svg+xml</dc:format>
        <dc:type
           rdf:resource="http://purl.org/dc/dcmitype/StillImage" />
        <dc:title></dc:title>
      </cc:Work>
    </rdf:RDF>
  </metadata>
  <g
     inkscape:label="Layer 1"
     inkscape:groupmode="layer"
     id="layer1"
     transform="translate(-62.37125,-243.84109)">
    <rect
       style="opacity:1;fill:#babeff;fill-opacity:1;stroke:none;stroke-width:0.70547402;stroke-miterlimit:4;stroke-dasharray:none;stroke-dashoffset:0;stroke-opacity:1;paint-order:fill markers stroke"
       id="rect5652"
       width="54.940182"
       height="45.735123"
       x="62.237614"
       y="243.84109"
       ry="6.9490075" />
    <path
       style="fill:#ffffff;fill-opacity:1;stroke-width:0.21222891"
       d="m 96.518779,271.78255 c -0.238357,-0.81811 -1.493856,-2.21108 -1.992864,-2.21108 -0.509216,0 -0.140959,-0.81944 0.544112,-1.21074 0.717613,-0.4099 1.325403,-1.28684 1.4941,-2.15573 0.117281,-0.60407 0.976147,-0.65029 1.14672,-0.0617 0.246786,0.85156 0.162757,1.18387 -0.299351,1.18387 -0.242833,0 -0.441516,0.10393 -0.441516,0.23095 0,0.12702 -0.355027,0.5404 -0.788949,0.91863 l -0.788949,0.68769 0.66677,0.51853 c 0.366725,0.28519 0.728967,0.69964 0.804984,0.92099 0.122302,0.35614 0.24802,0.29052 1.092095,-0.57003 0.558959,-0.56988 0.858892,-1.02734 0.724451,-1.10495 -0.126181,-0.0728 -0.167062,-0.28262 -0.09084,-0.46619 0.126675,-0.30509 0.195823,-0.30641 0.804819,-0.0153 0.36644,0.17513 0.666239,0.43434 0.666239,0.57601 0,0.14168 -0.436355,0.59472 -0.969695,1.00675 -0.652043,0.50373 -1.067863,1.03529 -1.269362,1.62267 -0.416095,1.21293 -0.971061,1.26819 -1.302761,0.1297 z m -6.988051,-1.76521 c -0.62474,-0.35737 -11.097406,-11.40249 -11.100725,-11.70752 -0.0041,-0.37611 1.414291,-2.71955 1.768473,-2.92186 0.497097,-0.28394 0.440229,0.57207 -0.09397,1.41453 -0.315959,0.49828 -0.574471,0.95848 -0.574471,1.02266 0,0.0642 1.291439,0.11669 2.869865,0.11669 1.578426,0 2.869866,-0.0368 2.869866,-0.0817 0,-0.0969 -2.676592,-4.46258 -2.826929,-4.61092 -0.05686,-0.0561 -0.149954,0.0189 -0.206876,0.16671 -0.05692,0.1478 -0.334063,0.51505 -0.615871,0.81611 -0.817476,0.87333 -0.924915,0.10434 -0.154699,-1.10724 l 0.63428,-0.99774 h 7.703858 7.703858 l 1.819661,2.8564 c 1.000802,1.57102 1.823512,3.04002 1.828212,3.26445 0.005,0.25146 -2.075074,2.56133 -5.420755,6.01885 -2.986116,3.08593 -5.548558,5.6737 -5.694316,5.75061 -0.145759,0.0769 -0.375014,0.0769 -0.509457,0 z m 2.225741,-7.50558 c 1.040174,-3.27684 1.132771,-3.7163 0.821298,-3.89789 -0.275086,-0.16037 -0.294797,-0.2673 -0.09109,-0.49415 0.207879,-0.2315 -0.02334,-0.73819 -1.154076,-2.52901 -0.777721,-1.23173 -1.48101,-2.22422 -1.562864,-2.20554 -0.08185,0.0187 -0.768825,1.02863 -1.526603,2.24431 l -1.377777,2.21035 2.086679,0.0586 c 1.831879,0.0514 2.077874,0.10123 2.014563,0.40805 -0.06026,0.29201 -0.418341,0.36628 -2.176829,0.45152 l -2.104711,0.10201 1.548283,4.88996 1.548284,4.88996 0.401245,-1.21744 c 0.220686,-0.6696 0.928803,-2.87941 1.573596,-4.91069 z m -3.38575,4.35633 c -0.220011,-0.70135 -0.883084,-2.81304 -1.473494,-4.69266 l -1.073473,-3.41747 H 82.771271 79.71879 l 0.512707,0.58713 c 0.582851,0.66746 8.436957,8.79818 8.498861,8.79818 0.02221,0 -0.139628,-0.57383 -0.359639,-1.27518 z m 7.060358,-3.41748 c 2.105085,-2.18821 3.973631,-4.13923 4.152315,-4.3356 0.306941,-0.33734 0.155385,-0.35698 -2.744766,-0.35568 l -3.069649,0.001 -1.074729,3.41611 c -2.133604,6.78183 -1.954786,6.1061 -1.495883,5.65275 0.222905,-0.22021 2.127625,-2.19073 4.232712,-4.37893 z m 4.626773,-5.66179 c -0.001,-0.0842 -0.635764,-1.15295 -1.409451,-2.37508 -1.388719,-2.19366 -1.410929,-2.21583 -1.736927,-1.73425 -0.696122,1.02835 -2.590598,4.07534 -2.590598,4.1666 0,0.0527 1.29144,0.0958 2.869865,0.0958 1.578428,0 2.868631,-0.0689 2.867111,-0.15302 z m -12.391195,-2.70338 1.346619,-2.1423 -2.784765,-0.0573 c -1.531621,-0.0315 -2.831654,-0.014 -2.888961,0.039 -0.05731,0.053 0.527395,1.10598 1.299337,2.34004 0.771943,1.23405 1.465996,2.18054 1.542341,2.10331 0.07634,-0.0772 0.744788,-1.10446 1.485429,-2.28273 z m 7.523404,-0.1649 c 0.641043,-1.04452 1.118575,-1.94254 1.061183,-1.99558 -0.05739,-0.053 -1.347705,-0.0707 -2.867361,-0.0392 l -2.763011,0.0573 1.434248,2.30673 c 1.265439,2.03523 1.465742,2.26336 1.701829,1.93827 0.14717,-0.20265 0.792071,-1.22307 1.433112,-2.26759 z m 4.652421,-1.35891 c -0.113959,-0.27702 -0.409524,-0.62045 -0.656811,-0.76318 -0.564466,-0.3258 -0.579798,-0.89872 -0.03129,-1.17001 0.23006,-0.1138 0.522915,-0.48428 0.650792,-0.82329 0.276499,-0.73306 0.587439,-0.78528 0.936939,-0.15733 0.14053,0.25248 0.51371,0.71484 0.82931,1.02746 l 0.57381,0.56839 -0.58176,0.45175 c -0.31997,0.24846 -0.64668,0.65833 -0.72603,0.91082 -0.19138,0.6089 -0.73614,0.58449 -0.994936,-0.0446 z m 0.76894,-1.12694 c 0.0744,-0.11133 0.048,-0.34667 -0.0588,-0.52297 -0.17329,-0.28618 -0.22394,-0.28731 -0.47247,-0.0105 -0.279298,0.31103 -0.163155,0.73593 0.20116,0.73593 0.10708,0 0.25561,-0.0911 0.33005,-0.20241 z m -21.08003,-1.12047 c -0.122165,-0.29697 -0.222118,-0.61688 -0.222118,-0.7109 0,-0.094 -0.37253,-0.45448 -0.827845,-0.80099 l -0.827846,-0.63004 0.711667,-0.56292 c 0.391416,-0.3096 0.864622,-0.90721 1.051567,-1.32802 0.426738,-0.96058 0.886341,-0.97702 1.219651,-0.0436 0.141702,0.39683 0.546772,0.91906 0.900156,1.16053 0.780201,0.53311 0.821123,1.02111 0.114918,1.37041 -0.290179,0.14353 -0.649387,0.50335 -0.79824,0.79959 -0.520531,1.03594 -0.584016,1.12699 -0.840975,1.20616 -0.14235,0.0438 -0.358771,-0.16324 -0.480935,-0.46021 z m 1.015664,-2.65141 -0.507207,-0.50582 -0.514148,0.50582 -0.514148,0.5058 0.514148,0.50581 0.514148,0.50581 0.507207,-0.50581 0.507207,-0.50581 z"
       id="path4496"
       inkscape:connector-curvature="0" />
    <text
       xml:space="preserve"
       style="font-style:normal;font-weight:normal;font-size:6.38787937px;line-height:1.25;font-family:sans-serif;letter-spacing:0px;word-spacing:0px;fill:#fbfbfb;fill-opacity:1;stroke:none;stroke-width:0.15969698"
       x="64.36129"
       y="297.11258"
       id="text5656"
       transform="scale(1.0687193,0.93569939)"><tspan
         sodipodi:role="line"
         id="tspan5654"
         x="64.36129"
         y="297.11258"
         style="fill:#fbfbfb;fill-opacity:1;stroke-width:0.15969698">  <tspan
   style="font-style:normal;font-variant:normal;font-weight:normal;font-stretch:normal;font-size:6.3877182px;font-family:Gabriola;-inkscape-font-specification:'Gabriola, Normal';font-variant-ligatures:normal;font-variant-caps:normal;font-variant-numeric:normal;font-feature-settings:normal;text-align:start;writing-mode:lr-tb;text-anchor:start;fill:#fbfbfb;fill-opacity:1;stroke-width:0.15969698"
   id="tspan5664">   Изделие из </tspan></tspan><tspan
         sodipodi:role="line"
         x="64.36129"
         y="305.58392"
         style="font-style:normal;font-variant:normal;font-weight:normal;font-stretch:normal;font-size:6.3877182px;font-family:Gabriola;-inkscape-font-specification:'Gabriola, Normal';font-variant-ligatures:normal;font-variant-caps:normal;font-variant-numeric:normal;font-feature-settings:normal;text-align:start;writing-mode:lr-tb;text-anchor:start;fill:#fbfbfb;fill-opacity:1;stroke-width:0.15969698"
         id="tspan5660">лучших материалов</tspan></text>
  </g>
</svg>
