<?xml version="1.0" encoding="UTF-8" standalone="no"?>
<!-- Created with Inkscape (http://www.inkscape.org/) -->

<svg
   xmlns:dc="http://purl.org/dc/elements/1.1/"
   xmlns:cc="http://creativecommons.org/ns#"
   xmlns:rdf="http://www.w3.org/1999/02/22-rdf-syntax-ns#"
   xmlns:svg="http://www.w3.org/2000/svg"
   xmlns="http://www.w3.org/2000/svg"
   xmlns:sodipodi="http://sodipodi.sourceforge.net/DTD/sodipodi-0.dtd"
   xmlns:inkscape="http://www.inkscape.org/namespaces/inkscape"
   width="99.596725mm"
   height="101.86459mm"
   viewBox="0 0 99.596725 101.86459"
   version="1.1"
   id="svg4499"
   inkscape:version="0.92.1 r15371"
   sodipodi:docname="iconup.svg">
  <defs
     id="defs4493" />
  <sodipodi:namedview
     id="base"
     pagecolor="#ffffff"
     bordercolor="#666666"
     borderopacity="1.0"
     inkscape:pageopacity="0.0"
     inkscape:pageshadow="2"
     inkscape:zoom="0.35"
     inkscape:cx="344.97122"
     inkscape:cy="-161.59926"
     inkscape:document-units="mm"
     inkscape:current-layer="layer1"
     showgrid="false"
     fit-margin-top="0"
     fit-margin-left="0"
     fit-margin-right="0"
     fit-margin-bottom="0"
     inkscape:window-width="1536"
     inkscape:window-height="793"
     inkscape:window-x="-8"
     inkscape:window-y="-8"
     inkscape:window-maximized="1" />
  <metadata
     id="metadata4496">
    <rdf:RDF>
      <cc:Work
         rdf:about="">
        <dc:format>image/svg+xml</dc:format>
        <dc:type
           rdf:resource="http://purl.org/dc/dcmitype/StillImage" />
        <dc:title></dc:title>
      </cc:Work>
    </rdf:RDF>
  </metadata>
  <g
     inkscape:label="Layer 1"
     inkscape:groupmode="layer"
     id="layer1"
     transform="translate(-62.838547,-79.002232)">
    <ellipse
       style="opacity:0.76599995;fill:#c1b5ff;fill-opacity:1;stroke:none;stroke-width:0.8670001;stroke-miterlimit:4;stroke-dasharray:none;stroke-dashoffset:0;stroke-opacity:1;paint-order:fill markers stroke"
       id="path4865"
       cx="112.63691"
       cy="129.93452"
       rx="49.798363"
       ry="50.932293" />
    <path
       style="fill:#ffffff;fill-opacity:1;stroke-width:0.16064061"
       d="m 89.133775,158.27111 c -1.495165,-0.98552 -2.024088,-3.18497 -1.180036,-4.90692 0.307007,-0.62633 2.992633,-3.48125 11.56918,-12.29846 6.143141,-6.31553 11.368321,-11.61504 11.611501,-11.77669 0.59482,-0.3954 2.21362,-0.41462 2.81451,-0.0334 0.24565,0.15585 5.5527,5.33036 11.79341,11.49891 8.71276,8.612 11.4425,11.40265 11.75924,12.02157 1.19822,2.34137 -0.28619,5.42422 -2.62752,5.4569 -0.43035,0.006 -0.99778,-0.0939 -1.26098,-0.22205 -0.2632,-0.12814 -5.07459,-4.77458 -10.69197,-10.32541 -5.61739,-5.55084 -10.25779,-10.09189 -10.312,-10.09125 -0.0542,6.4e-4 -4.62387,4.6522 -10.15476,10.33681 -5.530885,5.68459 -10.269832,10.44437 -10.530981,10.57728 -0.820622,0.41765 -1.940502,0.32241 -2.789594,-0.23728 z m 0.641619,-29.27913 c -1.359822,-0.3749 -2.303944,-1.65142 -2.416002,-3.26661 -0.141927,-2.04568 -0.74808,-1.3156 11.828137,-14.24641 6.223371,-6.39885 11.537801,-11.773431 11.809861,-11.943536 0.70036,-0.437872 1.97017,-0.421341 2.71954,0.03541 0.32748,0.199608 5.70154,5.420116 11.94236,11.601136 12.58871,12.46809 12.08256,11.8825 11.99988,13.88351 -0.0549,1.33011 -0.59317,2.3656 -1.56587,3.01269 -0.80367,0.53464 -2.04841,0.59512 -2.81952,0.13698 -0.28651,-0.17023 -5.07589,-4.80999 -10.64307,-10.31057 -5.56719,-5.5006 -10.18243,-10.00035 -10.2561,-9.99948 -0.0737,8.8e-4 -4.61774,4.60934 -10.09792,10.24105 -5.480178,5.63171 -10.163,10.36196 -10.406274,10.51167 -0.575624,0.35425 -1.504781,0.50687 -2.095022,0.34415 z"
       id="path5061"
       inkscape:connector-curvature="0" />
  </g>
</svg>
