<?xml version="1.0" encoding="UTF-8" standalone="no"?>
<!-- Created with Inkscape (http://www.inkscape.org/) -->

<svg
   xmlns:dc="http://purl.org/dc/elements/1.1/"
   xmlns:cc="http://creativecommons.org/ns#"
   xmlns:rdf="http://www.w3.org/1999/02/22-rdf-syntax-ns#"
   xmlns:svg="http://www.w3.org/2000/svg"
   xmlns="http://www.w3.org/2000/svg"
   xmlns:sodipodi="http://sodipodi.sourceforge.net/DTD/sodipodi-0.dtd"
   xmlns:inkscape="http://www.inkscape.org/namespaces/inkscape"
   width="60.832039mm"
   height="60.643051mm"
   viewBox="0 0 60.832039 60.643051"
   version="1.1"
   id="svg8"
   inkscape:version="0.92.1 r15371"
   sodipodi:docname="img1.svg">
  <defs
     id="defs2" />
  <sodipodi:namedview
     id="base"
     pagecolor="#ffffff"
     bordercolor="#666666"
     borderopacity="1.0"
     inkscape:pageopacity="0.0"
     inkscape:pageshadow="2"
     inkscape:zoom="1.4"
     inkscape:cx="88.544148"
     inkscape:cy="91.214202"
     inkscape:document-units="mm"
     inkscape:current-layer="layer1"
     showgrid="false"
     fit-margin-top="0"
     fit-margin-left="0"
     fit-margin-right="0"
     fit-margin-bottom="0"
     inkscape:window-width="1536"
     inkscape:window-height="793"
     inkscape:window-x="-8"
     inkscape:window-y="-8"
     inkscape:window-maximized="1" />
  <metadata
     id="metadata5">
    <rdf:RDF>
      <cc:Work
         rdf:about="">
        <dc:format>image/svg+xml</dc:format>
        <dc:type
           rdf:resource="http://purl.org/dc/dcmitype/StillImage" />
        <dc:title></dc:title>
      </cc:Work>
    </rdf:RDF>
  </metadata>
  <g
     inkscape:label="Layer 1"
     inkscape:groupmode="layer"
     id="layer1"
     transform="translate(-34.217907,-170.57803)">
    <ellipse
       style="opacity:1;fill:#babeff;fill-opacity:1;stroke:none;stroke-width:0.88912642;stroke-miterlimit:4;stroke-dasharray:none;stroke-dashoffset:0;stroke-opacity:1;paint-order:fill markers stroke"
       id="path4491"
       cx="64.633926"
       cy="200.89955"
       rx="30.416019"
       ry="30.321526" />
    <path
       style="fill:#ffffff;fill-opacity:1;stroke-width:0.04844898"
       d="m 45.168966,209.63607 c -0.498575,-0.0644 -1.160041,-0.28603 -1.588098,-0.53214 -1.115485,-0.64132 -1.797508,-1.71329 -2.116116,-3.32598 -0.03854,-0.19508 -0.05688,-0.62264 -0.05409,-1.2611 0.0057,-1.29486 0.125606,-2.13351 0.505237,-3.53265 0.63987,-2.35824 1.789294,-4.40296 3.187486,-5.67025 0.46851,-0.42465 1.358412,-0.98648 1.945609,-1.22835 0.514837,-0.21206 1.354872,-0.41408 2.019603,-0.48569 0.47531,-0.0512 5.088266,-0.0858 5.088266,-0.0382 0,0.10429 -0.761788,2.66364 -0.856129,2.87629 -0.06861,0.15468 -0.220901,0.38727 -0.338413,0.5169 -0.376047,0.4148 -0.374003,0.41448 -2.829608,0.45135 -1.411102,0.0212 -2.213984,0.0534 -2.30534,0.0924 -0.523998,0.2236 -1.143033,0.84011 -1.613344,1.60678 -0.456549,0.74424 -0.867247,1.83364 -1.119548,2.9697 -0.08794,0.39598 -0.101298,0.58038 -0.101298,1.39805 v 0.9419 l 0.163688,0.40633 c 0.192555,0.47801 0.358283,0.69265 0.688355,0.89153 l 0.241475,0.1455 1.618405,0.0301 c 1.529274,0.0284 1.631662,0.0365 1.858986,0.14716 0.357972,0.17422 0.507983,0.30355 0.643424,0.55464 0.207592,0.38487 0.17783,0.71661 -0.18106,2.01842 l -0.299592,1.08669 -2.104396,-0.007 c -1.157418,-0.004 -2.261494,-0.0274 -2.453501,-0.0522 z m 6.10101,0.0114 c 0,-0.10499 0.663745,-2.49212 0.772746,-2.77914 0.185025,-0.48723 0.594092,-0.81614 1.15185,-0.92614 0.163388,-0.0323 1.047089,-0.0567 2.077687,-0.0575 1.984085,-0.001 2.16528,-0.0237 2.65165,-0.32461 1.082673,-0.66991 2.007009,-2.26053 2.61771,-4.50463 0.209283,-0.76904 0.306641,-1.31359 0.336582,-1.8825 0.04614,-0.87693 -0.120547,-1.38753 -0.53406,-1.63595 -0.213538,-0.12829 -0.254773,-0.13308 -1.262525,-0.14653 -0.66262,-0.009 -1.063608,0.006 -1.101769,0.0412 -0.03298,0.0303 -0.326771,1.04521 -0.652837,2.25533 -0.670375,2.48798 -0.872103,3.06063 -1.209167,3.43243 -0.120121,0.13249 -0.290626,0.27033 -0.378897,0.3063 -0.184359,0.0751 -2.763736,0.13203 -2.762061,0.0609 5.6e-4,-0.0238 0.120507,-0.46579 0.26656,-0.98231 0.146046,-0.51652 0.320757,-1.14438 0.388237,-1.39526 0.06749,-0.25088 0.382352,-1.38587 0.699705,-2.5222 0.317354,-1.13634 0.672582,-2.41622 0.789399,-2.8442 0.116818,-0.42796 0.302028,-1.09076 0.411571,-1.47285 0.109549,-0.38209 0.199181,-0.70207 0.199181,-0.71105 0,-0.0444 5.093171,-0.009 5.581521,0.0389 2.075784,0.20308 2.842359,0.94878 3.145114,3.05944 0.178502,1.24441 -0.05022,2.88113 -0.69708,4.98865 -0.215984,0.70368 -0.966797,2.53521 -1.327741,3.23891 -1.251534,2.43999 -2.676473,3.90013 -4.352612,4.46016 -0.878118,0.29339 -1.063776,0.30883 -4.044156,0.3362 -1.995956,0.0183 -2.766608,0.009 -2.766608,-0.0336 z m 11.658653,-0.0727 c 0.303495,-1.2419 0.682644,-2.69008 0.738404,-2.82041 0.08178,-0.19111 0.361007,-0.51288 0.542291,-0.62489 0.375152,-0.2318 0.606373,-0.2441 4.58735,-0.2441 3.586653,0 3.782809,0.005 3.753904,0.0939 -0.03779,0.11638 -0.278005,1.04627 -0.336167,1.30135 -0.116464,0.51078 -0.356101,1.37831 -0.428268,1.5504 -0.167846,0.40023 -0.576398,0.71248 -1.057577,0.80827 -0.175803,0.035 -1.668546,0.0556 -4.053861,0.0559 l -3.775585,4.3e-4 0.02951,-0.12074 z m 10.342945,0.0745 c 0,-0.0255 0.159267,-0.61107 0.353934,-1.30135 0.194662,-0.69027 0.4103,-1.4603 0.479196,-1.71118 0.0689,-0.25089 0.265278,-0.9512 0.436399,-1.55627 0.333883,-1.18054 0.714975,-2.54127 1.15727,-4.13213 0.151815,-0.54602 0.476369,-1.70517 0.721242,-2.57586 0.244873,-0.8707 0.638469,-2.27134 0.874652,-3.11252 0.236187,-0.84118 0.443497,-1.57168 0.460693,-1.62333 0.029,-0.0871 0.150219,-0.0939 1.666861,-0.0939 0.899581,0 1.6356,0.009 1.6356,0.02 0,0.03 -0.544432,1.99658 -1.049239,3.79012 -0.514217,1.82694 -0.829453,3.00298 -0.830724,3.09909 -0.0017,0.13943 0.08776,0.0537 0.399499,-0.38238 0.341962,-0.47833 0.857084,-1.16018 2.437517,-3.22652 0.955772,-1.24963 1.927598,-2.52278 2.325673,-3.04678 l 0.194662,-0.25624 2.005219,0.0148 2.005212,0.0148 -0.888992,0.99278 c -0.488945,0.54604 -1.125567,1.25802 -1.414715,1.58217 -0.289148,0.32416 -0.594613,0.66503 -0.678813,0.75747 -0.355391,0.39019 -2.675811,2.97091 -3.007113,3.34445 -0.198436,0.22372 -0.360823,0.426 -0.360861,0.44947 -3.4e-5,0.0235 0.07771,0.3012 0.172784,0.61714 0.09507,0.31595 0.300168,1.00912 0.455773,1.5404 0.932478,3.18374 1.096549,3.74137 1.20793,4.10529 0.06775,0.22137 0.222256,0.74056 0.343357,1.15378 0.121101,0.41321 0.270659,0.91486 0.332359,1.11475 0.0617,0.1999 0.112176,0.38705 0.112176,0.4159 0,0.0765 -2.662803,0.0692 -2.91271,-0.008 -0.286562,-0.0885 -0.583023,-0.44075 -0.795368,-0.94496 -0.09651,-0.22916 -0.297318,-0.88756 -0.446243,-1.4631 -0.148919,-0.57554 -0.375538,-1.4449 -0.503588,-1.93191 -0.12805,-0.48699 -0.303573,-1.16316 -0.39004,-1.50259 -0.08647,-0.33942 -0.175495,-0.652 -0.197826,-0.6946 -0.03259,-0.0622 -0.108004,-0.0101 -0.382721,0.26634 -0.867266,0.87154 -1.222024,1.2783 -1.269637,1.45575 -0.02654,0.099 -0.20001,0.71123 -0.385449,1.36056 -0.707314,2.47681 -0.949617,3.33028 -0.971248,3.42108 -0.02077,0.0873 -0.137922,0.0939 -1.657548,0.0939 -0.899346,0 -1.635173,-0.0208 -1.635173,-0.0462 z m -8.61693,-6.14302 c 0,-0.0101 0.03757,-0.16081 0.08351,-0.33539 0.04592,-0.17459 0.184863,-0.72796 0.308747,-1.22972 0.318994,-1.29199 0.336543,-1.34265 0.56488,-1.63025 0.240467,-0.30289 0.528125,-0.45359 1.028946,-0.53906 0.219541,-0.0374 1.621046,-0.0578 3.987702,-0.0578 3.396432,0 3.649182,0.006 3.649182,0.0907 0,0.0756 -0.370733,1.58459 -0.594737,2.42079 -0.13885,0.51835 -0.355054,0.86237 -0.660637,1.0512 -0.39008,0.24105 -0.478463,0.24586 -4.529337,0.2467 -2.111038,4.3e-4 -3.838251,-0.007 -3.838251,-0.0172 z m 1.692837,-6.13753 c -0.01137,-0.0235 0.07735,-0.42907 0.197182,-0.90131 0.119824,-0.47225 0.266929,-1.06316 0.326894,-1.31313 0.183217,-0.76376 0.341627,-1.05842 0.683624,-1.27161 0.510581,-0.31827 0.330735,-0.3052 4.487111,-0.32615 2.102527,-0.0106 3.846835,-0.008 3.876243,0.006 0.03886,0.0183 0.0076,0.21348 -0.11424,0.71377 -0.550334,2.25973 -0.610819,2.43034 -0.968388,2.73187 -0.436841,0.36838 -0.368483,0.36271 -4.63331,0.3841 -2.108939,0.0106 -3.843743,3e-5 -3.855116,-0.0235 z"
       id="path4519"
       inkscape:connector-curvature="0" />
  </g>
</svg>
