<?xml version="1.0" encoding="UTF-8" standalone="no"?>
<!-- Created with Inkscape (http://www.inkscape.org/) -->

<svg
   xmlns:dc="http://purl.org/dc/elements/1.1/"
   xmlns:cc="http://creativecommons.org/ns#"
   xmlns:rdf="http://www.w3.org/1999/02/22-rdf-syntax-ns#"
   xmlns:svg="http://www.w3.org/2000/svg"
   xmlns="http://www.w3.org/2000/svg"
   xmlns:sodipodi="http://sodipodi.sourceforge.net/DTD/sodipodi-0.dtd"
   xmlns:inkscape="http://www.inkscape.org/namespaces/inkscape"
   width="60.832039mm"
   height="60.643051mm"
   viewBox="0 0 60.832039 60.643051"
   version="1.1"
   id="svg4537"
   inkscape:version="0.92.1 r15371"
   sodipodi:docname="img2.svg">
  <defs
     id="defs4531" />
  <sodipodi:namedview
     id="base"
     pagecolor="#ffffff"
     bordercolor="#666666"
     borderopacity="1.0"
     inkscape:pageopacity="0.0"
     inkscape:pageshadow="2"
     inkscape:zoom="0.49497475"
     inkscape:cx="-390.57185"
     inkscape:cy="-64.621872"
     inkscape:document-units="mm"
     inkscape:current-layer="layer1"
     showgrid="false"
     fit-margin-top="0"
     fit-margin-left="0"
     fit-margin-right="0"
     fit-margin-bottom="0"
     inkscape:window-width="1536"
     inkscape:window-height="793"
     inkscape:window-x="-8"
     inkscape:window-y="-8"
     inkscape:window-maximized="1" />
  <metadata
     id="metadata4534">
    <rdf:RDF>
      <cc:Work
         rdf:about="">
        <dc:format>image/svg+xml</dc:format>
        <dc:type
           rdf:resource="http://purl.org/dc/dcmitype/StillImage" />
        <dc:title></dc:title>
      </cc:Work>
    </rdf:RDF>
  </metadata>
  <g
     inkscape:label="Layer 1"
     inkscape:groupmode="layer"
     id="layer1"
     transform="translate(-101.49768,-200.15467)">
    <ellipse
       style="opacity:1;fill:#babeff;fill-opacity:1;stroke:none;stroke-width:0.88912648;stroke-miterlimit:4;stroke-dasharray:none;stroke-dashoffset:0;stroke-opacity:1;paint-order:fill markers stroke"
       id="path4491"
       cx="131.9137"
       cy="230.4762"
       rx="30.416019"
       ry="30.321526" />
    <path
       style="fill:#ffffff;fill-opacity:1;stroke-width:0.06674404"
       d="m 106.04832,230.83504 v -12.51188 h 12.55052 12.55052 v 12.51188 12.51187 h -12.55052 -12.55052 z m 11.6689,6.1892 c 0.0193,-0.4771 0.0173,-0.48379 -0.1477,-0.48379 -0.29169,0 -0.87261,-0.25865 -1.08621,-0.48363 -0.37897,-0.39917 -0.45204,-0.61697 -0.45341,-1.35145 -0.001,-0.60744 0.0155,-0.69722 0.18512,-1.00094 0.24034,-0.43029 0.611,-0.69466 1.04618,-0.74618 0.18439,-0.0218 0.36585,-0.0765 0.40324,-0.12157 0.0374,-0.045 0.0602,-0.25859 0.0506,-0.47456 l -0.0174,-0.39267 -0.4673,0.004 c -0.53403,0.004 -1.04357,0.19927 -1.44752,0.55379 -0.30407,0.26686 -0.62492,0.89001 -0.72805,1.41402 -0.0971,0.49306 -0.0452,1.56287 0.091,1.8767 0.053,0.12222 0.1271,0.29729 0.16459,0.38905 0.0984,0.24083 0.58188,0.76745 0.86535,0.94257 0.31451,0.19429 0.98983,0.38938 1.28826,0.37215 l 0.23366,-0.0135 0.0196,-0.48379 z m 3.21816,0.0167 c 0,-0.4528 -0.0125,-0.50048 -0.13102,-0.50048 -0.23446,0 -0.8717,-0.27432 -1.04906,-0.45161 -0.59962,-0.59937 -0.66053,-1.92374 -0.12171,-2.64634 0.19885,-0.26668 0.50352,-0.43067 0.9076,-0.48852 l 0.36081,-0.0517 0.0201,-0.42604 c 0.0111,-0.23432 0.007,-0.46131 -0.01,-0.50444 -0.0546,-0.14228 -0.91621,-0.002 -1.3542,0.21997 -0.58787,0.29837 -0.92056,0.70412 -1.1604,1.41522 -0.12379,0.36705 -0.14182,0.54501 -0.12139,1.19845 0.0217,0.69532 0.0438,0.80927 0.23438,1.21313 0.24625,0.52167 0.65381,0.98904 1.03623,1.18828 0.29193,0.1521 0.90671,0.31993 1.20502,0.32896 l 0.18358,0.006 z m -7.81742,0.36222 c 0.7815,-0.16753 1.27512,-1.2185 1.27512,-2.71486 0,-1.56595 -0.5426,-2.68462 -1.33516,-2.75265 -0.49893,-0.0428 -0.66854,0.002 -0.9396,0.24645 -0.54912,0.49588 -0.79611,1.27381 -0.79611,2.50745 0,1.53151 0.43452,2.53746 1.17048,2.70974 0.14565,0.0341 0.27085,0.065 0.27822,0.0687 0.007,0.004 0.16355,-0.0255 0.34705,-0.0648 z m -0.51324,-0.99734 c -0.24899,-0.23187 -0.37266,-0.80727 -0.37266,-1.73379 0,-1.25914 0.21798,-1.84174 0.66975,-1.79003 0.14027,0.016 0.2195,0.083 0.30501,0.25767 0.26521,0.54182 0.30981,1.95544 0.088,2.79025 -0.15459,0.58186 -0.3969,0.74896 -0.69012,0.4759 z m -3.36629,0.21184 c 0.0172,-0.62312 0.0302,-0.68531 0.13351,-0.63982 0.0629,0.0277 0.22903,0.0639 0.3691,0.0804 0.23097,0.0272 0.28113,0.003 0.53896,-0.26659 0.37379,-0.38995 0.47516,-0.75118 0.47335,-1.6868 -10e-4,-0.7031 -0.0112,-0.7536 -0.23366,-1.19891 -0.1896,-0.37956 -0.29253,-0.50206 -0.56072,-0.66731 -0.30882,-0.19027 -0.36881,-0.20239 -1.00137,-0.20239 h -0.67288 l -0.0175,2.65545 -0.0175,2.65546 0.48476,-0.0196 0.48477,-0.0196 z m 0.10808,-1.61878 c -0.11073,-0.12212 -0.12996,-0.26885 -0.14868,-1.13441 -0.023,-1.0648 -0.008,-1.11056 0.30195,-0.89385 0.21809,0.15269 0.31575,0.53448 0.31818,1.24387 0.002,0.5411 -0.018,0.66588 -0.12498,0.78408 -0.15803,0.17467 -0.18835,0.1747 -0.34647,3.3e-4 z m 13.30959,1.21421 0.0184,-1.09477 0.21526,-0.20863 c 0.11839,-0.11474 0.35916,-0.36529 0.53504,-0.55679 0.17587,-0.1915 0.32912,-0.34818 0.34055,-0.34818 0.0114,0 0.0425,0.72709 0.0689,1.61574 0.0265,0.88866 0.0628,1.63937 0.0806,1.66825 0.0179,0.0289 0.2428,0.0525 0.49988,0.0525 h 0.46741 l -0.0382,-0.45043 c -0.021,-0.24773 -0.069,-1.47101 -0.10667,-2.71839 -0.0377,-1.24738 -0.093,-2.29246 -0.12297,-2.3224 -0.0299,-0.0299 -0.47194,0.38594 -0.9822,0.92418 l -0.92773,0.97861 -0.0334,-0.8583 -0.0334,-0.8583 h -0.46731 -0.46731 l -0.0175,2.56892 c -0.01,1.4129 -0.002,2.60792 0.0158,2.65559 0.0238,0.0621 0.1613,0.0811 0.48481,0.0669 l 0.45153,-0.0197 z m 4.02809,0.94463 c 0.004,-0.10094 0.007,-0.58607 0.005,-1.07808 l -0.002,-0.89457 0.54548,-0.57349 c 0.30001,-0.31542 0.56801,-0.5835 0.59555,-0.59573 0.0275,-0.0122 0.0501,0.36591 0.0501,0.84033 0,0.47441 0.0196,1.22762 0.0436,1.67381 l 0.0436,0.81123 h 0.45704 0.45705 l 7.5e-4,-0.45043 c 0.002,-1.04791 -0.1531,-4.99244 -0.19786,-5.0409 -0.0268,-0.0291 -0.48773,0.39984 -1.0242,0.95311 l -0.9754,1.00595 0.005,-0.8417 c 0.003,-0.46412 -0.0243,-0.87086 -0.0602,-0.90669 -0.0358,-0.0358 -0.24212,-0.0558 -0.45859,-0.0447 l -0.39359,0.0203 -0.0174,2.65251 -0.0175,2.65252 h 0.46807 c 0.46427,0 0.46814,-0.001 0.47569,-0.1835 z m -11.56302,-7.52178 c 0.68109,-0.35686 1.09566,-1.36251 1.10121,-2.67122 0.007,-1.71913 -0.68025,-2.77417 -1.80366,-2.76782 -0.79296,0.004 -1.38196,0.72078 -1.60528,1.95221 -0.28541,1.57383 0.30112,3.36644 1.16363,3.55642 0.1003,0.0221 0.2124,0.0517 0.24912,0.0657 0.1225,0.0469 0.71957,-0.0434 0.89498,-0.1353 z m -0.94963,-0.95623 c -0.25095,-0.27718 -0.33269,-0.68217 -0.3394,-1.68162 -0.005,-0.79523 0.0153,-1.02107 0.11593,-1.26787 0.1637,-0.40153 0.2939,-0.53384 0.52531,-0.53384 0.44668,0 0.65404,0.56314 0.65404,1.77619 0,0.83252 -0.0946,1.32196 -0.3112,1.61036 -0.18744,0.24954 -0.46822,0.29169 -0.64468,0.0968 z m -4.85223,-1.20561 -1.5e-4,-2.17763 0.5676,0.0216 0.5676,0.0216 v 2.16382 2.16383 h 0.53483 0.53483 l -0.0175,-2.65252 -0.0175,-2.65252 h -1.6022 -1.60219 v 2.63584 2.63583 l 0.40055,0.0334 c 0.69969,0.0583 0.63422,0.28473 0.63405,-2.19319 z m 11.04862,-0.47601 v -2.63583 l -0.51737,-0.0195 -0.51738,-0.0195 v 0.90366 0.90366 h -0.40055 c -0.61595,0 -0.66758,-0.08 -0.66758,-1.03432 v -0.76739 h -0.53406 -0.53407 l 3.9e-4,0.81744 c 3.9e-4,0.95084 0.0657,1.24431 0.33858,1.52338 0.31807,0.32525 0.6891,0.4587 1.27993,0.46037 l 0.51735,0.001 v 1.26231 c 0,0.77476 0.0256,1.2709 0.0662,1.28455 0.0364,0.0122 0.26922,0.007 0.51738,-0.0111 l 0.45119,-0.0334 z m 5.51652,2.67011 0.30938,-7.3e-4 0.0488,-1.26787 0.0488,-1.26787 h 0.5567 0.55671 l 0.0349,0.21687 c 0.0192,0.11928 0.0661,0.5622 0.10425,0.98427 0.0382,0.42207 0.0857,0.89501 0.10574,1.05099 l 0.0364,0.28361 h 0.52997 c 0.62082,0 0.57689,0.11105 0.42955,-1.08595 -0.0552,-0.44872 -0.17354,-1.41428 -0.2629,-2.14569 -0.17603,-1.44082 -0.19237,-1.48675 -0.66522,-1.86934 l -0.25219,-0.20405 -1.06138,-0.0237 c -0.84982,-0.0189 -1.06711,-0.006 -1.09013,0.0667 -0.0158,0.0497 -0.0618,1.24429 -0.10227,2.6546 -0.0782,2.72631 -0.0788,2.71956 0.22999,2.64251 0.0734,-0.0183 0.27274,-0.0337 0.4429,-0.0342 z m 0.39157,-3.72945 c 0,-0.10551 0.0188,-0.28569 0.0417,-0.40038 0.039,-0.19479 0.0606,-0.20853 0.32903,-0.20853 0.307,0 0.46439,0.10551 0.56945,0.38172 0.145,0.3812 0.10531,0.41904 -0.43952,0.41904 H 126.276 Z m -2.93735,1.56315 v -2.1654 l 0.38386,-0.02 0.38386,-0.02 0.0196,-0.48379 0.0196,-0.48379 h -1.34102 -1.34101 l 0.0196,0.48379 0.0196,0.48379 0.38386,0.02 0.38386,0.02 v 2.1654 2.16539 h 0.53407 0.53406 z m 9.47965,3.33317 v -12.51188 h 12.55051 12.55052 v 12.51188 12.51187 h -12.55052 -12.55051 z m 23.60792,11.10312 c 0.0764,-0.0634 0.0912,-1.85298 0.0912,-11.03911 0,-6.0299 -0.0182,-11.01095 -0.0405,-11.06901 -0.0367,-0.0957 -1.07484,-0.10555 -11.07791,-0.10555 -6.4383,0 -11.05279,0.0249 -11.07437,0.0598 -0.0501,0.081 -0.0546,22.07982 -0.005,22.1608 0.0606,0.098 21.98799,0.091 22.10614,-0.007 z m -11.69161,-2.71321 c -0.19039,-0.24868 -0.29531,-0.43612 -0.29804,-0.53246 -0.004,-0.14089 0.0912,-0.0928 0.23128,0.11678 0.16905,0.25298 0.24495,0.25184 0.35885,-0.005 0.0647,-0.14605 0.11172,-0.18488 0.16249,-0.13413 0.0508,0.0508 0.0264,0.15372 -0.0843,0.3557 -0.21531,0.393 -0.22015,0.3956 -0.37029,0.19949 z m 0.83014,-0.33227 c -0.36061,-0.6643 -0.66547,-1.15126 -0.72027,-1.15049 -0.0997,0.001 -0.74943,1.07861 -0.71559,1.18644 0.0246,0.0783 -0.0204,0.14038 -0.14315,0.1976 -0.2633,0.12272 -0.28587,0.10872 -0.28587,-0.17726 0,-0.21787 0.0197,-0.25553 0.1198,-0.22935 0.0921,0.0241 0.22606,-0.13144 0.57999,-0.67355 0.2531,-0.38767 0.46734,-0.70486 0.47609,-0.70486 0.009,0 0.21714,0.36089 0.4631,0.80197 0.24595,0.44109 0.47804,0.82103 0.51574,0.84432 0.0377,0.0233 0.10802,-0.0148 0.15628,-0.0846 0.0482,-0.0698 0.11235,-0.157 0.14245,-0.1937 0.38866,-0.474 1.68675,-2.39397 1.67193,-2.47292 -0.0123,-0.0654 0.0624,-0.14026 0.1972,-0.19761 l 0.21696,-0.0923 v 0.30523 c 0,0.26591 -0.0131,0.29436 -0.10175,0.22083 -0.056,-0.0464 -0.11207,-0.0726 -0.12469,-0.0582 -0.0348,0.0398 -1.43051,1.98991 -1.8071,2.52504 -0.18217,0.25885 -0.33778,0.47064 -0.34581,0.47064 -0.008,0 -0.14092,-0.23273 -0.29531,-0.51716 z m 1.18929,0.23026 c -0.18859,-0.0745 -0.2294,-0.14403 -0.12309,-0.20971 0.0333,-0.0205 0.0448,-0.0974 0.0256,-0.17076 -0.0195,-0.0746 -0.002,-0.13339 0.0396,-0.13339 0.041,0 0.0745,0.03 0.0745,0.0667 0,0.0367 0.0601,0.0667 0.13352,0.0667 0.10808,0 0.13352,0.0445 0.13352,0.23355 0,0.25177 -0.008,0.25582 -0.28373,0.14685 z m -2.95404,-1.20974 c -0.85027,-1.24412 -1.06125,-1.5068 -1.18,-1.46912 -0.10234,0.0324 -0.12178,7.3e-4 -0.12178,-0.19942 0,-0.2552 0.0313,-0.2736 0.29479,-0.17346 0.10877,0.0413 0.15656,0.0995 0.13273,0.16158 -0.0219,0.057 0.21224,0.44475 0.56872,0.94172 0.5512,0.76841 0.6954,1.03638 0.55589,1.03297 -0.0275,-7.3e-4 -0.1402,-0.13309 -0.25035,-0.29427 z m 2.30164,0.0743 c -0.0798,-0.13528 -0.17271,-0.24596 -0.20633,-0.24596 -0.0336,0 -0.1195,0.0959 -0.19081,0.21312 -0.21138,0.34743 -0.23637,0.065 -0.0273,-0.3088 l 0.17947,-0.32098 0.12325,0.15828 c 0.25483,0.32728 0.37512,0.57534 0.32124,0.66248 -0.0393,0.0636 -0.0944,0.0199 -0.19949,-0.15814 z m 3.67321,-0.0264 c -0.15746,-0.0579 -0.33407,-0.23187 -0.2967,-0.29232 0.0528,-0.0854 0.2112,7.4e-4 0.32761,0.17844 0.0581,0.0887 0.0975,0.15885 0.0874,0.15595 -0.01,-0.003 -0.0633,-0.0218 -0.11836,-0.0421 z m -9.37888,-0.0851 c -0.0466,-0.0754 0.36229,-0.34518 0.44537,-0.29386 0.0302,0.0186 0.002,0.10623 -0.062,0.19464 -0.12044,0.16556 -0.3117,0.21506 -0.38333,0.0992 z m 0.57533,-0.0511 c 0.17963,-0.22895 0.32527,-0.28229 0.32527,-0.11912 0,0.0998 -0.19473,0.2359 -0.33757,0.2359 -0.0566,0 -0.053,-0.0335 0.0123,-0.11678 z m 9.01044,-0.043 c -0.0826,-0.0879 -0.12326,-0.17641 -0.0904,-0.19673 0.0752,-0.0465 0.4843,0.19748 0.4843,0.28881 0,0.12561 -0.24264,0.0689 -0.39393,-0.0921 z m -9.95756,-0.1453 c -0.11226,-0.13521 -0.0192,-0.21318 0.28413,-0.23798 0.3514,-0.0287 0.37569,0.0452 0.0667,0.20279 -0.23645,0.12058 -0.27655,0.1246 -0.35078,0.0352 z m 10.31811,-0.0655 c -0.20417,-0.12432 -0.2356,-0.16441 -0.13352,-0.17031 0.44606,-0.0258 0.66102,0.0766 0.49783,0.23718 -0.0846,0.0833 -0.13206,0.0745 -0.36431,-0.0669 z m -8.84544,-0.009 c 0,-0.0335 0.27788,-0.0978 0.61751,-0.143 0.33963,-0.0451 0.70459,-0.10062 0.81102,-0.12327 0.12268,-0.0261 0.17825,-0.0165 0.15183,0.0262 -0.076,0.12284 -1.58036,0.35136 -1.58036,0.24006 z m 6.95417,-0.0314 c -0.23244,-0.0333 -0.51782,-0.10456 -0.63421,-0.15843 l -0.2116,-0.0979 0.23365,0.0315 c 0.12851,0.0173 0.49652,0.0671 0.81779,0.11068 0.32127,0.0436 0.58413,0.1044 0.58413,0.1352 0,0.0667 -0.21777,0.0609 -0.78976,-0.021 z m -7.53831,-0.10069 c -0.14883,-0.06 -0.0893,-0.16676 0.0668,-0.11963 0.21262,0.0642 0.30598,0.16499 0.14687,0.15855 -0.0716,-0.003 -0.16773,-0.0204 -0.21362,-0.0389 z m 8.63182,-0.015 c 0.101,-0.0943 0.36383,-0.15636 0.36383,-0.0859 0,0.0729 -0.1589,0.1451 -0.31922,0.1451 -0.066,0 -0.0834,-0.023 -0.0446,-0.0592 z m -8.38537,-0.20424 c -0.0939,-0.0285 -0.24414,-0.0915 -0.33379,-0.14008 -0.0897,-0.0486 -0.26567,-0.10534 -0.39117,-0.12621 -0.31199,-0.0519 -0.33741,-0.18606 -0.0456,-0.24077 0.17931,-0.0336 0.29115,-0.01 0.46891,0.10005 0.17479,0.10798 0.26433,0.12768 0.35643,0.0784 0.0677,-0.0362 0.28462,-0.39007 0.48218,-0.7864 0.45617,-0.91518 0.73575,-1.21792 0.82162,-0.88969 0.0297,0.1136 0.0612,0.1242 0.20571,0.0693 0.10734,-0.0408 0.18513,-0.0413 0.20977,-10e-4 0.0215,0.0348 -0.083,0.11222 -0.23238,0.17196 -0.44954,0.17979 -0.96799,0.86153 -1.20004,1.57798 -0.0446,0.13763 -0.10125,0.24766 -0.12594,0.2445 -0.0247,-0.003 -0.12175,-0.029 -0.21569,-0.0575 z m 8.10794,-0.11933 c -0.075,-0.31816 -0.48573,-1.04767 -0.73353,-1.30268 -0.13069,-0.1345 -0.35565,-0.2966 -0.4999,-0.36021 -0.15496,-0.0683 -0.23774,-0.14018 -0.20232,-0.17558 0.0354,-0.0354 0.1175,-0.0291 0.20062,0.0154 0.1417,0.0758 0.15052,0.0716 0.16572,-0.0787 0.005,-0.0454 0.0581,-0.0921 0.11895,-0.10379 0.15223,-0.0293 0.38697,0.29922 0.75493,1.05648 0.37219,0.76597 0.48571,0.86087 0.79853,0.66762 0.24752,-0.15291 0.44773,-0.17211 0.65249,-0.0626 0.11081,0.0593 0.11985,0.0855 0.0457,0.13244 -0.0509,0.0322 -0.16125,0.059 -0.24533,0.0596 -0.0841,3.7e-4 -0.26432,0.0568 -0.40055,0.12501 -0.13622,0.0682 -0.32962,0.14367 -0.42977,0.16772 -0.15915,0.0382 -0.18756,0.0205 -0.22552,-0.14067 z m -9.56385,-0.26194 c -0.16035,-0.20752 -0.33675,-0.48517 -0.39201,-0.617 -0.13703,-0.3269 -0.11331,-0.8738 0.0614,-1.4161 l 0.14567,-0.45212 0.24901,0.22487 c 0.13696,0.12368 0.31648,0.26096 0.39893,0.30507 l 0.14992,0.0802 -0.17303,0.10495 c -0.16066,0.0974 -0.31591,0.36983 -0.41603,0.72993 -0.0455,0.16347 0.0603,0.20689 0.14751,0.0606 0.13487,-0.22633 0.44927,-0.33611 0.91123,-0.31818 0.2661,0.0103 0.6464,0.39885 0.63756,0.65133 -0.005,0.15475 -0.0147,0.16532 -0.0501,0.0567 -0.0911,-0.27996 -0.29783,-0.49993 -0.53021,-0.56406 -0.63291,-0.17469 -1.17883,0.34146 -1.00951,0.95444 0.079,0.2861 0.23511,0.42478 0.56504,0.50205 l 0.26369,0.0618 -0.3338,0.006 c -0.3293,0.006 -0.3377,0.001 -0.62533,-0.37086 z m 5.54754,0.24436 c -0.0765,-0.12239 -0.0667,-0.13346 0.11802,-0.13346 0.1847,0 0.19449,0.0111 0.11803,0.13346 -0.0459,0.0734 -0.099,0.13346 -0.11803,0.13346 -0.019,0 -0.0722,-0.0601 -0.11802,-0.13346 z m 5.11863,0.0447 c 0.76669,-0.20342 0.76161,-1.2427 -0.007,-1.4496 -0.41146,-0.11075 -0.71265,0.0233 -0.90459,0.40243 -0.13423,0.26518 -0.15021,0.27761 -0.15021,0.11683 0,-0.10214 0.0794,-0.26845 0.18359,-0.3847 0.3312,-0.36945 0.93175,-0.38328 1.31285,-0.0303 0.0987,0.0914 0.19287,0.16619 0.20934,0.16619 0.14655,0 -0.21153,-0.75434 -0.41735,-0.87917 l -0.17599,-0.10674 0.19481,-0.10166 c 0.10715,-0.0559 0.28329,-0.19468 0.39144,-0.30838 l 0.19663,-0.20672 0.15956,0.41764 c 0.11294,0.2956 0.15896,0.54998 0.15748,0.87055 -0.002,0.47336 -0.0407,0.56964 -0.51003,1.27606 -0.19768,0.29751 -0.20503,0.30138 -0.56744,0.29848 l -0.36717,-0.003 0.29416,-0.078 z m -6.73631,-0.10598 c 0,-0.0337 0.10473,-0.12599 0.23275,-0.20508 0.12801,-0.0791 0.41241,-0.34276 0.632,-0.58596 0.21959,-0.2432 0.41382,-0.42762 0.43164,-0.40981 0.0607,0.0607 -0.54829,0.76086 -0.88007,1.0119 -0.34295,0.25948 -0.41632,0.29278 -0.41632,0.18895 z m 3.02252,-0.20844 c -0.32305,-0.24784 -0.91116,-0.92877 -0.85267,-0.98724 0.0141,-0.0141 0.28193,0.23296 0.59523,0.54896 0.31329,0.316 0.60039,0.57455 0.63798,0.57455 0.0376,0 0.0684,0.03 0.0684,0.0667 0,0.11372 -0.0878,0.074 -0.44889,-0.203 z m -1.9137,-0.28079 c 0.21761,-0.22939 0.44544,-0.49214 0.50629,-0.58389 l 0.11064,-0.16683 0.11841,0.16683 c 0.0651,0.0917 0.29743,0.3545 0.51624,0.58389 0.41606,0.43616 0.42945,0.50974 0.0508,0.27897 -0.16858,-0.10273 -0.28772,-0.12712 -0.4703,-0.0963 -0.13448,0.0227 -0.31968,0.0127 -0.41154,-0.0222 -0.13249,-0.0503 -0.2216,-0.0305 -0.43094,0.0962 -0.41705,0.25233 -0.41456,0.19131 0.0104,-0.2567 z m -0.50093,-0.8675 c 0.42541,-0.40589 0.55774,-0.62637 0.46549,-0.77557 -0.0274,-0.0443 -0.18505,0.0709 -0.40091,0.2929 -0.19567,0.20124 -0.40146,0.3659 -0.45731,0.3659 -0.0558,0 0.1185,-0.21096 0.38742,-0.46881 0.52914,-0.50733 0.63035,-0.515 0.57412,-0.0435 -0.0365,0.30588 -0.33265,0.7548 -0.60926,0.92349 -0.40388,0.24629 -0.38542,0.1119 0.0404,-0.29444 z m 2.2547,0.25455 c -0.14864,-0.10096 -0.31835,-0.31697 -0.44806,-0.5703 -0.17971,-0.35098 -0.19736,-0.42825 -0.12671,-0.55483 0.0452,-0.0809 0.0863,-0.15629 0.0915,-0.16759 0.005,-0.0113 0.22729,0.19209 0.49356,0.45198 0.26627,0.2599 0.46708,0.48958 0.44625,0.5104 -0.0208,0.0208 -0.22679,-0.14465 -0.4577,-0.36772 -0.25585,-0.24717 -0.44384,-0.38157 -0.4813,-0.34412 -0.0922,0.0922 0.24629,0.60534 0.55255,0.83768 0.455,0.3452 0.39495,0.52038 -0.0701,0.2045 z m -1.52743,-0.29248 c 0,-0.0344 0.0451,-0.0999 0.10013,-0.14557 0.13616,-0.11296 0.12353,-0.37577 -0.0348,-0.72464 -0.1391,-0.30643 -0.16458,-0.52219 -0.0778,-0.65877 0.0333,-0.0524 0.0799,0.0202 0.12854,0.20019 0.091,0.3369 0.23749,0.55284 0.33434,0.49301 0.0385,-0.0238 0.12414,-0.19356 0.19021,-0.37721 0.0661,-0.18365 0.14423,-0.33391 0.17369,-0.33391 0.0991,0 0.0547,0.3834 -0.0785,0.67669 -0.17126,0.37728 -0.16821,0.53086 0.0152,0.76451 l 0.15021,0.19134 -0.25356,-0.1564 c -0.22485,-0.13869 -0.26643,-0.14538 -0.36717,-0.059 -0.17462,0.14967 -0.28051,0.19866 -0.28051,0.12979 z m -1.62445,-0.32352 c -0.16138,-0.16131 0.18435,-0.76114 0.43436,-0.7536 0.0487,0.001 0.006,0.0473 -0.0942,0.10178 -0.27934,0.1515 -0.33518,0.56285 -0.0764,0.56285 0.0551,0 0.0816,0.03 0.0589,0.0667 -0.0466,0.0754 -0.25511,0.0898 -0.32267,0.0222 z m 3.72968,-0.0184 c -0.024,-0.0388 0.001,-0.0705 0.0565,-0.0705 0.25877,0 0.20292,-0.41135 -0.0764,-0.56284 -0.12065,-0.0654 -0.14506,-0.10002 -0.0719,-0.10179 0.17275,-0.004 0.46695,0.38768 0.4434,0.59054 -0.0212,0.18266 -0.26591,0.28331 -0.35165,0.14464 z m 0.49833,-0.0957 c 0,-0.0139 0.0526,-0.0664 0.11683,-0.11678 0.10588,-0.083 0.10824,-0.0806 0.0252,0.0252 -0.0872,0.11116 -0.14203,0.14651 -0.14203,0.0916 z m -4.72313,-0.14727 c -0.11933,-0.0522 -0.21697,-0.10821 -0.21697,-0.12455 0,-0.0492 0.39793,0.10532 0.438,0.17012 0.0445,0.072 0.0508,0.0733 -0.22103,-0.0456 z m 5.0444,-0.0733 c 0.0482,-0.0193 0.10578,-0.0169 0.12796,0.005 0.0222,0.0222 -0.0172,0.0379 -0.0876,0.0351 -0.0778,-0.003 -0.0936,-0.019 -0.0403,-0.0403 z m -5.69917,-0.14834 c 0.0206,-0.0333 0.0974,-0.0448 0.17084,-0.0256 0.18369,0.048 0.16716,0.0861 -0.0374,0.0861 -0.094,0 -0.15401,-0.0272 -0.13345,-0.0605 z m 6.04548,0.0349 c 0,-0.0592 0.27008,-0.0902 0.30429,-0.0349 0.0206,0.0332 -0.0395,0.0605 -0.13345,0.0605 -0.094,0 -0.17084,-0.0115 -0.17084,-0.0256 z m -8.0261,-0.18207 c -0.26904,-0.13796 -0.58569,-0.50825 -0.58569,-0.6849 0,-0.1768 0.19625,-0.20763 0.45049,-0.0708 0.41305,0.22235 0.70588,0.75615 0.4654,0.84839 -0.047,0.018 -0.19561,-0.0237 -0.3302,-0.0927 z m 2.72285,0.0807 c -0.0205,-0.0331 0.0529,-0.0916 0.16296,-0.12999 0.20833,-0.0726 0.25764,-0.0274 0.12009,0.11014 -0.0948,0.0948 -0.23081,0.10432 -0.28305,0.0198 z m 4.57066,-0.07 c -0.065,-0.12148 -0.0563,-0.12552 0.13109,-0.0602 0.11044,0.0385 0.18404,0.0971 0.16356,0.1302 -0.064,0.10348 -0.22185,0.066 -0.29465,-0.07 z m 2.68527,0.0804 c -0.0459,-0.0154 -0.0834,-0.10066 -0.0834,-0.1894 0,-0.18772 0.46887,-0.67614 0.70625,-0.73569 0.38846,-0.0975 0.39243,0.21382 0.008,0.59846 -0.28512,0.285 -0.46977,0.38066 -0.63044,0.32663 z m -7.68604,-0.14462 c -0.12823,-0.0334 -0.14117,-0.0553 -0.0668,-0.11254 0.1967,-0.15144 0.86002,-0.3356 0.86002,-0.23877 0,0.11504 -0.62976,0.39393 -0.79327,0.35131 z m 5.31986,-0.0789 c -0.12662,-0.0649 -0.2729,-0.16947 -0.32507,-0.23231 -0.0848,-0.10218 -0.0808,-0.11012 0.0381,-0.0752 0.0731,0.0215 0.25716,0.0711 0.40893,0.11021 0.15177,0.0392 0.31016,0.11238 0.35196,0.16273 0.12323,0.14842 -0.20525,0.1724 -0.47396,0.0346 z m -3.74219,-0.0442 c -0.18411,-0.0409 -0.13668,-0.21182 0.0933,-0.33623 0.11558,-0.0625 0.31085,-0.19937 0.43393,-0.3041 0.23306,-0.1983 0.26901,-0.1707 0.15796,0.12127 -0.12821,0.33705 -0.44026,0.57344 -0.6852,0.51906 z m 2.24649,-0.076 c -0.12224,-0.0745 -0.25196,-0.23875 -0.31709,-0.40148 -0.14269,-0.35646 -0.13957,-0.37232 0.04,-0.20275 0.0826,0.078 0.26432,0.20067 0.4038,0.27253 0.28293,0.14578 0.38103,0.30809 0.24013,0.39727 -0.12553,0.0795 -0.13028,0.0786 -0.3668,-0.0656 z m -2.83062,-0.10376 c 0,-0.0389 0.57783,-0.43695 0.63429,-0.43695 0.0236,0 -0.0687,0.1051 -0.20495,0.23355 -0.2128,0.20062 -0.42934,0.3032 -0.42934,0.2034 z m 1.76749,-0.19946 c -0.1473,-0.34903 -0.14864,-0.78506 -0.003,-1.00711 l 0.11647,-0.17768 0.111,0.15669 c 0.13953,0.19694 0.13502,0.73609 -0.009,1.05753 l -0.10454,0.23355 -0.11098,-0.26298 z m 1.51414,-0.0134 c -0.12274,-0.12325 -0.20476,-0.2241 -0.18226,-0.2241 0.0674,0 0.55775,0.32282 0.60403,0.39768 0.10069,0.16286 -0.21689,0.0322 -0.42177,-0.17358 z m -3.24825,-0.31991 c 0.28466,-0.25142 0.43393,-0.29939 0.43393,-0.13946 0,0.10161 -0.24209,0.25129 -0.53407,0.3302 -0.14344,0.0388 -0.12938,0.012 0.10014,-0.19074 z m 3.52149,0.0976 c -0.27138,-0.12313 -0.33329,-0.19693 -0.24188,-0.2883 0.0571,-0.0571 0.36421,0.10825 0.51941,0.27967 0.15661,0.17297 0.0893,0.17507 -0.27753,0.009 z m -6.46581,-0.30604 c -0.0873,-0.34762 0.14022,-1.24864 0.40438,-1.60154 0.0848,-0.11323 0.0849,-0.0834 7.1e-4,0.23755 -0.0529,0.20186 -0.0965,0.50107 -0.097,0.66492 -7.1e-4,0.25614 0.0121,0.2842 0.0915,0.20019 0.12114,-0.12829 0.29215,-0.67629 0.34765,-1.11408 0.0243,-0.19198 0.0685,-0.33407 0.0982,-0.31574 0.0559,0.0345 0.0392,0.22824 -0.0832,0.96509 -0.0854,0.51389 -0.13737,0.63043 -0.40924,0.91754 -0.24768,0.26156 -0.29729,0.26804 -0.35302,0.0461 z m 1.14113,0.054 c -0.0727,-0.17545 -0.1258,-1.46062 -0.0577,-1.39578 0.0321,0.0306 0.0597,0.23305 0.0613,0.44994 0.001,0.21688 0.0357,0.4272 0.0759,0.46737 0.10603,0.10598 0.15383,-0.002 0.21726,-0.48932 l 0.0542,-0.41685 0.008,0.32269 c 0.009,0.32914 -0.18265,1.17873 -0.26539,1.17873 -0.0251,0 -0.0674,-0.0526 -0.094,-0.11678 z m 2.46468,-0.0505 c -0.0272,-0.1081 3.4e-4,-0.23187 0.0775,-0.3497 l 0.11956,-0.18239 0.0884,0.21661 c 0.071,0.17389 0.072,0.24283 0.005,0.34969 -0.1137,0.18198 -0.24024,0.16709 -0.29078,-0.0342 z m 2.07074,0.005 c -0.0237,-0.0942 -0.0233,-0.2497 7.1e-4,-0.34558 0.0426,-0.16978 0.0472,-0.17117 0.17737,-0.0534 0.0901,0.0815 0.1271,0.18703 0.11367,0.32391 -0.026,0.26516 -0.23085,0.31789 -0.29181,0.0751 z m 2.58566,0.0483 c -0.0436,-0.0811 -0.0946,-0.2913 -0.11339,-0.46711 -0.0254,-0.23712 -0.0177,-0.28265 0.0296,-0.17634 0.0351,0.0788 0.0933,0.16153 0.12932,0.18379 0.084,0.0519 0.16756,-0.43296 0.11647,-0.67599 -0.0214,-0.10173 -0.009,-0.23 0.0267,-0.28505 0.1017,-0.15512 0.0792,1.12661 -0.024,1.36796 -0.085,0.19888 -0.0861,0.19923 -0.16479,0.0527 z m 0.97314,-0.0812 c -0.29847,-0.26194 -0.43828,-0.65993 -0.49303,-1.4034 -0.0505,-0.68622 0.009,-0.68622 0.1148,-1e-5 0.0423,0.27372 0.13864,0.61779 0.214,0.76459 l 0.137,0.26692 0.0499,-0.18301 c 0.0456,-0.16745 -0.046,-0.70592 -0.17044,-1.00145 -0.0271,-0.0642 -0.0319,-0.11677 -0.0107,-0.11677 0.0212,0 0.12925,0.18809 0.24017,0.41799 0.2169,0.44954 0.33216,1.15052 0.22164,1.34793 -0.059,0.10547 -0.0873,0.0968 -0.30335,-0.0928 z m -7.12611,-0.0716 c -0.12821,-0.22382 -0.26537,-0.61053 -0.26035,-0.73403 0.002,-0.055 0.0414,0.003 0.087,0.12943 0.11797,0.32636 0.23915,0.33922 0.24748,0.0263 l 0.007,-0.2558 0.0695,0.21653 c 0.0454,0.14135 0.0479,0.31512 0.007,0.50047 l -0.0622,0.28395 z m 5.17353,-0.14905 c -0.0261,-0.17367 -0.0164,-0.39216 0.022,-0.4974 0.0679,-0.1862 0.0685,-0.18567 0.0737,0.0681 0.007,0.36027 0.14231,0.28426 0.28525,-0.16073 0.077,-0.23986 0.10382,-0.28319 0.0793,-0.12843 -0.0618,0.39072 -0.16626,0.70013 -0.29314,0.86827 l -0.12067,0.1599 z m 3.47224,0.13914 c -0.40216,-0.21859 -0.66118,-0.44732 -0.8147,-0.71944 -0.0946,-0.16773 -0.24294,-0.41693 -0.32957,-0.55377 -0.18088,-0.28573 -0.18868,-0.31907 -0.0741,-0.31661 0.0459,0.001 0.15855,0.12603 0.25034,0.27788 0.25611,0.42366 0.66908,0.82684 0.73601,0.71858 0.0802,-0.12979 -0.21844,-0.67656 -0.56984,-1.04314 -0.30799,-0.3213 -0.34478,-0.42002 -0.10966,-0.29424 0.3554,0.19012 0.98658,1.20552 1.05372,1.69517 0.047,0.34256 0.0489,0.33944 -0.14224,0.23557 z m -12.07339,-0.24013 c 0.0528,-0.37931 0.41416,-1.0586 0.75797,-1.42465 0.41271,-0.4394 0.55873,-0.41933 0.16968,0.0233 -0.31391,0.35714 -0.68742,1.0229 -0.61468,1.09561 0.0731,0.0731 0.38392,-0.18225 0.59971,-0.49256 0.33448,-0.48099 0.43118,-0.58972 0.48066,-0.54046 0.0254,0.0252 -0.10775,0.30052 -0.2958,0.61172 -0.25045,0.41445 -0.42503,0.62084 -0.65263,0.77153 -0.41543,0.27505 -0.48834,0.26776 -0.44491,-0.0445 z m 5.50555,0.0261 c -0.16378,-0.19727 -0.16687,-0.55297 -0.007,-0.81146 0.13387,-0.21651 0.16143,-0.23221 0.25081,-0.14287 0.14246,0.14239 0.1257,0.59664 -0.0312,0.84425 -0.11176,0.17645 -0.14375,0.19301 -0.21261,0.11008 z m 0.92105,-0.27377 c -0.1221,-0.27592 -0.12427,-0.31556 -0.0296,-0.542 0.0823,-0.19698 0.12013,-0.22937 0.19507,-0.16721 0.19192,0.15921 0.26546,0.46141 0.18093,0.74344 -0.0434,0.14491 -0.1095,0.26346 -0.1468,0.26346 -0.0373,0 -0.12712,-0.13396 -0.19957,-0.29769 z m -7.5601,-0.0517 c 0.10396,-0.54418 0.54213,-1.13032 1.30333,-1.74348 0.22602,-0.18206 0.36406,-0.24627 0.4961,-0.23076 0.172,0.0202 0.15928,0.037 -0.21303,0.28012 -0.44758,0.29235 -0.9634,0.79971 -0.9634,0.94761 0,0.14671 0.30995,-0.0299 0.83734,-0.47711 0.23709,-0.20104 0.43106,-0.33938 0.43106,-0.30743 0,0.0319 -0.0639,0.1153 -0.1421,0.18521 -0.0782,0.0699 -0.32055,0.36078 -0.53866,0.64637 -0.40027,0.52412 -0.73617,0.79891 -1.07015,0.87549 -0.17516,0.0402 -0.18051,0.0335 -0.14049,-0.17602 z m 14.27502,0.15905 c -0.34425,-0.11247 -0.59312,-0.31741 -0.96437,-0.79415 -0.22138,-0.28429 -0.4855,-0.62199 -0.58692,-0.75044 -0.16158,-0.20464 -0.13482,-0.19169 0.21613,0.10451 0.5557,0.46902 0.90124,0.67416 0.90124,0.53506 0,-0.16338 -0.43123,-0.60166 -0.87,-0.88422 -0.4219,-0.2717 -0.48352,-0.35592 -0.26044,-0.35592 0.17945,0 0.53158,0.26017 1.03297,0.76322 0.4063,0.40763 0.65923,0.82663 0.73866,1.2236 0.044,0.22008 0.0254,0.23435 -0.20727,0.15834 z m -8.33606,-0.22667 c -0.0669,-0.24963 -0.0477,-0.41272 0.0682,-0.57805 l 0.11023,-0.15733 0.0965,0.18405 c 0.0858,0.16373 0.0836,0.2126 -0.0202,0.44276 -0.1333,0.29549 -0.1972,0.32274 -0.25463,0.10857 z m 2.40346,0.005 c -0.14122,-0.21366 -0.12618,-0.62198 0.0229,-0.62198 0.14779,0 0.23545,0.31779 0.15968,0.57883 l -0.0644,0.22193 -0.11817,-0.17878 z m 2.17895,-0.32169 c 0,-0.16516 0.013,-0.23272 0.0289,-0.15014 0.0159,0.0826 0.0159,0.2177 0,0.30028 -0.0159,0.0826 -0.0289,0.015 -0.0289,-0.15014 z m -6.28817,-0.10566 c 0.003,-0.0777 0.019,-0.0935 0.0403,-0.0403 0.0193,0.0482 0.0169,0.10572 -0.005,0.1279 -0.0222,0.0221 -0.038,-0.0173 -0.0351,-0.0876 z m 0.4598,0.0189 c -0.31573,-0.15356 -0.64443,-1.12521 -0.50421,-1.49047 0.0365,-0.095 0.0724,-0.0731 0.2085,0.12711 0.0904,0.13303 0.16443,0.26967 0.16443,0.30363 0,0.034 0.0761,0.2948 0.16913,0.57964 0.093,0.28484 0.1596,0.5274 0.14797,0.53903 -0.0117,0.0117 -0.0952,-0.0149 -0.18582,-0.0589 z m 4.89918,-0.0119 c 0.0212,-0.0551 0.11457,-0.34823 0.20758,-0.65137 0.093,-0.30314 0.2251,-0.63568 0.29355,-0.73897 l 0.12444,-0.18779 0.0399,0.19943 c 0.0443,0.22153 -0.0445,0.87067 -0.14483,1.05799 -0.1326,0.24767 -0.6041,0.53811 -0.52064,0.32071 z m -10.60202,-0.36195 c 0.26123,-0.47976 0.5983,-0.77132 1.19891,-1.03704 0.29373,-0.12996 0.45923,-0.18404 0.36777,-0.12018 -0.47478,0.33147 -0.82337,0.75378 -0.61811,0.74883 0.0584,-10e-4 0.63495,-0.31689 0.90123,-0.49318 0.32947,-0.21811 0.19455,-0.0681 -0.42004,0.46713 -0.62345,0.54292 -1.00451,0.75112 -1.3866,0.75755 l -0.22113,0.004 z m 15.92885,0.19209 c -0.24269,-0.11008 -1.54522,-1.16041 -1.54522,-1.24603 0,-0.0148 0.12767,0.0605 0.28372,0.16731 0.27705,0.18969 0.81001,0.47945 0.88188,0.47945 0.17974,0 -0.16866,-0.4274 -0.56294,-0.69059 -0.2833,-0.1891 -0.0194,-0.12071 0.45427,0.11774 0.4841,0.24369 0.85511,0.60063 1.07779,1.03695 l 0.13777,0.26992 -0.21832,-10e-4 c -0.12008,-7.3e-4 -0.3491,-0.0608 -0.50895,-0.13329 z m -8.54468,-0.18466 c -0.1824,-0.25605 -0.18229,-0.48099 3.3e-4,-0.71308 l 0.14401,-0.18301 0.0873,0.15733 c 0.11204,0.20196 0.11187,0.5801 -3.3e-4,0.78242 l -0.0876,0.158 z m 0.72655,0.0569 c -0.10416,-0.19455 -0.0806,-0.4861 0.0534,-0.6602 l 0.11955,-0.15533 0.11883,0.26341 c 0.1105,0.24495 0.11126,0.27806 0.0108,0.47231 -0.12456,0.24076 -0.20502,0.26199 -0.30257,0.0798 z m 0.69069,-0.17986 c -0.0814,-0.19465 -0.0858,-0.27939 -0.0228,-0.43154 0.13647,-0.32934 0.23482,-0.35738 0.35626,-0.10158 0.13605,0.28657 0.13615,0.40399 7.1e-4,0.61085 -0.14634,0.22325 -0.21489,0.2073 -0.33404,-0.0777 z m -4.12525,0.0269 c -0.0797,-0.12157 -0.10731,-0.27884 -0.093,-0.52935 0.0199,-0.34699 0.0257,-0.35641 0.22066,-0.35641 0.19627,0 0.20068,0.007 0.21997,0.3726 0.0152,0.28735 -0.009,0.40847 -0.10729,0.52936 l -0.12699,0.15675 z m 1.23889,-0.17354 c -0.0425,-0.1955 -0.1097,-0.41607 -0.14937,-0.49015 -0.0589,-0.11004 -0.0466,-0.15257 0.0671,-0.23222 0.0845,-0.0591 0.13928,-0.1706 0.13928,-0.28321 0,-0.25298 0.26995,-0.38823 0.42752,-0.21419 0.16349,0.18057 0.12962,0.40972 -0.1504,1.01752 l -0.25694,0.55771 z m 0.79375,0.19302 c -0.1119,-0.209 -0.0641,-0.80514 0.0646,-0.80514 0.0283,0 0.1018,0.10624 0.16345,0.23609 0.0923,0.19443 0.0986,0.27687 0.0358,0.46711 -0.0861,0.26085 -0.16289,0.29051 -0.26385,0.10194 z m 2.84201,0.0235 c -0.0712,-0.18557 -0.0393,-0.59107 0.0564,-0.7174 0.0893,-0.11781 0.0954,-0.11735 0.16477,0.0123 0.0982,0.18339 0.0871,0.5517 -0.0209,0.69389 -0.10948,0.14416 -0.14846,0.14634 -0.20034,0.0112 z m 0.7041,-0.37606 c -0.28416,-0.61037 -0.3317,-0.88251 -0.18289,-1.04687 0.0935,-0.10325 0.13982,-0.11141 0.27549,-0.0485 0.0897,0.0416 0.16334,0.13012 0.16363,0.19676 7.1e-4,0.17792 0.1247,0.37931 0.23342,0.37931 0.081,0 0.0814,0.0266 0.003,0.18351 -0.0503,0.10093 -0.13156,0.32573 -0.18048,0.49956 l -0.0889,0.31606 -0.22337,-0.47979 z m 1.33177,0.36103 c -0.074,-0.13819 -0.0989,-0.34234 -0.084,-0.68908 0.008,-0.19882 0.0391,-0.24796 0.17011,-0.27298 0.13599,-0.026 0.17217,0.007 0.24359,0.22351 0.0717,0.2172 0.0671,0.29788 -0.0317,0.55658 -0.12483,0.3267 -0.19688,0.37071 -0.29793,0.18197 z m -8.01786,-0.41771 c 0,-0.2177 0.58397,-0.72958 0.83233,-0.72958 0.0747,0 0.0311,0.31028 -0.0623,0.44357 -0.16961,0.24204 -0.77003,0.46506 -0.77003,0.28601 z m 9.01234,0.0243 c -0.20483,-0.0742 -0.53406,-0.44863 -0.53406,-0.60733 0,-0.11928 0.0273,-0.15041 0.10559,-0.12037 0.0581,0.0223 0.13668,0.0405 0.17467,0.0405 0.0996,0 0.58759,0.53328 0.58759,0.64218 0,0.0924 -0.14797,0.11237 -0.33379,0.045 z m -13.61865,-0.22544 c 0,-0.0354 0.12399,-0.19882 0.27554,-0.36316 0.33232,-0.36038 0.94777,-0.67278 1.49355,-0.75812 0.2203,-0.0345 0.49067,-0.0808 0.60082,-0.10295 0.17794,-0.0358 0.17371,-0.0299 -0.0379,0.0531 -0.96623,0.37889 -1.32033,0.68319 -0.65414,0.56216 0.18847,-0.0343 0.55055,-0.13722 0.80464,-0.22883 0.57433,-0.20709 0.74091,-0.17752 0.21043,0.0374 -0.21436,0.0868 -0.63599,0.27204 -0.93695,0.41157 -0.30096,0.13954 -0.66625,0.28575 -0.81176,0.32491 -0.37908,0.10203 -0.94419,0.14031 -0.94419,0.064 z m 17.93773,-7.4e-4 c -0.21306,-0.0311 -0.61378,-0.16261 -0.8905,-0.29214 -0.27672,-0.12953 -0.51458,-0.23551 -0.52858,-0.23551 -0.014,0 -0.18405,-0.0707 -0.3779,-0.15712 -0.19386,-0.0864 -0.41255,-0.17999 -0.48598,-0.20796 -0.0799,-0.0304 -0.1012,-0.063 -0.0531,-0.081 0.0442,-0.0166 0.17943,0.0146 0.30042,0.0693 0.31065,0.14041 0.94195,0.31008 1.15373,0.31008 0.30119,0 0.15652,-0.14948 -0.37137,-0.38374 l -0.49563,-0.21994 0.33379,0.041 c 0.80518,0.0989 1.34609,0.34524 1.77165,0.80672 0.40552,0.43975 0.38604,0.45889 -0.35655,0.35033 z m -13.79873,-0.22642 c 0,-0.19605 0.46385,-0.54264 0.63723,-0.47613 0.17124,0.0657 0.0857,0.32236 -0.1631,0.48957 -0.30509,0.20502 -0.47413,0.20022 -0.47413,-0.0134 z m 4.72637,0.0539 c -0.16587,-0.18395 -0.20537,-0.43886 -0.11817,-0.76257 l 0.0786,-0.29187 0.15969,0.1995 c 0.17471,0.21826 0.19293,0.41518 0.0699,0.75485 -0.0767,0.21165 -0.0853,0.21619 -0.19,0.10009 z m 5.13377,-0.0278 c -0.28907,-0.15248 -0.34127,-0.24133 -0.26419,-0.44961 l 0.0544,-0.14689 0.31522,0.19982 c 0.23962,0.1519 0.31522,0.24019 0.31522,0.36812 0,0.20098 -0.0831,0.20662 -0.42061,0.0286 z m -5.94892,-0.0942 c -0.22811,-0.34799 -0.24151,-0.47144 -0.0756,-0.69627 l 0.15527,-0.21036 0.1408,0.17892 c 0.1596,0.20281 0.17955,0.45129 0.0574,0.7143 -0.10333,0.22239 -0.13972,0.22415 -0.27785,0.0134 z m 1.43596,-0.0429 c -0.1063,-0.3048 -0.0914,-0.43802 0.0738,-0.66144 l 0.14711,-0.19889 0.0842,0.15154 c 0.11675,0.21019 0.10929,0.59324 -0.015,0.77063 -0.14036,0.2003 -0.20337,0.18686 -0.2901,-0.0618 z m 0.79742,0.11349 c -0.0449,-0.0541 -0.0972,-0.21416 -0.11616,-0.35578 -0.0276,-0.2059 -0.003,-0.29361 0.12282,-0.43784 l 0.15738,-0.18036 0.1625,0.24041 c 0.16169,0.23923 0.16188,0.24152 0.039,0.46958 -0.17086,0.31712 -0.265,0.38511 -0.36556,0.26399 z m -4.43114,-0.34821 c -0.0245,-0.0245 -0.0445,-0.11278 -0.0445,-0.19625 0,-0.23121 -0.12498,-0.25928 -0.32252,-0.0724 -0.098,0.0927 -0.23824,0.17854 -0.31168,0.1908 -0.11747,0.0196 -0.13307,-0.0138 -0.12978,-0.278 0.002,-0.16516 0.0298,-0.35805 0.0617,-0.42865 0.0491,-0.10881 0.0384,-0.12051 -0.0705,-0.0768 -0.0706,0.0283 -0.24107,0.0675 -0.37876,0.0871 -0.30827,0.0438 -0.3329,-0.0739 -0.0787,-0.37589 l 0.17167,-0.20394 -0.27376,-0.10949 c -0.36319,-0.14525 -0.45673,-0.31464 -0.23062,-0.41762 0.092,-0.0419 0.22598,-0.0762 0.29768,-0.0762 0.1623,0 0.16801,-0.0981 0.0124,-0.21309 -0.15676,-0.11586 -0.35296,-0.42832 -0.30133,-0.47993 0.0637,-0.0637 0.39122,-0.0484 0.59113,0.0276 0.27393,0.10411 0.27873,0.0221 0.0148,-0.25332 -0.30672,-0.32005 -0.4301,-0.57059 -0.48453,-0.98393 l -0.0438,-0.33277 0.14325,0.16683 c 0.38484,0.44817 0.4933,0.5534 0.89815,0.87142 0.53285,0.41858 0.57851,0.55376 0.3702,1.09612 -0.36552,0.95168 -0.26905,1.1354 0.59619,1.1354 h 0.57373 l 0.10581,0.21508 c 0.11523,0.23421 0.0996,0.2854 -0.0869,0.2854 -0.0954,0 -0.12239,0.0516 -0.12239,0.23355 0,0.27147 -0.12488,0.30891 -0.33379,0.1001 -0.0734,-0.0734 -0.1589,-0.13346 -0.18992,-0.13346 -0.031,0 -0.11079,0.06 -0.17725,0.13346 -0.12814,0.14154 -0.18391,0.16093 -0.2559,0.089 z m 5.89696,-0.18906 c 0,-0.20464 -0.0206,-0.23356 -0.16689,-0.23356 -0.20101,0 -0.20177,-0.006 -0.0346,-0.28095 0.1313,-0.21582 0.13575,-0.21729 0.59323,-0.19617 0.487,0.0225 0.82235,-0.0859 0.90119,-0.29126 0.0224,-0.0583 -0.0377,-0.32217 -0.13361,-0.58636 -0.29878,-0.8234 -0.28118,-1.00074 0.12376,-1.2469 0.26683,-0.1622 0.90293,-0.77774 1.06972,-1.03515 l 0.12971,-0.20018 -0.036,0.34674 c -0.0437,0.42077 -0.18095,0.70709 -0.49681,1.03668 -0.13126,0.13696 -0.21932,0.26834 -0.19569,0.29195 0.0236,0.0236 0.16348,-0.005 0.31078,-0.0642 0.48035,-0.19211 0.63793,0.0478 0.27178,0.41379 -0.23499,0.23489 -0.24565,0.27719 -0.0699,0.27719 0.19034,0 0.47736,0.14486 0.45249,0.22837 -0.0118,0.0395 -0.16275,0.14266 -0.3355,0.22913 l -0.31409,0.15721 0.16688,0.19824 c 0.231,0.27442 0.21626,0.38842 -0.0501,0.38717 -0.11933,-7.3e-4 -0.26059,-0.0286 -0.31392,-0.0623 -0.16442,-0.10397 -0.20007,-0.0116 -0.0937,0.24287 0.20073,0.48021 -0.0976,0.68906 -0.44944,0.31467 -0.17995,-0.19147 -0.26113,-0.20385 -0.26113,-0.0398 0,0.0664 -0.0426,0.17899 -0.0948,0.25023 -0.0931,0.12731 -0.0975,0.12696 -0.25464,-0.0206 -0.1953,-0.18339 -0.2172,-0.18434 -0.38494,-0.0167 -0.2089,0.20882 -0.33379,0.17137 -0.33379,-0.10009 z m -8.05469,-0.003 c -0.0217,-0.0566 -0.0283,-0.11127 -0.0146,-0.12141 0.26531,-0.19609 0.52936,-0.279 0.81333,-0.25537 0.31619,0.0263 0.31924,0.0288 0.20043,0.15997 -0.27499,0.30373 -0.91267,0.4421 -0.99916,0.21681 z m 10.49151,-0.002 c -0.11006,-0.0574 -0.25599,-0.15477 -0.32427,-0.21646 -0.11857,-0.10711 -0.11002,-0.1142 0.18967,-0.15756 0.3033,-0.0439 0.39896,-0.0149 0.85535,0.25886 0.0293,0.0176 0.0181,0.0743 -0.0249,0.12613 -0.10334,0.12445 -0.44643,0.11905 -0.69588,-0.011 z m -6.69709,-0.24303 c -0.0935,-0.0935 -0.10315,-0.18574 -0.0194,-0.18574 0.0612,0 0.16187,0.20123 0.12109,0.242 -0.0125,0.0125 -0.0583,-0.0128 -0.10171,-0.0563 z m 3.4602,0.0454 c 0.002,-0.11487 0.12387,-0.26204 0.17496,-0.21096 0.0273,0.0273 -0.001,0.10046 -0.0631,0.1625 -0.0621,0.062 -0.11239,0.0838 -0.11183,0.0485 z m -1.82248,-0.29151 c -0.14995,-0.25375 -0.14465,-0.38596 0.019,-0.4735 0.17454,-0.0934 0.40055,0.0222 0.40055,0.20489 0,0.1387 -0.18223,0.46241 -0.26031,0.46241 -0.0246,0 -0.0962,-0.0872 -0.15922,-0.1938 z m -6.09375,0.0533 c -0.0251,-0.0406 0.0416,-0.16105 0.1483,-0.26767 0.22292,-0.22283 0.97203,-0.4048 1.10779,-0.2691 0.10292,0.10288 -0.34507,0.51274 -0.62066,0.56784 -0.32196,0.0644 -0.58436,0.0515 -0.63543,-0.0311 z m 4.65478,-0.0961 c -0.11855,-0.26007 -0.0952,-0.59407 0.0507,-0.72609 0.12219,-0.11054 0.13158,-0.10966 0.20027,0.0187 0.10109,0.1888 0.0897,0.44963 -0.0298,0.68053 -0.056,0.10828 -0.11127,0.19688 -0.1228,0.19688 -0.0115,0 -0.0558,-0.0765 -0.0984,-0.16997 z m 0.66942,-0.0275 c -0.0803,-0.10862 -0.14608,-0.24272 -0.14608,-0.29802 0,-0.12914 0.2104,-0.57217 0.27172,-0.57217 0.0896,0 0.26235,0.33023 0.26235,0.50144 0,0.14707 -0.16494,0.56624 -0.22281,0.56624 -0.0105,0 -0.0848,-0.0889 -0.16518,-0.19749 z m 1.53957,-0.0346 c -0.0826,-0.12823 -0.1501,-0.2711 -0.14996,-0.31749 3.3e-4,-0.11325 0.25054,-0.51809 0.32019,-0.51809 0.0716,0 0.28049,0.43716 0.28005,0.58615 -2e-4,0.063 -0.0678,0.19733 -0.15021,0.29854 l -0.14987,0.18403 z m 0.75256,0.0125 c -0.12423,-0.29719 -0.12943,-0.5177 -0.0159,-0.67292 0.0811,-0.11086 0.0925,-0.10982 0.20914,0.019 0.096,0.106 0.11565,0.20454 0.0887,0.44397 -0.0491,0.4353 -0.15481,0.51405 -0.28191,0.20998 z m 4.06791,0.0942 c -0.28057,-0.12739 -0.54525,-0.43798 -0.43257,-0.5076 0.10153,-0.0627 0.75231,0.0404 0.94154,0.14913 0.20142,0.11578 0.34986,0.32834 0.29325,0.4199 -0.0646,0.1045 -0.51227,0.0702 -0.80222,-0.0614 z m -15.25142,-0.0698 c -0.1578,-0.0458 -0.14933,-0.0566 0.15552,-0.19763 0.55031,-0.2546 1.28332,-0.40855 1.90797,-0.40072 l 0.57345,0.007 -0.48466,0.0802 c -0.26656,0.0441 -0.51874,0.1143 -0.5604,0.15594 -0.14297,0.14291 0.24675,0.16482 0.99097,0.0557 0.39799,-0.0583 0.79721,-0.10608 0.88716,-0.10608 0.14401,0 0.1518,0.0117 0.0652,0.0983 -0.23067,0.23057 -2.97713,0.46913 -3.53525,0.30708 z m 11.76384,-0.0173 c -0.0446,-0.0446 -0.0811,-0.17274 -0.081,-0.28467 1.4e-4,-0.18001 0.0233,-0.20435 0.20028,-0.21063 0.22848,-0.008 0.24165,0.0522 0.0782,0.3585 -0.0913,0.17111 -0.13374,0.20051 -0.19748,0.1368 z m 5.25947,-0.0652 c -0.52612,-0.0824 -0.87148,-0.16922 -0.93461,-0.23504 -0.10907,-0.11371 0.0331,-0.10829 1.19319,0.0455 0.91265,0.12098 1.08394,-0.0914 0.1927,-0.23894 l -0.48466,-0.0802 0.57345,-0.007 c 0.62615,-0.008 1.40944,0.15747 1.92253,0.40574 0.25362,0.12272 0.27891,0.15177 0.16946,0.19462 -0.24746,0.0969 -1.78966,0.0474 -2.63206,-0.0845 z m -9.37191,-0.14947 c -0.13717,-0.28895 -0.13974,-0.27933 0.0722,-0.27005 0.20295,0.009 0.25241,0.0945 0.19251,0.33304 -0.0564,0.2248 -0.13718,0.20558 -0.26468,-0.063 z m -4.16663,-0.41892 c -0.32994,-0.11666 -0.33222,-0.19346 -0.0108,-0.36574 0.33114,-0.17752 0.69991,-0.16076 0.90175,0.041 0.0901,0.0901 0.16386,0.19162 0.16386,0.22563 0,0.0612 -0.51191,0.21605 -0.68045,0.20588 -0.048,-0.003 -0.21644,-0.051 -0.37433,-0.10677 z m 11.88628,0.0363 c -0.3168,-0.0732 -0.33625,-0.11152 -0.16427,-0.32382 0.1711,-0.21121 0.64612,-0.25538 0.94592,-0.088 0.28789,0.16076 0.31545,0.24514 0.11057,0.33846 -0.25766,0.11735 -0.58512,0.14426 -0.89222,0.0733 z m -5.72072,-0.20599 c -0.20776,-0.29648 -0.0972,-0.65245 0.20269,-0.65245 0.15441,0 0.22745,0.11484 0.22745,0.35762 0,0.15886 -0.17131,0.44314 -0.26704,0.44314 -0.0325,0 -0.10595,-0.0667 -0.1631,-0.14831 z m -2.05752,-0.002 c -0.1463,-0.11105 -0.26269,-0.43697 -0.2125,-0.59504 0.0375,-0.11797 0.0498,-0.11498 0.17344,0.0422 0.0732,0.093 0.19853,0.16896 0.27848,0.16872 0.18687,-3.7e-4 0.49607,-0.20459 0.73032,-0.48191 l 0.18442,-0.21832 -0.072,0.19945 c -0.11048,0.30603 -0.31672,0.61147 -0.53931,0.79869 -0.22307,0.18762 -0.37705,0.21208 -0.54285,0.0862 z m 3.8984,-0.0862 c -0.22001,-0.18505 -0.43226,-0.50256 -0.51111,-0.76458 -0.0429,-0.14243 -3.5e-4,-0.12048 0.28994,0.15014 0.3776,0.35187 0.55866,0.39116 0.79218,0.17188 l 0.15451,-0.1451 v 0.24519 c 0,0.27263 -0.18492,0.51211 -0.39543,0.51211 -0.0706,0 -0.21916,-0.0763 -0.33009,-0.16964 z m -2.27375,-0.0729 c -0.1709,-0.21718 -0.17144,-0.26961 -0.006,-0.54153 0.23386,-0.38339 0.37319,-0.21384 0.16113,0.19607 -0.0823,0.15918 -0.0903,0.24202 -0.0348,0.3637 0.094,0.20619 0.0507,0.19965 -0.12074,-0.0182 z m 1.61317,-0.0938 c -0.17784,-0.40641 -0.24656,-0.73137 -0.15464,-0.73137 0.0396,0 0.0721,0.0499 0.0721,0.11091 0,0.061 0.0712,0.23367 0.1583,0.3837 0.10753,0.18531 0.14203,0.31558 0.10757,0.40625 -0.0435,0.11457 -0.0695,0.0906 -0.18329,-0.16949 z m -9.49547,0.1567 c -0.64603,-0.10828 -1.80247,-0.55082 -1.80247,-0.68976 0,-0.13473 0.96592,-0.16826 1.76909,-0.0614 0.66322,0.0882 2.03612,0.40476 2.03612,0.46945 0,0.0263 -0.12767,0.01 -0.28372,-0.0374 -0.58928,-0.17704 -1.78578,-0.20403 -1.78578,-0.0403 0,0.0743 1.06719,0.27205 1.46792,0.27205 0.21129,0 0.32663,0.0256 0.30117,0.0667 -0.0398,0.0644 -1.34662,0.0802 -1.70233,0.0206 z m 7.26223,-0.0373 c -0.0158,-0.0459 0.07,-0.27859 0.19068,-0.51715 0.25275,-0.49975 0.30596,-0.35672 0.086,0.23105 -0.13611,0.36361 -0.22011,0.45048 -0.27664,0.2861 z m 1.68335,-0.0637 c 0,-0.0923 -0.0182,-0.31468 -0.0404,-0.49414 l -0.0404,-0.32628 0.17392,0.2467 c 0.20859,0.29587 0.21922,0.45905 0.0404,0.62079 -0.13015,0.11774 -0.13351,0.11655 -0.13351,-0.0471 z m 6.30864,0.0804 c -0.0251,-0.0406 0.0714,-0.0663 0.2464,-0.0657 0.37377,10e-4 1.58945,-0.20934 1.58945,-0.27551 0,-0.15083 -0.86255,-0.1335 -1.93599,0.0389 -0.12851,0.0207 0.0217,-0.0376 0.33379,-0.12934 0.5159,-0.15171 1.01545,-0.2395 1.97846,-0.34771 0.18858,-0.0212 0.57304,-0.017 0.85436,0.009 0.41778,0.0391 0.49783,0.0644 0.43694,0.13769 -0.11652,0.14034 -1.00717,0.48811 -1.53349,0.59878 -0.53759,0.11303 -1.90635,0.1363 -1.96992,0.0335 z m -12.56513,-0.4081 c -0.33192,-0.0778 -0.62575,-0.37993 -0.45981,-0.47275 0.0542,-0.0303 0.30487,-0.0359 0.55708,-0.0125 0.42018,0.039 0.46823,0.0594 0.5739,0.24346 0.0634,0.11048 0.10309,0.2131 0.0881,0.22804 -0.0662,0.0662 -0.50204,0.0741 -0.7593,0.0137 z m 10.9224,0.0327 c -0.097,-0.0282 -0.0977,-0.0524 -0.007,-0.25292 0.0946,-0.20869 0.12497,-0.22406 0.514,-0.26037 0.54622,-0.051 0.72096,-0.006 0.63121,0.16129 -0.0369,0.069 -0.14926,0.16785 -0.24963,0.21973 -0.20099,0.10389 -0.72038,0.18118 -0.88884,0.13227 z m -11.754,-0.19246 c -0.0187,-0.0187 -0.28656,-0.0919 -0.59526,-0.1627 -1.59568,-0.36594 -2.03786,-0.51475 -2.59043,-0.87174 -0.20766,-0.13416 -0.43006,-0.32401 -0.49421,-0.42188 l -0.11665,-0.17796 0.2185,2.7e-4 c 0.4424,7.3e-4 1.4753,0.20722 2.13928,0.42806 1.44512,0.48064 1.87325,0.65499 1.76166,0.71742 -0.0719,0.0402 -0.33842,-0.0185 -0.82616,-0.1821 -0.73968,-0.24806 -1.42098,-0.36777 -1.42098,-0.24967 0,0.12353 1.00429,0.50271 1.63114,0.61585 0.21787,0.0393 0.40212,0.0715 0.40946,0.0715 0.007,0 0.029,0.0601 0.0482,0.13346 0.032,0.12236 -0.0762,0.18779 -0.1646,0.0995 z m 13.09106,-0.0897 c 0.0417,-0.0779 0.15762,-0.1578 0.25753,-0.17746 0.76338,-0.15019 1.81723,-0.52754 1.81723,-0.65068 0,-0.11949 -0.66858,-0.003 -1.42063,0.2487 -0.47537,0.15875 -0.75478,0.22069 -0.8231,0.18247 -0.19155,-0.10715 2.1156,-0.88912 3.09853,-1.05019 0.67502,-0.11062 1.01443,-0.12264 1.01443,-0.0359 0,0.11736 -0.55409,0.53478 -0.99358,0.74851 -0.60513,0.29429 -0.64944,0.31058 -1.14268,0.42006 -0.46205,0.10256 -1.37673,0.32172 -1.69283,0.4056 -0.17898,0.0475 -0.18608,0.0419 -0.1149,-0.0911 z m -8.3395,-0.10992 c -0.0679,-0.0818 -0.0638,-0.1001 0.0229,-0.1001 0.0583,0 0.20965,-0.091 0.33635,-0.20217 0.17615,-0.1546 0.22503,-0.17423 0.2077,-0.0834 -0.0125,0.0653 -0.025,0.14012 -0.0278,0.16622 -0.009,0.0792 -0.2919,0.31956 -0.37669,0.31956 -0.0436,0 -0.11677,-0.045 -0.16248,-0.10009 z m 3.35449,-0.05 c -0.0771,-0.0826 -0.1608,-0.23306 -0.18596,-0.3344 l -0.0457,-0.18426 0.2344,0.23431 c 0.12893,0.12887 0.28247,0.2343 0.34122,0.2343 0.13756,0 0.13838,0.10707 0.001,0.15969 -0.16202,0.0621 -0.19428,0.0519 -0.34512,-0.10964 z m -1.58493,-0.0733 c -0.0903,-0.1378 -0.0956,-0.19574 -0.0296,-0.32259 0.11602,-0.2227 0.12086,-0.22446 0.22792,-0.083 0.12204,0.16124 0.12338,0.29442 0.005,0.45117 -0.0884,0.11664 -0.098,0.1145 -0.20289,-0.0456 z m -0.59415,-0.21574 c -0.0223,-0.058 -0.0405,-0.16663 -0.0405,-0.24128 0,-0.16419 0.21528,-0.78758 0.27198,-0.78758 0.0638,0 0.19532,0.32541 0.19532,0.48335 0,0.11552 -0.30361,0.65106 -0.3691,0.65106 -0.01,0 -0.0354,-0.0475 -0.0577,-0.10555 z m -5.19269,-0.0798 c -0.0983,-0.0648 -0.23672,-0.19222 -0.30766,-0.28317 -0.16824,-0.21571 -0.36422,-0.59911 -0.30624,-0.59911 0.10549,0 0.9486,0.43219 1.21209,0.62134 0.28461,0.20431 0.28539,0.206 0.13367,0.2902 -0.21683,0.12031 -0.52357,0.10804 -0.73186,-0.0293 z m 6.36846,-0.0335 c -0.20416,-0.21866 -0.24073,-0.45784 -0.11554,-0.75586 l 0.10909,-0.25971 0.12724,0.36701 c 0.21403,0.61737 0.15351,0.94233 -0.12079,0.64856 z m 4.67103,0.0619 c -0.15197,-0.0843 -0.14892,-0.0891 0.20315,-0.3228 0.37317,-0.24767 1.1116,-0.61872 1.15034,-0.57803 0.0123,0.0129 -0.0396,0.15454 -0.11534,0.31465 -0.25418,0.53711 -0.83277,0.81103 -1.23815,0.58618 z m -6.24272,-0.43476 c -0.0451,-0.22545 0.0311,-0.55688 0.13599,-0.59185 0.1312,-0.0437 0.16936,0.35721 0.055,0.5782 -0.0583,0.11278 -0.11658,0.20506 -0.1294,0.20506 -0.0128,0 -0.0406,-0.0861 -0.0616,-0.19141 z m 1.9983,-0.0361 c -0.12754,-0.26865 -0.12609,-0.24888 -0.0357,-0.48546 l 0.0718,-0.18785 0.0927,0.16682 c 0.10424,0.18752 0.12896,0.63997 0.038,0.69614 -0.0327,0.0202 -0.10779,-0.0651 -0.1669,-0.18965 z m -6.24052,-0.10553 c -0.49328,-0.38975 -0.69567,-0.72583 -0.73098,-1.21384 l -0.029,-0.40043 0.2066,0.10679 c 0.36346,0.18787 0.53757,0.44587 0.74404,1.10252 0.10893,0.34646 0.18773,0.64026 0.1751,0.65288 -0.0126,0.0126 -0.17723,-0.0989 -0.36578,-0.24792 z m 10.30091,0.16051 c 0.0622,-0.15409 0.12166,-0.3396 0.2699,-0.84206 0.082,-0.27798 0.183,-0.44451 0.37428,-0.61725 0.36615,-0.33066 0.46185,-0.31325 0.46185,0.084 0,0.39285 -0.24493,0.81311 -0.67531,1.15868 -0.41686,0.33473 -0.49406,0.37355 -0.43072,0.21661 z m -11.87842,-0.0545 c -0.78406,-0.24858 -1.80927,-0.87659 -2.27341,-1.3926 -0.33127,-0.3683 -0.44652,-0.69738 -0.41698,-1.19064 l 0.0201,-0.33526 0.42558,0.28608 c 0.23408,0.15734 0.69972,0.54534 1.03476,0.86223 0.33503,0.31688 0.75936,0.7048 0.94295,0.86206 0.32084,0.27481 0.47163,0.45298 0.42336,0.5002 -0.0125,0.0123 -0.38331,-0.24583 -0.82391,-0.57357 -0.77311,-0.57507 -1.05539,-0.72872 -1.15469,-0.62853 -0.0951,0.096 0.83964,0.87459 1.44453,1.20315 0.93618,0.50851 1.0354,0.6154 0.37774,0.40688 z m 13.45176,0.0425 c 0,-0.0295 0.20278,-0.15332 0.45061,-0.2751 0.77972,-0.38311 1.80744,-1.21035 1.74316,-1.4031 -0.0369,-0.11059 -0.46998,0.13923 -1.1924,0.6878 -0.79894,0.60668 -0.79669,0.60535 -0.75452,0.44416 0.0188,-0.0717 0.10806,-0.17886 0.19842,-0.23804 0.0904,-0.0592 0.4869,-0.41522 0.88119,-0.79118 0.76821,-0.73249 1.52193,-1.30953 1.71051,-1.30953 0.10228,0 0.1104,0.0455 0.0685,0.3837 -0.0945,0.76183 -0.4071,1.17852 -1.33634,1.78119 -0.66225,0.42951 -1.76909,0.88004 -1.76909,0.7201 z m -6.69682,-0.51834 c -0.13645,-0.28599 -0.13604,-0.26496 -0.008,-0.39334 0.14549,-0.14544 0.27695,-0.13099 0.36879,0.0405 0.0629,0.11749 0.0549,0.18795 -0.0415,0.36702 -0.0657,0.12188 -0.13914,0.2216 -0.16328,0.2216 -0.0242,0 -0.0945,-0.10611 -0.15638,-0.23582 z m -1.44368,-0.18124 c -0.0461,-0.15598 -0.13148,-0.34366 -0.18962,-0.41706 -0.0581,-0.0734 0.005,-0.0229 0.1401,0.11232 0.15553,0.15551 0.24581,0.30869 0.24581,0.41706 0,0.26258 -0.10278,0.20377 -0.19629,-0.11232 z m 3.03098,0.18351 c -0.0283,-0.0734 -0.0607,-0.15123 -0.0719,-0.17293 -0.0113,-0.0217 0.0851,-0.14177 0.21414,-0.26679 l 0.23462,-0.22731 -0.12927,0.30015 c -0.0711,0.16508 -0.1443,0.34519 -0.16269,0.40024 -0.0263,0.0787 -0.0444,0.0715 -0.0849,-0.0334 z m -7.87848,-0.22419 c -0.87944,-0.55776 -1.78632,-1.60879 -2.01224,-2.3321 -0.094,-0.30107 -0.0829,-1.30715 0.0156,-1.40559 0.0707,-0.0707 1.01444,1.02137 1.40547,1.62633 0.40719,0.62996 0.79179,1.36003 0.74244,1.40936 -0.0146,0.0146 -0.25755,-0.27313 -0.5398,-0.63947 -0.50746,-0.65863 -0.93625,-1.06591 -1.02686,-0.97533 -0.0257,0.0257 0.0427,0.21319 0.15202,0.41666 0.16697,0.31076 0.58466,0.7684 1.37552,1.50708 0.0688,0.0642 0.12503,0.15777 0.12503,0.20787 0,0.0501 0.0623,0.17022 0.13836,0.26692 0.18841,0.23942 0.10072,0.22034 -0.37557,-0.0817 z m 12.46611,0.21305 c 0.0148,-0.0306 0.0922,-0.19823 0.17193,-0.37256 0.0797,-0.17433 0.17126,-0.31697 0.20344,-0.31697 0.14332,0 1.13044,-1.06243 1.31382,-1.41405 0.4052,-0.77699 -0.0536,-0.49351 -0.84837,0.52421 -0.30162,0.38622 -0.55821,0.67278 -0.57021,0.63681 -0.0279,-0.0837 0.64173,-1.24501 1.00833,-1.74861 0.15434,-0.21203 0.48108,-0.59791 0.72609,-0.85752 l 0.44546,-0.47201 0.0456,0.30389 c 0.0909,0.60587 10e-4,1.1761 -0.25772,1.63614 -0.29488,0.52422 -0.79726,1.09107 -1.37617,1.55277 -0.42814,0.34146 -0.91702,0.64079 -0.8622,0.5279 z m -7.16235,-0.65421 c -0.0879,-0.12903 -0.18237,-0.2348 -0.20991,-0.23505 -0.0275,-2.7e-4 -0.0501,-0.0455 -0.0501,-0.10055 0,-0.18738 0.12171,-0.1008 0.29568,0.21034 0.20908,0.37393 0.18686,0.45192 -0.0357,0.12526 z m 0.30224,-0.0551 c -0.19276,-0.42136 -0.19295,-0.42585 -0.0107,-0.25854 0.16659,0.15295 0.27604,0.45431 0.18534,0.51034 -0.0255,0.0157 -0.10408,-0.0976 -0.17463,-0.2518 z m 1.5103,0.14029 c -0.002,-0.0996 0.0705,-0.2633 0.16177,-0.36701 0.20832,-0.23669 0.20914,-0.13996 0.002,0.24651 -0.14624,0.27299 -0.16113,0.28395 -0.16387,0.1205 z m 0.33078,0.0452 c 0,-0.0782 0.30173,-0.56505 0.35048,-0.56555 0.10548,-0.001 0.0422,0.15766 -0.15021,0.37669 -0.11015,0.12541 -0.20027,0.21039 -0.20027,0.18886 z m -3.73846,-0.18611 c 0,-0.19146 0.19109,-0.37996 0.38518,-0.37996 0.20491,0 0.24923,0.12374 0.0695,0.19391 -0.0848,0.0331 -0.22182,0.12431 -0.30443,0.20267 l -0.15021,0.14246 z m 5.35528,0.019 c -0.0468,-0.0749 -0.17436,-0.15401 -0.2835,-0.17583 -0.21369,-0.0427 -0.26015,-0.13697 -0.0982,-0.1991 0.1837,-0.0705 0.43,0.0377 0.47266,0.20763 0.0588,0.23401 0.008,0.32649 -0.091,0.1673 z m -4.38885,-0.17249 c -0.24727,-0.21666 -0.25141,-0.22583 -0.0603,-0.13386 0.20812,0.10017 0.40424,0.28805 0.35357,0.3387 -0.0153,0.0153 -0.14723,-0.0769 -0.29324,-0.20484 z m 1.30848,0.0353 c -0.23509,-0.23499 -0.22418,-0.33009 0.0227,-0.19801 0.14068,0.0753 0.27568,0.32237 0.21129,0.38673 -0.0124,0.0124 -0.11774,-0.0725 -0.23401,-0.18872 z m 0.66245,0.16548 c 0,-0.071 0.15525,-0.32833 0.22696,-0.37619 0.18336,-0.12239 0.23769,-0.0421 0.0987,0.14587 -0.13332,0.18025 -0.32564,0.31627 -0.32564,0.23032 z m 1.2684,-0.0178 c 0,-0.0607 0.21259,-0.23269 0.46731,-0.37797 0.0872,-0.0497 0.088,-0.0421 0.006,0.0589 -0.13875,0.17088 -0.47324,0.3964 -0.47324,0.31907 z m -4.96498,-0.64496 c -0.0762,-0.19862 -0.0436,-0.35948 0.0873,-0.42946 0.19088,-0.10211 0.25705,-0.0866 0.41742,0.0977 0.0798,0.0918 0.18143,0.16683 0.22582,0.16683 0.0444,0 0.15162,0.0591 0.2383,0.13124 0.15497,0.12904 0.15523,0.13128 0.0157,0.13346 -0.078,0.001 -0.23213,-0.0158 -0.34246,-0.0379 -0.15594,-0.0312 -0.19323,-0.0683 -0.16746,-0.16682 0.0228,-0.0873 -0.002,-0.12672 -0.079,-0.12672 -0.078,0 -0.10575,0.0457 -0.0912,0.15014 0.0256,0.18433 -0.23785,0.25485 -0.30441,0.0815 z m 1.62942,-0.0106 c -0.11325,-0.0793 -0.16865,-0.0893 -0.18713,-0.0339 -0.0592,0.17749 -0.48279,-0.26265 -0.48279,-0.50164 0,-0.0298 0.38732,-0.0602 0.86071,-0.0676 0.79794,-0.0124 0.86315,-0.004 0.89415,0.11445 0.0184,0.0703 10e-4,0.13852 -0.0381,0.15162 -0.11277,0.0376 0.0142,0.18694 0.24388,0.28684 l 0.20895,0.0909 -0.23365,3.6e-4 c -0.12851,2.7e-4 -0.29216,-0.0437 -0.36367,-0.0978 -0.13904,-0.10511 -0.33766,-0.0735 -0.48915,0.078 -0.12027,0.12023 -0.21827,0.11517 -0.41324,-0.0213 z m 0.19794,-0.46154 c 0,-0.0145 -0.13519,-0.0264 -0.30042,-0.0264 -0.2468,0 -0.30041,0.0218 -0.30041,0.12234 0,0.0673 0.0159,0.13818 0.0352,0.15754 0.0349,0.0349 0.56561,-0.20289 0.56561,-0.25348 z m 3.18769,0.52818 c -0.0642,-0.0168 -0.11683,-0.0548 -0.11683,-0.0846 0,-0.10709 -0.29141,-0.12718 -0.47422,-0.0327 -0.1027,0.0531 -0.27083,0.0953 -0.37363,0.0939 l -0.1869,-0.003 0.20895,-0.0909 c 0.23104,-0.1005 0.34044,-0.2295 0.25023,-0.29504 -0.0717,-0.0521 -0.089,-0.34889 -0.0178,-0.30492 0.0279,0.0172 0.42815,0.0354 0.88949,0.0405 0.46133,0.005 0.83879,0.036 0.83879,0.0688 0,0.2466 -0.40811,0.66983 -0.50102,0.51957 -0.0266,-0.0429 -0.0944,-0.0308 -0.1858,0.0332 -0.0792,0.0554 -0.15983,0.0973 -0.1792,0.0931 -0.0194,-0.004 -0.0878,-0.0215 -0.15204,-0.0383 z m 0.76035,-0.50522 c -0.0319,-0.0319 -0.18969,-0.0485 -0.35073,-0.0369 l -0.29279,0.0209 0.26703,0.13692 c 0.23533,0.12067 0.27697,0.12506 0.35073,0.0369 0.0473,-0.0565 0.0585,-0.12515 0.0257,-0.15788 z m 0.19662,0.4443 c 0.0426,-0.0513 0.11778,-0.0933 0.16708,-0.0933 0.0493,0 0.19229,-0.0901 0.31774,-0.20019 0.12546,-0.11011 0.27303,-0.20019 0.32794,-0.20019 0.15327,0 0.26169,0.17197 0.23784,0.37726 -0.0215,0.1846 -0.0231,0.18518 -0.57478,0.1974 -0.46711,0.0104 -0.5412,-0.002 -0.47582,-0.081 z m 0.77877,-0.10995 c -0.0421,-0.12627 -0.25037,-0.14422 -0.25037,-0.0216 0,0.0619 0.0571,0.10499 0.13908,0.10499 0.0816,0 0.12759,-0.0345 0.11129,-0.0834 z m -6.01382,-0.36146 c -0.0245,-0.0245 -0.0445,-0.0755 -0.0445,-0.11344 0,-0.0418 0.0311,-0.0379 0.079,0.01 0.0435,0.0434 0.0635,0.0945 0.0445,0.11344 -0.019,0.019 -0.0545,0.0145 -0.079,-0.01 z m -1.20118,-0.50603 c -0.0182,-0.22939 -0.0543,-0.51466 -0.08,-0.63394 -0.0776,-0.35939 0.0857,-0.25382 0.19937,0.12889 0.1107,0.37261 0.12362,0.53708 0.0606,0.77197 -0.072,0.26876 -0.1461,0.15895 -0.17999,-0.26692 z m 7.7332,0.15521 c -0.0445,-0.26349 0.13338,-1.00602 0.24105,-1.00602 0.10539,0 0.10954,0.10907 0.014,0.36719 -0.0543,0.14671 -0.0951,0.40938 -0.0906,0.58371 0.01,0.38281 -0.10269,0.42054 -0.16445,0.0551 z m -4.70578,-0.17028 c 0.20017,-0.19996 0.62476,-0.3124 0.56196,-0.14881 -0.0453,0.11806 -0.42313,0.31402 -0.60543,0.31402 -0.10634,0 -0.10078,-0.0211 0.0435,-0.16521 z m 1.69242,0.1192 c -0.078,-0.0153 -0.21323,-0.10563 -0.30041,-0.20071 l -0.1585,-0.17289 0.23365,0.0446 c 0.12851,0.0245 0.30807,0.11894 0.39903,0.2098 0.16641,0.16624 0.1441,0.18155 -0.17377,0.1192 z m -4.99846,-0.0874 c 0.0227,-0.0367 0.0545,-0.0667 0.0707,-0.0667 0.0162,0 0.0294,0.03 0.0294,0.0667 0,0.0367 -0.0318,0.0667 -0.0707,0.0667 -0.0389,0 -0.0521,-0.03 -0.0294,-0.0667 z m 8.37814,0 c 0,-0.0367 0.0283,-0.0667 0.0628,-0.0667 0.0346,0 0.0814,0.03 0.10408,0.0667 0.0227,0.0367 -0.006,0.0667 -0.0628,0.0667 -0.0572,0 -0.10408,-0.03 -0.10408,-0.0667 z m -7.42823,-0.10705 c -0.0972,-0.0971 -0.0449,-0.37606 0.12457,-0.66516 0.0953,-0.16252 0.20054,-0.27864 0.2339,-0.25803 0.0739,0.0456 0.006,0.35876 -0.10699,0.4964 -0.0454,0.055 -0.10954,0.18455 -0.14263,0.28777 -0.0331,0.10322 -0.0821,0.16579 -0.10885,0.13902 z m 0.76737,-0.15987 c -0.0906,-0.14361 -0.1194,-0.24296 -0.0746,-0.25798 0.12131,-0.0407 0.27307,0.16398 0.24677,0.33285 -0.0236,0.15178 -0.0311,0.14853 -0.17214,-0.0749 z m 0.56914,0.0354 c 0.0337,-0.17609 0.19356,-0.348 0.26098,-0.28061 0.0224,0.0224 0.003,0.13178 -0.0431,0.24306 -0.10232,0.24694 -0.26323,0.27467 -0.21789,0.0375 z m 3.77222,0.0814 c -0.0363,-0.0459 -0.10116,-0.15097 -0.14404,-0.23355 -0.0614,-0.11827 -0.0598,-0.14993 0.008,-0.14912 0.1434,0.002 0.22989,0.0899 0.27706,0.28258 0.0468,0.19131 -0.027,0.2438 -0.14085,0.10009 z m 0.51703,-0.0211 c 0,-0.16473 0.12879,-0.36262 0.236,-0.36262 0.12527,0 0.12301,0.0368 -0.0168,0.2733 -0.12601,0.21324 -0.21926,0.25122 -0.21926,0.0893 z m 0.86998,0.0231 c -10e-4,-0.0631 -0.0645,-0.23431 -0.14071,-0.38048 -0.0762,-0.14617 -0.12879,-0.33477 -0.11683,-0.41912 0.019,-0.13396 0.0436,-0.11539 0.19483,0.14693 0.24411,0.42354 0.26402,0.5046 0.15826,0.64413 -0.0852,0.11237 -0.0936,0.11312 -0.0956,0.009 z m -5.43577,-0.29111 c -0.0585,-0.15249 -0.0538,-0.16137 0.0867,-0.16137 0.0944,0 0.11825,0.0345 0.0924,0.13346 -0.0419,0.16024 -0.12342,0.17294 -0.17909,0.0279 z m 4.34427,0.0621 c -0.0822,-0.0821 -0.0476,-0.22344 0.0546,-0.22344 0.11123,0 0.1251,0.0575 0.0445,0.18451 -0.0295,0.0464 -0.0741,0.064 -0.0991,0.0389 z m -2.54894,-0.15688 c 0.0227,-0.0367 0.21796,-0.0667 0.43392,-0.0667 0.21597,0 0.41124,0.03 0.43393,0.0667 0.026,0.0421 -0.13413,0.0667 -0.43393,0.0667 -0.29979,0 -0.45995,-0.0246 -0.43392,-0.0667 z m -0.18745,-0.25024 c -0.0156,-0.0275 -0.0808,-0.21039 -0.14481,-0.40637 -0.11985,-0.36693 -0.078,-0.5342 0.1152,-0.46011 0.10769,0.0413 0.28977,0.7322 0.2219,0.84197 -0.0529,0.0855 -0.15056,0.098 -0.19229,0.0245 z m 1.05122,-0.20018 c 0.0849,-0.48139 0.17785,-0.69253 0.29419,-0.66855 0.22244,0.0459 0.006,0.91878 -0.22737,0.91878 -0.0916,0 -0.10326,-0.0437 -0.0668,-0.25023 z m 1.71168,0.10498 c -0.003,-0.0615 -0.0437,-0.12159 -0.0906,-0.13346 -0.0617,-0.0156 -0.0525,-0.0539 0.0334,-0.13835 0.0981,-0.0965 0.11874,-0.0994 0.11874,-0.0167 0,0.0551 0.0376,0.10056 0.0834,0.10112 0.0577,7.3e-4 0.0608,0.0161 0.01,0.05 -0.0404,0.027 -0.0906,0.0941 -0.11155,0.14912 -0.0313,0.0822 -0.0391,0.0801 -0.0434,-0.0118 z m -4.39834,-0.0975 c -0.0467,-0.05 -0.056,-0.0909 -0.0205,-0.0909 0.0355,0 0.0742,-0.0464 0.0861,-0.10302 0.0182,-0.0868 0.0385,-0.0831 0.12902,0.0232 0.0988,0.11604 0.0987,0.13165 -10e-4,0.19396 -0.0778,0.0485 -0.13263,0.042 -0.19352,-0.0232 z m 2.00032,-0.0242 c 0,-0.0918 0.0152,-0.12929 0.0337,-0.0834 0.0185,0.0459 0.0185,0.12095 0,0.16682 -0.0185,0.0459 -0.0337,0.008 -0.0337,-0.0834 z m 0.46731,0 c 0,-0.0918 0.0152,-0.12929 0.0337,-0.0834 0.0185,0.0459 0.0185,0.12095 0,0.16682 -0.0185,0.0459 -0.0337,0.008 -0.0337,-0.0834 z m -3.94927,0.008 c 0,-0.0575 0.40088,-0.27452 0.50706,-0.27452 0.0291,0 -0.0489,0.0751 -0.17327,0.16682 -0.23755,0.17519 -0.33379,0.20624 -0.33379,0.1077 z m 7.16353,-0.11308 c -0.19485,-0.17915 -0.17711,-0.18328 0.12979,-0.0303 0.10097,0.0504 0.18359,0.1165 0.18359,0.147 0,0.10298 -0.12506,0.0564 -0.31338,-0.11675 z m -3.48364,-0.21287 c -0.12367,-0.23098 -0.0952,-0.48241 0.0546,-0.48241 0.18611,0 0.20848,0.0753 0.10862,0.36565 -0.0829,0.24111 -0.0929,0.24822 -0.16325,0.11676 z m 0.33087,0.0125 c 0.003,-0.0777 0.019,-0.0935 0.0403,-0.0403 0.0193,0.0482 0.0169,0.10572 -0.005,0.1279 -0.0222,0.0222 -0.038,-0.0172 -0.0351,-0.0876 z m -0.33379,-0.77851 c -0.003,-0.0642 -0.0365,-0.11678 -0.0747,-0.11678 -0.041,0 -0.0351,-0.0367 0.0142,-0.0895 0.0607,-0.065 0.10508,-0.0695 0.16213,-0.0167 0.0432,0.04 0.0563,0.0878 0.0292,0.10614 -0.0272,0.0183 -0.0665,0.0784 -0.0875,0.13346 -0.0303,0.0797 -0.0392,0.0763 -0.0434,-0.0167 z"
       id="path5105"
       inkscape:connector-curvature="0" />
  </g>
</svg>
