<?xml version="1.0" encoding="UTF-8" standalone="no"?>
<!-- Created with Inkscape (http://www.inkscape.org/) -->

<svg
   xmlns:dc="http://purl.org/dc/elements/1.1/"
   xmlns:cc="http://creativecommons.org/ns#"
   xmlns:rdf="http://www.w3.org/1999/02/22-rdf-syntax-ns#"
   xmlns:svg="http://www.w3.org/2000/svg"
   xmlns="http://www.w3.org/2000/svg"
   xmlns:sodipodi="http://sodipodi.sourceforge.net/DTD/sodipodi-0.dtd"
   xmlns:inkscape="http://www.inkscape.org/namespaces/inkscape"
   width="60.832039mm"
   height="60.643051mm"
   viewBox="0 0 60.832039 60.643051"
   version="1.1"
   id="svg5123"
   inkscape:version="0.92.1 r15371"
   sodipodi:docname="img3.svg">
  <defs
     id="defs5117" />
  <sodipodi:namedview
     id="base"
     pagecolor="#ffffff"
     bordercolor="#666666"
     borderopacity="1.0"
     inkscape:pageopacity="0.0"
     inkscape:pageshadow="2"
     inkscape:zoom="0.7"
     inkscape:cx="398.45381"
     inkscape:cy="74.059534"
     inkscape:document-units="mm"
     inkscape:current-layer="layer1"
     showgrid="false"
     fit-margin-top="0"
     fit-margin-left="0"
     fit-margin-right="0"
     fit-margin-bottom="0"
     inkscape:window-width="1536"
     inkscape:window-height="793"
     inkscape:window-x="-8"
     inkscape:window-y="-8"
     inkscape:window-maximized="1" />
  <metadata
     id="metadata5120">
    <rdf:RDF>
      <cc:Work
         rdf:about="">
        <dc:format>image/svg+xml</dc:format>
        <dc:type
           rdf:resource="http://purl.org/dc/dcmitype/StillImage" />
        <dc:title></dc:title>
      </cc:Work>
    </rdf:RDF>
  </metadata>
  <g
     inkscape:label="Layer 1"
     inkscape:groupmode="layer"
     id="layer1"
     transform="translate(-29.682198,-209.60409)">
    <ellipse
       style="opacity:1;fill:#babeff;fill-opacity:1;stroke:none;stroke-width:0.88912654;stroke-miterlimit:4;stroke-dasharray:none;stroke-dashoffset:0;stroke-opacity:1;paint-order:fill markers stroke"
       id="path4491"
       cx="60.098217"
       cy="239.92561"
       rx="30.416019"
       ry="30.321526" />
    <path
       style="fill:#fff7f7;fill-opacity:1;stroke-width:0.08032122"
       d="m 44.094384,259.58859 c -0.148995,-0.0991 -0.137365,-0.13539 0.240301,-0.74706 0.21829,-0.35356 0.433306,-0.69458 0.477828,-0.75778 0.04455,-0.0632 0.106117,-0.16665 0.136877,-0.22986 0.06024,-0.12379 1.155299,-1.87863 1.290919,-2.06874 0.04511,-0.0632 0.181135,-0.28733 0.302301,-0.49803 0.381073,-0.66269 0.580476,-0.80451 1.131117,-0.80451 0.562689,0 0.563337,5.3e-4 1.166498,0.95774 0.238981,0.37928 0.47162,0.7413 0.516974,0.80451 0.04536,0.0632 0.116383,0.18549 0.15785,0.27173 0.06694,0.13927 0.817467,1.34584 1.022453,1.64378 0.04351,0.0632 0.178447,0.28732 0.299917,0.49803 0.121471,0.2107 0.276417,0.44059 0.344327,0.51087 0.06791,0.0703 0.110948,0.20818 0.09565,0.30647 -0.0268,0.1722 -0.05911,0.17952 -0.887985,0.20052 l -0.860166,0.0218 -0.203586,-0.29347 c -0.111966,-0.16141 -0.305028,-0.46429 -0.429027,-0.67308 -0.12399,-0.20878 -0.346278,-0.57169 -0.493968,-0.80644 -0.147692,-0.23476 -0.381058,-0.60927 -0.518591,-0.83224 -0.287671,-0.46638 -0.243909,-0.48912 -0.802453,0.41696 -0.162088,0.26293 -0.411109,0.66341 -0.553377,0.88994 -0.142275,0.22654 -0.345047,0.5498 -0.450607,0.71837 -0.349374,0.5579 -0.382601,0.57465 -1.140109,0.57465 -0.445904,0 -0.741447,-0.0366 -0.843144,-0.10413 z m 7.582219,-0.0162 c -0.114559,-0.10427 -0.132316,-0.43693 -0.132316,-2.47828 0,-2.73298 -0.03679,-2.61149 0.791022,-2.61149 0.833609,0 0.808796,-0.0461 0.808796,1.50317 0,0.7395 0.03175,1.33306 0.07055,1.319 0.0388,-0.0141 0.332473,-0.30137 0.652555,-0.6385 0.616816,-0.64964 1.283848,-1.31717 1.854966,-1.8563 0.332289,-0.31369 0.367796,-0.32737 0.850015,-0.32737 0.815642,0 0.781936,-0.11314 0.781936,2.6248 0,2.02925 -0.01776,2.36074 -0.13231,2.46497 -0.172159,0.15664 -1.315979,0.1716 -1.455151,0.019 -0.05711,-0.0627 -0.101286,-0.60681 -0.11556,-1.42324 l -0.02311,-1.32188 -0.926211,0.97894 c -0.509424,0.53841 -1.129223,1.17887 -1.377339,1.42324 l -0.451127,0.44431 h -0.532228 c -0.371572,0 -0.572167,-0.0363 -0.664538,-0.12037 z m 6.78902,0.0284 c -0.0743,-0.0677 -0.101045,-0.73495 -0.101045,-2.52575 0,-2.80182 -0.07015,-2.59245 0.868268,-2.59245 0.401759,0 0.572527,0.0329 0.658098,0.12665 0.101297,0.11095 0.136925,0.49735 0.156122,1.69311 7.99e-4,0.0718 0.284039,0.0958 1.129248,0.0958 0.950649,0 1.135734,-0.0191 1.178818,-0.12119 0.0281,-0.0666 0.05111,-0.44347 0.05111,-0.83735 0,-0.91201 0.04166,-0.95695 0.887165,-0.95695 0.529303,0 0.635586,0.0221 0.709697,0.1482 0.1309,0.22256 0.117979,4.85002 -0.01387,4.97001 -0.06087,0.0554 -0.355516,0.092 -0.74097,0.092 -0.385456,0 -0.680111,-0.0366 -0.740972,-0.092 -0.06611,-0.0602 -0.101045,-0.37799 -0.101045,-0.91944 v -0.82749 h -1.209185 -1.209186 l 0.03863,0.70873 c 0.02247,0.41256 7.99e-4,0.79678 -0.05175,0.91943 -0.08792,0.20491 -0.108555,0.21071 -0.749262,0.21071 -0.400175,0 -0.698523,-0.0362 -0.759899,-0.092 z m 6.820306,0 c -0.144531,-0.13156 -0.144531,-4.89475 0,-5.02626 0.155467,-0.14147 1.203714,-0.11969 1.366465,0.0284 0.132014,0.1201 0.171983,0.59749 0.173758,2.07527 3.37e-4,0.3016 0.02494,0.57079 0.05463,0.59822 0.02968,0.0274 0.142864,-0.0641 0.251519,-0.20357 0.108658,-0.13938 0.495556,-0.56373 0.859782,-0.94299 0.364223,-0.37928 0.869209,-0.90508 1.122188,-1.16847 l 0.459961,-0.47886 h 0.525777 c 0.899593,0 0.848619,-0.14678 0.878376,2.52917 0.03113,2.79896 0.06865,2.68098 -0.852821,2.68098 -0.364297,0 -0.653695,-0.0373 -0.71377,-0.092 -0.07084,-0.0644 -0.101045,-0.49008 -0.101045,-1.42385 0,-0.73254 -0.03216,-1.32041 -0.07146,-1.30637 -0.0393,0.0141 -0.407754,0.38756 -0.818791,0.83005 -0.411037,0.44248 -0.913823,0.96654 -1.117299,1.1646 -0.203478,0.19804 -0.46571,0.46526 -0.582741,0.59379 -0.198232,0.21775 -0.251102,0.23373 -0.773139,0.23373 -0.323565,0 -0.603054,-0.0389 -0.661398,-0.092 z m 6.758642,-0.0927 c -0.115174,-0.15995 -0.129471,-0.49291 -0.107192,-2.49642 0.0243,-2.1854 0.03464,-2.31778 0.189153,-2.4205 0.203973,-0.13566 1.233056,-0.14811 1.377437,-0.0168 0.07102,0.0647 0.101045,0.49718 0.101045,1.45577 0,0.85815 0.03122,1.36385 0.08421,1.36385 0.04632,0 0.0842,-0.0287 0.0842,-0.0636 0,-0.0676 1.474518,-1.66839 2.217449,-2.40738 l 0.442909,-0.44057 h 0.561387 c 0.468849,0 0.575754,0.0244 0.64855,0.1482 0.130901,0.22256 0.117978,4.85003 -0.01387,4.97002 -0.1244,0.11314 -1.110266,0.12256 -1.335915,0.0123 -0.151245,-0.0737 -0.162867,-0.17253 -0.162867,-1.38554 0,-0.71842 -0.03153,-1.29473 -0.07005,-1.28069 -0.106163,0.0388 -0.991982,0.92882 -1.7792,1.78781 -0.3862,0.42141 -0.760548,0.8093 -0.831882,0.86197 -0.07532,0.0557 -0.369282,0.0958 -0.701075,0.0958 -0.510788,0 -0.585466,-0.0195 -0.704274,-0.18457 z M 35.51798,253.81844 c -0.105705,-0.0962 -0.06407,-2.59276 0.04487,-2.69191 0.05559,-0.0505 0.225545,-0.092 0.377714,-0.092 0.320442,0 0.314651,0.007 1.339081,-1.64734 0.880371,-1.42179 0.876211,-1.41504 1.060529,-1.72395 0.855045,-1.43302 0.879249,-1.45577 1.549241,-1.45577 0.351966,0 0.569455,0.0375 0.651748,0.11231 0.118487,0.10782 0.602329,0.83893 0.97778,1.47748 0.04335,0.0737 0.251755,0.40051 0.463101,0.72613 0.211346,0.32563 0.384273,0.62731 0.384273,0.67042 0,0.0431 0.03416,0.0783 0.07599,0.0783 0.04175,0 0.117062,0.0948 0.167288,0.21072 0.05023,0.11587 0.158201,0.31414 0.239932,0.44056 0.08175,0.12637 0.272017,0.42811 0.422843,0.67042 0.261467,0.42006 0.289743,0.44057 0.607354,0.44057 0.243173,0 0.356661,0.04 0.420291,0.1482 0.126886,0.21574 0.114784,2.4777 -0.01392,2.5948 -0.140859,0.12815 -1.282112,0.12228 -1.400238,-0.007 -0.04975,-0.0546 -0.101767,-0.35625 -0.11556,-0.67042 l -0.02512,-0.57123 h -2.862846 -2.862839 l -0.02511,0.57123 c -0.01384,0.31417 -0.06583,0.61586 -0.11556,0.67042 -0.09492,0.10414 -1.254397,0.14506 -1.360942,0.048 z m 6.006356,-2.81288 c 0,-0.016 -0.132077,-0.22862 -0.293509,-0.47257 -0.161433,-0.24394 -0.315547,-0.50671 -0.34248,-0.58393 -0.02696,-0.0772 -0.08431,-0.1404 -0.127493,-0.1404 -0.04319,0 -0.07855,-0.036 -0.07855,-0.0802 0,-0.10946 -0.758611,-1.29899 -0.828329,-1.2989 -0.03071,5e-5 -0.169456,0.17948 -0.308388,0.39873 -0.609745,0.96229 -0.88697,1.40958 -0.940042,1.5167 -0.03135,0.0632 -0.126262,0.19715 -0.211002,0.29765 -0.321994,0.38189 -0.283887,0.39193 1.487851,0.39193 0.903063,0 1.641925,-0.0136 1.641925,-0.0291 z m 3.766749,1.49515 c -0.22416,-0.0603 -0.314499,-0.28487 -0.314499,-0.78182 0,-0.34173 0.03863,-0.54148 0.116023,-0.59992 0.08074,-0.061 0.634918,-0.0813 1.822276,-0.0669 2.02231,0.0246 2.018663,0.0231 1.642917,0.69885 -0.405031,0.72844 -0.403647,0.72789 -1.878108,0.75451 -0.706538,0.0123 -1.331418,0.0109 -1.388609,-0.005 z m 13.747112,0.01 c -0.115775,-0.0194 -0.248396,-0.0624 -0.294709,-0.0957 -0.04632,-0.0333 -0.207626,-0.0845 -0.358485,-0.11382 -0.321874,-0.0626 -1.085156,-0.56389 -1.249077,-0.82029 -0.467861,-0.73177 -0.537915,-0.94055 -0.538747,-1.6055 -6.72e-4,-0.5405 0.03775,-0.74027 0.210962,-1.09663 0.518981,-1.06787 1.766987,-1.70311 3.204638,-1.63119 1.511848,0.0756 2.364878,0.53208 2.89955,1.55151 0.218912,0.41739 0.251728,0.56558 0.251728,1.13683 0,0.69858 -0.08737,0.95902 -0.521012,1.55314 -0.600955,0.82334 -2.27474,1.3441 -3.604848,1.12158 z m 1.771969,-1.593 c 0.291362,-0.1371 0.669866,-0.76387 0.669866,-1.10923 0,-0.3313 -0.361635,-0.94134 -0.637273,-1.07502 -0.153441,-0.0744 -0.477974,-0.11205 -0.957114,-0.11109 -0.621191,0.001 -0.764124,0.0269 -0.99861,0.17884 -0.565391,0.36634 -0.753796,1.05737 -0.440601,1.616 0.291199,0.5194 0.507416,0.61715 1.36511,0.61715 0.507583,0 0.830937,-0.0378 0.998622,-0.11669 z m -11.230575,1.52139 c -0.133325,-0.12132 -0.01232,-0.5127 0.303973,-0.98329 0.05663,-0.0843 0.383,-0.60146 0.725224,-1.1493 0.342223,-0.54783 0.887753,-1.41994 1.212283,-1.938 0.324537,-0.51808 0.657761,-0.97491 0.74051,-1.01522 0.216873,-0.10563 1.032076,-0.0902 1.188501,0.0225 0.07311,0.0527 0.226656,0.25093 0.341168,0.44056 0.114512,0.18963 0.288942,0.46546 0.387617,0.61295 0.09868,0.14751 0.204834,0.3199 0.235902,0.3831 0.03103,0.0632 0.253771,0.42525 0.494913,0.80451 0.241142,0.37928 0.538122,0.85336 0.659953,1.05353 0.12183,0.20017 0.321154,0.52772 0.442937,0.72789 0.121775,0.20017 0.276176,0.42123 0.34311,0.49126 0.06696,0.07 0.109391,0.22517 0.09434,0.34479 l -0.02736,0.21748 h -0.834914 -0.834913 l -0.27516,-0.34478 c -0.151338,-0.18965 -0.27768,-0.37134 -0.280752,-0.40379 -0.0032,-0.0325 -0.101309,-0.19696 -0.218297,-0.36559 -0.116991,-0.16865 -0.327369,-0.50412 -0.467509,-0.74553 -0.334624,-0.57641 -0.660801,-1.11008 -0.700627,-1.14631 -0.01752,-0.016 -0.216041,0.26963 -0.441169,0.63459 -0.225128,0.36498 -0.44736,0.7203 -0.493858,0.78961 -0.04648,0.0693 -0.251132,0.40185 -0.454759,0.73898 -0.549426,0.90962 -0.505623,0.88113 -1.354254,0.88113 -0.401895,0 -0.755987,-0.0231 -0.786855,-0.0512 z m 14.499938,-0.0755 c -0.09102,-0.0996 -0.120992,-0.6195 -0.141137,-2.44772 -0.02514,-2.28164 -0.02253,-2.32393 0.153767,-2.48435 0.17492,-0.15917 0.230782,-0.16258 2.26432,-0.13821 l 2.084975,0.025 0.344849,0.2176 c 0.192137,0.12119 0.384614,0.3214 0.434646,0.45199 0.142494,0.37195 0.108338,0.91082 -0.07508,1.18455 l -0.164258,0.24514 0.251474,0.19256 c 0.582903,0.44631 0.733371,1.23569 0.362492,1.90169 -0.477919,0.85821 -0.885075,0.97332 -3.453108,0.97616 -1.709637,0.001 -1.961476,-0.0137 -2.062931,-0.12447 z m 3.919213,-1.37573 c 0.156971,-0.0547 0.176505,-0.34314 0.03214,-0.4745 -0.06875,-0.0625 -0.469525,-0.092 -1.25401,-0.092 -1.241529,0 -1.277545,0.0123 -1.194599,0.40711 l 0.04325,0.20584 h 1.120014 c 0.616009,0 1.179949,-0.0209 1.253203,-0.0465 z m -0.485686,-1.85101 c 0.09665,-0.0561 0.14251,-0.1987 0.123643,-0.38428 -0.0077,-0.0752 -0.250638,-0.0931 -1.040416,-0.0766 -0.914174,0.0191 -1.033715,0.037 -1.059468,0.15928 -0.06185,0.29354 0.129127,0.36033 1.026652,0.3591 0.469014,-6.1e-4 0.896329,-0.0265 0.949589,-0.0575 z m 3.232075,3.2051 c -0.05472,-0.0931 -0.08716,-1.03337 -0.08716,-2.52576 0,-2.27221 0.0072,-2.38108 0.162867,-2.45688 0.238381,-0.11614 1.228288,-0.10085 1.339068,0.0206 0.05012,0.055 0.102121,0.42561 0.115561,0.82366 l 0.02443,0.72374 1.178818,0.0403 c 1.487441,0.0508 1.838291,0.17359 2.26531,0.79275 0.233,0.33785 0.283747,1.31756 0.08772,1.69347 -0.210356,0.40338 -0.600941,0.72173 -1.094966,0.89246 -0.358256,0.12378 -0.658345,0.14379 -2.160264,0.14384 -1.638313,6e-5 -1.749504,-0.01 -1.831377,-0.14814 z m 3.491389,-1.61406 v -0.26816 h -0.968314 c -0.949072,0 -0.968864,0.004 -0.996023,0.17796 -0.05954,0.38243 -0.0037,0.40334 1.015495,0.38005 l 0.948842,-0.0217 z m 2.060846,1.56573 c -0.04669,-0.11177 -0.08212,-1.18339 -0.08212,-2.48468 0,-2.66595 -0.04396,-2.52895 0.811462,-2.52895 0.942757,0 0.872563,-0.20625 0.872563,2.564 0,2.08453 -0.01764,2.42142 -0.132316,2.52576 -0.09662,0.0879 -0.301638,0.12037 -0.759895,0.12037 -0.596188,0 -0.631686,-0.01 -0.709696,-0.19653 z m 2.751676,0.0564 c -0.189544,-0.19058 -0.194454,-1.02472 -0.007,-1.19526 0.194252,-0.17677 3.497456,-0.18011 3.658345,-0.004 0.125249,0.13732 -0.0507,0.55325 -0.441924,1.0447 l -0.234345,0.29439 h -1.417843 c -1.266648,0 -1.432703,-0.0149 -1.557194,-0.14012 z m -33.940139,-1.89578 c -0.189221,-0.17219 -0.188517,-1.14612 8e-4,-1.21226 0.07328,-0.0255 1.173264,-0.0465 2.444474,-0.0465 2.067929,0 2.316892,0.0136 2.364478,0.12611 0.07711,0.18278 -0.453448,1.0644 -0.702708,1.16775 -0.131493,0.0546 -0.885561,0.0853 -2.090253,0.0853 -1.600963,0 -1.904463,-0.0181 -2.016871,-0.12037 z m 33.987925,0.001 c -0.159404,-0.10154 -0.187139,-0.19016 -0.187139,-0.59762 0,-0.26991 0.04404,-0.51844 0.101046,-0.57031 0.07384,-0.0671 0.743429,-0.092 2.486578,-0.092 2.096208,0 2.391728,0.0147 2.436575,0.12105 0.0647,0.15343 -0.241419,0.71644 -0.556348,1.02321 l -0.241149,0.23492 h -1.926212 c -1.607094,0 -1.957214,-0.0198 -2.113348,-0.11928 z M 45.12394,248.57628 c -0.117566,-0.0622 -0.147354,-0.18384 -0.147354,-0.60126 0,-0.3492 0.03831,-0.55208 0.115231,-0.61016 0.08224,-0.0621 0.941458,-0.0812 3.001043,-0.0669 3.356464,0.0235 3.247807,-0.003 2.831371,0.69112 -0.426828,0.7115 -0.234199,0.67023 -3.115179,0.66758 -1.566511,-10e-4 -2.594157,-0.0322 -2.685112,-0.0804 z m 33.918065,-0.0377 c -0.09295,-0.0846 -0.132316,-0.2675 -0.132316,-0.61485 0,-0.46026 0.01494,-0.49962 0.215985,-0.56917 0.233325,-0.0808 5.656838,-0.10672 5.881719,-0.0283 0.181305,0.0633 0.164469,0.33416 -0.03521,0.56646 -0.09056,0.10536 -0.165501,0.22638 -0.16653,0.26895 -0.001,0.0426 -0.09813,0.17186 -0.215784,0.28732 l -0.21391,0.20993 h -2.600815 c -2.25211,0 -2.618558,-0.0161 -2.733133,-0.12037 z m -37.370314,-5.93869 c -0.246805,-0.13089 -0.172566,-0.34425 0.472077,-1.35734 0.340688,-0.53539 1.028844,-1.62855 1.529236,-2.42922 0.500401,-0.80068 0.96639,-1.51613 1.035548,-1.58986 0.154426,-0.16469 0.526381,-0.17161 1.075615,-0.0201 0.227335,0.0628 0.554104,0.11451 0.726151,0.11492 0.172048,4.6e-4 0.475173,0.0497 0.673608,0.10945 0.198444,0.0598 0.632861,0.14589 0.96539,0.19141 0.332528,0.0456 0.704427,0.11737 0.826442,0.15954 0.122022,0.0422 0.366188,0.0767 0.542594,0.0767 0.176406,0 0.481539,0.0516 0.678071,0.11477 0.19654,0.0631 0.608625,0.14778 0.915749,0.18816 0.736278,0.0968 1.48006,0.22 1.947738,0.32259 0.365459,0.0801 0.955351,0.18013 2.336584,0.39593 0.358902,0.0561 0.785177,0.13965 0.947257,0.18571 0.277593,0.0789 0.566447,0.12747 2.106307,0.3541 0.348022,0.0512 0.683414,0.1216 0.745301,0.15642 0.06191,0.0348 0.39676,0.0923 0.744158,0.12774 0.347399,0.0355 0.684575,0.1044 0.74927,0.1533 0.130549,0.0985 0.160348,0.49673 0.04216,0.5632 -0.04152,0.0233 -0.159466,0.18907 -0.262115,0.36828 -0.556169,0.97095 -1.124528,1.75809 -1.317717,1.82492 -0.295397,0.10222 -17.286029,0.0917 -17.479418,-0.0109 z m 19.098645,-0.0377 c -0.17524,-0.15946 -0.166865,-0.27869 0.03608,-0.51346 0.09262,-0.10714 0.168402,-0.21086 0.168402,-0.23047 0,-0.0197 0.378906,-0.62884 0.842013,-1.35385 0.463106,-0.72502 0.842012,-1.3284 0.842012,-1.34085 0,-0.0123 0.326811,-0.53557 0.726244,-1.16251 0.399435,-0.62693 0.816153,-1.29142 0.92604,-1.47663 0.109883,-0.18521 0.232259,-0.37484 0.271937,-0.42141 0.03969,-0.0465 0.205768,-0.30878 0.369087,-0.5827 0.163321,-0.27392 0.560895,-0.91178 0.8835,-1.41746 0.322604,-0.5057 0.682154,-1.0746 0.798999,-1.26423 0.116845,-0.18963 0.445923,-0.72406 0.731285,-1.18761 0.285362,-0.46356 0.553599,-0.89453 0.596081,-0.95775 0.402282,-0.59858 1.096121,-1.69047 1.096121,-1.72495 0,-0.12092 0.387064,-0.49702 0.511447,-0.49702 0.125626,0 0.835774,0.95024 0.835774,1.11835 0,0.0314 0.05302,0.11164 0.117833,0.17814 0.111027,0.11396 0.442033,0.62921 0.79147,1.23195 0.08551,0.14751 0.603826,0.975 1.151822,1.83889 0.547995,0.86389 1.110843,1.76035 1.250775,1.99212 0.139931,0.23177 0.418208,0.67423 0.618392,0.98323 0.200184,0.30901 0.363972,0.58881 0.363972,0.62178 0,0.033 0.07014,0.1422 0.155856,0.24268 0.08572,0.10045 0.280178,0.38961 0.432128,0.64246 0.3116,0.5185 1.732739,2.77343 1.859115,2.94986 0.04528,0.0632 0.140668,0.21837 0.21198,0.34479 0.07131,0.12637 0.175251,0.29883 0.230976,0.3831 0.05573,0.0843 0.245977,0.38567 0.422785,0.66975 0.176806,0.28408 0.356286,0.53608 0.398841,0.56 0.117961,0.0663 0.09249,0.23964 -0.05495,0.3738 -0.113306,0.10304 -0.438089,0.12037 -2.260869,0.12037 -1.248725,0 -2.231799,-0.0327 -2.378339,-0.0793 -0.163594,-0.0519 -0.313634,-0.1907 -0.434819,-0.40227 -0.181266,-0.31643 -0.3486,-0.58825 -0.788471,-1.28077 -1.276431,-2.00955 -1.984461,-3.13567 -2.071455,-3.29464 -0.05765,-0.10536 -0.22716,-0.382 -0.376689,-0.61476 -0.502454,-0.78213 -0.45157,-0.72981 -0.600526,-0.61732 -0.07395,0.0558 -0.134451,0.13429 -0.134451,0.17443 0,0.0401 -0.355409,0.63063 -0.789798,1.31231 -0.434389,0.68168 -0.902987,1.42905 -1.041329,1.66083 -0.138341,0.23178 -0.368898,0.59381 -0.512348,0.80451 -0.14345,0.21071 -0.317721,0.48654 -0.387272,0.61295 -0.438034,0.79624 -0.963202,1.54222 -1.144486,1.62569 -0.150774,0.0695 -0.80735,0.0964 -2.370695,0.0972 -1.854456,0.001 -2.180998,-0.016 -2.294484,-0.11928 z m 0.120287,-3.59746 c -0.208398,-0.0562 -0.625192,-0.13933 -0.926212,-0.18487 -0.301022,-0.0456 -0.852728,-0.12952 -1.22601,-0.18662 -0.373283,-0.057 -0.759172,-0.143 -0.857526,-0.1909 -0.09836,-0.0479 -0.326009,-0.0871 -0.505887,-0.0871 -0.179879,0 -0.513911,-0.0482 -0.742294,-0.107 -0.228384,-0.0588 -0.623639,-0.12801 -0.878347,-0.15357 -0.254707,-0.0257 -0.614671,-0.0966 -0.799909,-0.15783 -0.185245,-0.0611 -0.493081,-0.11272 -0.684078,-0.11463 -0.190996,-0.001 -0.508359,-0.0551 -0.705243,-0.11833 -0.196892,-0.0632 -0.500016,-0.11491 -0.673616,-0.11491 -0.173591,0 -0.462485,-0.047 -0.641971,-0.10427 -0.179487,-0.0573 -0.538635,-0.12815 -0.798103,-0.15734 -0.259467,-0.0292 -0.653866,-0.10304 -0.876443,-0.16395 -0.222575,-0.061 -0.551441,-0.11082 -0.730815,-0.11082 -0.179366,0 -0.46215,-0.0517 -0.628406,-0.11491 -0.166256,-0.0632 -0.423363,-0.11491 -0.57135,-0.11491 -0.147987,0 -0.550682,-0.0681 -0.89488,-0.15145 -0.344199,-0.0832 -0.742077,-0.15225 -0.884186,-0.15324 -0.328265,-0.003 -1.041331,-0.19345 -1.257067,-0.337 -0.160249,-0.10658 -0.160737,-0.11777 -0.01616,-0.36627 0.08203,-0.14095 0.195116,-0.32523 0.251292,-0.40952 0.05615,-0.0843 0.272337,-0.42907 0.480371,-0.7662 0.208034,-0.33713 0.416277,-0.66837 0.462774,-0.73609 0.04648,-0.0677 0.225136,-0.36078 0.396991,-0.65127 0.171856,-0.29048 0.515342,-0.83845 0.763299,-1.21772 0.396943,-0.60714 0.481899,-0.69238 0.710538,-0.71302 0.146492,-0.0136 0.400488,0.0452 0.582669,0.13416 0.177638,0.0867 0.351126,0.15752 0.385529,0.15752 0.0344,0 0.345815,0.12064 0.692021,0.26816 0.346199,0.1475 0.649323,0.26818 0.673607,0.26818 0.02423,0 0.327402,0.12064 0.673609,0.26817 0.346206,0.14749 0.650058,0.26816 0.67523,0.26816 0.0252,0 0.282689,0.0983 0.572255,0.21851 0.289566,0.12024 0.772769,0.3144 1.07379,0.43161 0.465301,0.18117 0.957887,0.37971 1.810325,0.72968 0.09263,0.0381 0.407158,0.15805 0.698955,0.26673 0.291807,0.10863 0.822275,0.31895 1.178824,0.46729 0.356541,0.14833 0.724041,0.29921 0.816659,0.33528 0.472813,0.1841 1.037925,0.40641 1.263021,0.49685 0.138931,0.0558 0.6694,0.26486 1.178819,0.46454 0.509418,0.19968 0.962211,0.39323 1.006205,0.43009 0.04399,0.0368 0.140153,0.067 0.213683,0.067 0.07354,0 0.261983,0.0974 0.41878,0.21657 0.287601,0.21848 0.29056,0.24605 0.0631,0.58794 -0.05607,0.0843 -0.30388,0.47242 -0.550683,0.86252 -0.375127,0.59295 -0.650773,0.89183 -0.787699,0.8541 -0.01462,-0.004 -0.197093,-0.0532 -0.405492,-0.10946 z m 1.940162,-3.13575 c -0.0596,-0.0654 -0.155734,-0.11887 -0.213643,-0.11887 -0.126935,0 -0.475554,-0.13361 -2.147524,-0.82315 -0.301021,-0.1242 -1.058834,-0.42523 -1.684025,-0.66912 -0.625197,-0.24386 -1.174608,-0.46912 -1.22092,-0.50056 -0.04632,-0.0314 -0.178926,-0.0818 -0.294703,-0.11191 -0.217592,-0.0566 -0.487106,-0.1629 -1.443456,-0.56917 -0.307645,-0.13075 -0.588165,-0.23762 -0.623391,-0.23762 -0.0352,0 -0.266618,-0.0863 -0.514215,-0.19156 -1.032388,-0.43927 -1.851287,-0.77062 -2.555219,-1.03391 -0.254706,-0.0953 -0.690445,-0.26768 -0.968308,-0.38312 -0.277865,-0.11545 -0.762028,-0.30877 -1.075918,-0.42962 -0.313884,-0.12092 -0.673848,-0.29553 -0.799911,-0.38815 -0.196956,-0.14472 -0.21432,-0.18801 -0.123413,-0.30766 0.05815,-0.0766 0.132005,-0.19094 0.164056,-0.25416 0.03208,-0.0632 0.509367,-0.82176 1.060712,-1.68564 0.551346,-0.86389 1.102715,-1.73927 1.225264,-1.94529 0.317164,-0.53321 0.403151,-0.66299 0.494058,-0.74571 0.127718,-0.11627 0.470461,0.0405 1.232456,0.56372 0.384481,0.26397 1.256763,0.85922 1.938394,1.32277 0.681639,0.46354 1.398512,0.95454 1.593061,1.09109 0.194547,0.13654 1.206266,0.82752 2.248254,1.53548 1.041996,0.70797 2.066964,1.40651 2.277715,1.55231 0.21075,0.14579 0.48776,0.33403 0.615576,0.41832 0.127816,0.0843 0.675304,0.45864 1.21664,0.83192 0.541336,0.37327 1.088447,0.75041 1.215801,0.83807 0.272356,0.18749 0.304577,0.47986 0.08291,0.75236 -0.08176,0.10045 -0.24053,0.33787 -0.352841,0.52752 -0.575087,0.97102 -0.630488,1.03317 -0.942433,1.0574 -0.190632,0.0149 -0.335345,-0.0194 -0.404981,-0.0958 z m 1.751362,-3.28266 c -0.479037,-0.35032 -4.524719,-3.12854 -5.211348,-3.5787 -0.224976,-0.1475 -1.775962,-1.19911 -3.446652,-2.33691 -2.025006,-1.37912 -3.053946,-2.12654 -3.086621,-2.24213 -0.02752,-0.0973 0.0016,-0.22778 0.06567,-0.29732 0.116184,-0.12555 0.570742,-0.82581 0.763811,-1.17662 0.05799,-0.10536 0.47558,-0.77121 0.927995,-1.47971 0.452424,-0.70847 0.822578,-1.30861 0.822578,-1.33361 0,-0.10632 0.439217,-0.55796 0.54253,-0.55796 0.06215,0 0.377347,0.28446 0.700501,0.63212 0.323154,0.34765 0.677719,0.71982 0.787927,0.82703 0.110203,0.10727 0.446664,0.4674 0.747685,0.80043 0.30102,0.33302 0.738326,0.79697 0.971797,1.031 0.23347,0.23402 0.707099,0.72967 1.052514,1.10143 0.814308,0.87643 1.697224,1.81691 2.681637,2.8565 0.434823,0.4592 1.192634,1.2625 1.684025,1.78513 0.49139,0.52262 1.149197,1.2121 1.461794,1.53217 0.35286,0.3613 0.568358,0.64902 0.568358,0.75882 0,0.18512 -0.826324,1.53703 -1.121506,1.83485 -0.242284,0.24446 -0.401748,0.21711 -0.912655,-0.15652 z m 2.31957,-2.94322 c -0.135037,-0.11778 -1.211233,-1.24574 -2.391547,-2.50667 -1.180314,-1.26094 -2.44915,-2.60713 -2.819635,-2.99156 -0.370485,-0.38442 -0.825172,-0.86838 -1.010415,-1.07545 -0.185242,-0.20708 -0.545206,-0.58483 -0.799914,-0.83944 -0.254708,-0.25462 -0.652555,-0.66843 -0.884114,-0.91959 -0.231551,-0.25114 -0.888033,-0.95384 -1.45884,-1.56154 -1.194909,-1.27213 -1.162265,-1.13702 -0.515462,-2.13348 0.228271,-0.35169 0.510455,-0.80267 0.627062,-1.0022 0.116615,-0.19953 0.249437,-0.4145 0.295158,-0.4777 0.108441,-0.14992 1.249054,-1.95989 1.430323,-2.2697 0.443378,-0.75779 0.707405,-0.8189 1.035269,-0.23961 0.125223,0.22124 0.263676,0.45397 0.307679,0.51718 0.208083,0.29893 1.857368,2.926 1.857368,2.95854 0,0.0203 0.132617,0.22565 0.294703,0.45622 0.162088,0.23057 0.294705,0.43802 0.294705,0.461 0,0.0353 1.025467,1.67387 1.266716,2.02398 0.04356,0.0632 0.202633,0.31806 0.353502,0.56632 0.150871,0.24826 0.312351,0.50686 0.358844,0.57464 0.04649,0.0678 0.254742,0.3991 0.462775,0.73624 0.208032,0.33712 0.41628,0.66843 0.462774,0.73621 0.0465,0.0678 0.209962,0.32639 0.363264,0.57465 0.402097,0.65118 0.55707,0.8983 1.598248,2.54861 l 0.936417,1.48426 -0.345869,0.58448 c -0.190229,0.32146 -0.428161,0.70516 -0.528737,0.85265 -0.100576,0.14749 -0.207714,0.31989 -0.238083,0.3831 -0.158625,0.33018 -0.467941,0.7306 -0.579659,0.75041 -0.06985,0.0123 -0.237494,-0.0738 -0.372532,-0.19155 z"
       id="path5700"
       inkscape:connector-curvature="0" />
  </g>
</svg>
