<?xml version="1.0" encoding="UTF-8" standalone="no"?>
<!-- Created with Inkscape (http://www.inkscape.org/) -->

<svg
   xmlns:dc="http://purl.org/dc/elements/1.1/"
   xmlns:cc="http://creativecommons.org/ns#"
   xmlns:rdf="http://www.w3.org/1999/02/22-rdf-syntax-ns#"
   xmlns:svg="http://www.w3.org/2000/svg"
   xmlns="http://www.w3.org/2000/svg"
   xmlns:sodipodi="http://sodipodi.sourceforge.net/DTD/sodipodi-0.dtd"
   xmlns:inkscape="http://www.inkscape.org/namespaces/inkscape"
   width="60.832039mm"
   height="60.643051mm"
   viewBox="0 0 60.832039 60.643051"
   version="1.1"
   id="svg5718"
   inkscape:version="0.92.1 r15371"
   sodipodi:docname="img4.svg">
  <defs
     id="defs5712" />
  <sodipodi:namedview
     id="base"
     pagecolor="#ffffff"
     bordercolor="#666666"
     borderopacity="1.0"
     inkscape:pageopacity="0.0"
     inkscape:pageshadow="2"
     inkscape:zoom="0.7"
     inkscape:cx="-64.417671"
     inkscape:cy="-27.567382"
     inkscape:document-units="mm"
     inkscape:current-layer="layer1"
     showgrid="false"
     fit-margin-top="0"
     fit-margin-left="0"
     fit-margin-right="0"
     fit-margin-bottom="0"
     inkscape:window-width="1536"
     inkscape:window-height="793"
     inkscape:window-x="-8"
     inkscape:window-y="-8"
     inkscape:window-maximized="1" />
  <metadata
     id="metadata5715">
    <rdf:RDF>
      <cc:Work
         rdf:about="">
        <dc:format>image/svg+xml</dc:format>
        <dc:type
           rdf:resource="http://purl.org/dc/dcmitype/StillImage" />
        <dc:title></dc:title>
      </cc:Work>
    </rdf:RDF>
  </metadata>
  <g
     inkscape:label="Layer 1"
     inkscape:groupmode="layer"
     id="layer1"
     transform="translate(-113.21493,-228.12492)">
    <ellipse
       style="opacity:1;fill:#babeff;fill-opacity:1;stroke:none;stroke-width:0.8891266;stroke-miterlimit:4;stroke-dasharray:none;stroke-dashoffset:0;stroke-opacity:1;paint-order:fill markers stroke"
       id="path4491"
       cx="143.63095"
       cy="258.44644"
       rx="30.416019"
       ry="30.321526" />
    <path
       style="fill:#ffffff;fill-opacity:1;stroke-width:0.07141819"
       d="m 142.64961,275.75772 c -1.46046,-0.21553 -2.65676,-0.88265 -3.14506,-1.75384 -0.54113,-0.96546 -0.0391,-2.05189 0.98101,-2.12308 0.48473,-0.0338 0.94286,0.18257 1.2001,0.56687 0.15118,0.22585 0.16143,0.29485 0.11731,0.78933 -0.0889,0.99682 -0.0861,1.01475 0.20091,1.26864 0.65253,0.57721 2.35481,0.63079 3.36047,0.10578 0.39872,-0.20815 1.06224,-0.86569 1.32553,-1.31359 0.27685,-0.47095 0.53564,-1.21182 0.67738,-1.93922 0.14139,-0.72563 0.22389,-1.95064 0.13136,-1.95064 -0.039,0 -0.28816,0.12427 -0.55374,0.27615 -1.15441,0.6602 -1.36437,0.65362 -3.11922,-0.0978 -0.78465,-0.33598 -0.80814,-0.34118 -1.16887,-0.25857 -0.20247,0.0464 -0.56152,0.1779 -0.7979,0.2923 l -0.42977,0.20798 -0.23696,-0.25245 -0.23695,-0.25244 0.3177,-0.29352 c 0.49176,-0.45433 1.29371,-0.96489 1.66643,-1.06093 0.71307,-0.18374 1.1329,-0.12276 2.226,0.32331 0.93287,0.38068 1.03358,0.40685 1.39808,0.36332 0.21603,-0.0258 0.51193,-0.0796 0.65754,-0.11952 l 0.26475,-0.0726 -0.001,-0.41263 c -0.002,-0.84609 -0.395,-2.07666 -0.87678,-2.74636 -0.5845,-0.8125 -1.2518,-1.24917 -2.12268,-1.38906 -0.90471,-0.14532 -1.73557,0.0445 -2.49028,0.56897 -0.72244,0.50203 -1.27736,1.30987 -1.5089,2.19657 l -0.0896,0.34317 h -0.38401 -0.38402 l 0.0484,-1.6436 c 0.0266,-0.90397 0.0671,-1.79801 0.0901,-1.98676 l 0.0417,-0.34316 0.36155,-0.001 c 0.25947,-7.9e-4 0.33166,-0.0209 0.25566,-0.0711 -0.15272,-0.10099 -0.51667,-0.0881 -0.66598,0.0237 -0.0977,0.0731 -0.1415,0.24574 -0.18429,0.72609 -0.0309,0.3466 -0.0983,0.68223 -0.14992,0.74584 -0.0831,0.1024 -0.27309,0.11015 -1.6596,0.0676 l -1.5658,-0.048 -0.0789,0.3889 c -0.0545,0.26869 -0.0725,1.74852 -0.0582,4.78728 0.0193,4.08987 0.0298,4.417 0.14974,4.66372 0.16274,0.33472 0.44134,0.47204 1.17234,0.57782 l 0.56956,0.0824 2e-5,0.33191 2e-5,0.33191 -3.31822,-0.0195 -3.31822,-0.0195 v -0.31539 -0.31538 l 0.40595,-0.0493 c 0.98952,-0.12014 1.30301,-0.3251 1.43084,-0.93551 0.052,-0.2485 0.0702,-1.64915 0.0556,-4.30364 l -0.0215,-3.93524 -0.32089,0.43685 c -0.40164,0.54678 -0.82256,1.41195 -0.88581,1.82069 -0.0428,0.2763 -0.0316,0.31565 0.0992,0.35066 0.15412,0.0412 0.19102,0.16789 0.37317,1.28058 0.21697,1.32537 -0.30079,2.36443 -1.38944,2.78837 -0.60244,0.2346 -0.93457,0.25684 -1.20828,0.0809 -0.3724,-0.23934 -0.44161,-0.41927 -0.51985,-1.35138 -0.0974,-1.16093 -0.0866,-1.37337 0.11416,-2.24294 0.14344,-0.62121 0.16533,-0.85297 0.12778,-1.3528 -0.041,-0.54585 -0.0285,-0.64067 0.13132,-0.99795 0.11907,-0.26615 0.30713,-0.51009 0.57714,-0.74863 0.45142,-0.39882 1.45416,-1.51942 1.45416,-1.6251 0,-0.0417 -0.55924,-0.0691 -1.40952,-0.0691 -1.3643,0 -1.41208,0.005 -1.4897,0.15332 -0.0441,0.0843 -0.0623,0.24478 -0.0405,0.35657 0.0808,0.41356 -0.34089,1.55979 -0.76253,2.07256 l -0.18079,0.21988 0.003,3.349 c 0.002,1.84195 0.0298,3.49069 0.0625,3.66386 0.0693,0.36724 0.26088,0.65915 0.51691,0.78774 0.0998,0.0501 0.4385,0.12836 0.7526,0.17381 l 0.5711,0.0827 v 0.31456 0.31457 l -3.30055,-0.0188 -3.30056,-0.0188 v -0.28899 -0.28898 l 0.55786,-0.0939 c 0.74018,-0.12461 0.9949,-0.24262 1.1495,-0.53255 0.11939,-0.22388 0.12967,-0.55235 0.14887,-4.75585 0.0216,-4.73555 0.007,-5.0084 -0.28626,-5.32944 -0.17078,-0.18696 -0.73193,-0.37798 -1.11039,-0.37798 -0.36544,0 -0.51112,-0.13177 -0.48278,-0.43667 l 0.0232,-0.24967 0.97604,-0.009 0.97604,-0.009 0.0241,-0.40382 c 0.0341,-0.57108 0.3132,-1.05622 0.91755,-1.59464 0.66162,-0.58945 1.30586,-1.25912 1.50466,-1.56405 0.0893,-0.13698 0.31958,-0.49808 0.51173,-0.80245 0.27369,-0.43353 0.41681,-0.58681 0.66075,-0.70766 0.28906,-0.14319 0.34603,-0.1479 0.79437,-0.0657 0.27787,0.051 1.14258,0.0907 2.03618,0.0936 1.37975,0.004 1.58277,-0.0101 1.81795,-0.12968 0.2462,-0.12523 0.26475,-0.15705 0.26475,-0.45426 0,-0.19325 0.0991,-0.5822 0.2507,-0.98387 0.30827,-0.81682 0.37149,-1.21623 0.22819,-1.44156 -0.0575,-0.0905 -0.12618,-0.29451 -0.15258,-0.45345 -0.0264,-0.15894 -0.24069,-0.93919 -0.47621,-1.7339 -0.23552,-0.7947 -0.4909,-1.65623 -0.56751,-1.91451 -0.1705,-0.57483 -0.42852,-0.9939 -0.66969,-1.08774 -0.14484,-0.0564 -0.23269,-0.0377 -0.43837,0.0932 -0.24764,0.15759 -0.30462,0.16259 -1.52803,0.13417 -0.69894,-0.0162 -1.74735,-0.0325 -2.3298,-0.0361 -1.04296,-0.007 -1.06462,-0.003 -1.42986,0.20367 -0.33497,0.18992 -0.43746,0.2109 -1.059,0.21674 -0.79943,0.008 -1.05283,-0.0988 -1.37064,-0.57484 -0.41444,-0.62082 -0.51777,-0.90916 -0.51656,-1.44158 0.001,-0.64021 0.23169,-1.10145 0.83516,-1.67319 0.43448,-0.41163 0.62888,-0.51948 2.24508,-1.24558 1.03771,-0.46621 1.60114,-0.80348 1.92196,-1.15049 0.13359,-0.1445 0.32585,-0.24867 0.5648,-0.30602 0.4279,-0.10269 0.58912,-0.17862 0.80351,-0.37845 0.20393,-0.19007 0.20743,-0.0767 0.005,0.14436 -0.0872,0.0949 -0.37155,0.23412 -0.65305,0.31961 -0.38092,0.11569 -0.57884,0.22798 -0.83824,0.47558 -0.34652,0.33076 -1.60163,0.99607 -2.76683,1.46665 -0.89259,0.36048 -1.48975,0.87318 -1.80862,1.55282 -0.33282,0.70941 -0.26434,1.23363 0.27499,2.10488 0.29514,0.47677 0.51021,0.56885 1.32183,0.56593 0.55377,-0.002 0.68983,-0.0292 1.059,-0.21158 0.56133,-0.27733 1.2691,-0.31351 2.89737,-0.1481 1.33661,0.13579 1.83733,0.11103 2.26479,-0.11199 0.37215,-0.19415 0.60066,-0.17781 0.82218,0.0588 0.22094,0.23599 0.57724,1.01944 0.64879,1.4266 0.0279,0.15894 0.20356,0.77664 0.3903,1.37267 0.18673,0.59603 0.37779,1.27875 0.42458,1.51716 0.0468,0.23841 0.14674,0.55411 0.22212,0.70154 0.17636,0.34489 0.13577,0.71942 -0.15546,1.43454 -0.12119,0.29759 -0.23982,0.74639 -0.26608,1.00662 l -0.0474,0.46959 -0.32704,0.16613 c -0.44056,0.22378 -1.4428,0.27707 -2.92056,0.1553 -1.52065,-0.12531 -1.62465,-0.1226 -1.85265,0.0482 -0.10711,0.0803 -0.43642,0.51757 -0.73179,0.97182 -0.4328,0.6656 -0.71595,0.99772 -1.45868,1.71098 -1.12492,1.08028 -1.2553,1.30574 -1.1948,2.06607 0.0226,0.28417 0.073,0.6142 0.11195,0.73341 0.039,0.1192 0.18321,0.68556 0.32054,1.25858 0.57269,2.38944 1.14602,2.85883 2.11187,1.72898 0.5193,-0.60747 0.95704,-1.69094 0.85358,-2.11273 -0.0254,-0.1034 0.021,-0.3214 0.1169,-0.54947 0.19355,-0.46041 0.15591,-0.54479 -0.35588,-0.79767 -0.79388,-0.39227 -0.74907,-1.07177 0.12752,-1.93366 0.60981,-0.59959 0.68935,-0.62926 1.66904,-0.62261 0.91545,0.006 0.85089,-0.008 3.28871,0.73775 0.6439,0.19704 1.24753,0.40296 1.3414,0.45759 l 0.17069,0.0993 -0.2471,0.0183 c -0.53018,0.0393 -1.10548,0.24987 -1.5885,0.58154 -0.39196,0.26915 -0.53801,0.42289 -0.706,0.74318 -0.25717,0.49034 -1.14031,1.54389 -1.99912,2.38488 -0.54922,0.53783 -0.65153,0.67663 -0.76124,1.03278 -0.10731,0.34835 -0.11453,0.47105 -0.0471,0.80008 0.0673,0.32818 0.0578,0.49344 -0.0608,1.06235 -0.21751,1.04305 -0.2844,1.51674 -0.23193,1.64226 0.0265,0.0633 0.0724,0.46053 0.10196,0.88267 0.0606,0.86331 0.11899,1.02311 0.43533,1.19051 0.45934,0.24307 1.52741,-0.13566 1.97716,-0.7011 0.48335,-0.60767 0.56362,-1.13403 0.36646,-2.40308 -0.0911,-0.58655 -0.14642,-0.76121 -0.28148,-0.88931 -0.21004,-0.19919 -0.18112,-0.42584 0.14699,-1.1523 0.3967,-0.8783 0.9187,-1.58893 1.47815,-2.01231 1.10742,-0.83807 1.53656,-0.95031 3.28814,-0.86003 1.53987,0.0794 2.3824,0.0749 2.46814,-0.013 0.10368,-0.10636 0.18443,-1.07716 0.0843,-1.01385 -0.0448,0.0283 -0.0815,0.19476 -0.0815,0.36982 0,0.24044 -0.0333,0.33655 -0.13617,0.39287 -0.0886,0.0485 -0.61281,0.0588 -1.50025,0.0295 -2.03514,-0.0673 -3.2041,0.1263 -3.86928,0.64079 -0.16752,0.12957 -0.35543,0.26809 -0.41759,0.30782 -0.6658,0.42561 -1.29547,1.27642 -1.58629,2.14339 -0.21233,0.63298 -0.23911,1.10829 -0.073,1.29609 0.14518,0.16416 0.35817,0.99567 0.42029,1.64076 0.0448,0.46521 0.0332,0.5325 -0.15079,0.87851 -0.10961,0.20609 -0.29607,0.4585 -0.41435,0.5609 -0.3192,0.27636 -0.90621,0.52946 -1.3323,0.57447 -0.36353,0.0384 -0.37909,0.0327 -0.45607,-0.16776 -0.25957,-0.67587 -0.30821,-2.21561 -0.0901,-2.85076 0.2147,-0.6251 0.24661,-1.06031 0.116,-1.58203 -0.17029,-0.6802 -0.1218,-0.76955 1.02495,-1.88846 0.85896,-0.83812 1.04833,-1.06587 1.42711,-1.71643 0.72688,-1.24845 1.28665,-1.63296 2.53409,-1.74068 0.58196,-0.0503 0.87437,-0.12045 1.46861,-0.35254 0.80659,-0.31503 1.38457,-0.42936 1.59558,-0.31562 0.0734,0.0396 0.33585,0.0956 0.58322,0.12443 0.36436,0.0425 0.4437,0.0338 0.41775,-0.0459 -0.0463,-0.14235 -0.91584,-0.28889 -1.53822,-0.25923 -0.36426,0.0174 -0.69474,0.0896 -1.059,0.23161 -0.65873,0.25676 -1.36737,0.29609 -1.51891,0.0843 -0.0534,-0.0746 -0.34006,-0.2062 -0.6475,-0.29723 -0.30343,-0.0898 -0.91705,-0.27831 -1.36359,-0.41881 -0.99799,-0.314 -2.36239,-0.63112 -2.71539,-0.63112 -0.36961,0 -1.41093,0.56502 -1.83248,0.99429 -0.42693,0.43476 -0.54227,0.66449 -0.58577,1.16674 -0.0398,0.46004 0.0346,0.56644 0.61524,0.87867 0.50777,0.27309 0.51009,0.27626 0.35198,0.48195 -0.11293,0.14691 -0.14079,0.29637 -0.14328,0.76866 -0.004,0.74034 -0.0873,0.97388 -0.5939,1.66263 -0.40823,0.55505 -0.81282,0.91041 -1.03654,0.91041 -0.14626,0 -0.50688,-0.54618 -0.68838,-1.04258 -0.0747,-0.20431 -0.20456,-0.74416 -0.28857,-1.19966 -0.084,-0.45551 -0.21408,-1.03208 -0.28903,-1.28126 -0.0763,-0.25351 -0.13629,-0.66343 -0.13629,-0.93072 v -0.47766 l 1.1488,-1.20053 c 0.7369,-0.7701 1.29652,-1.42778 1.56082,-1.83432 0.22661,-0.34858 0.46562,-0.66313 0.53112,-0.69901 0.13967,-0.0765 0.54548,-0.0833 2.69634,-0.0456 1.53574,0.027 1.60819,0.0348 1.94468,0.20925 0.44471,0.23061 1.05174,0.78722 1.22676,1.12488 0.19324,0.3728 0.38954,0.60959 0.47882,0.57757 0.13025,-0.0467 -0.42074,-1.64089 -0.72151,-2.08751 l -0.26697,-0.39645 0.0316,-0.68633 c 0.0228,-0.49466 0.0745,-0.78503 0.18545,-1.03973 0.0846,-0.19436 0.1764,-0.33035 0.20392,-0.30219 0.0275,0.0282 0.16804,0.33348 0.31228,0.6785 0.24379,0.58312 0.41659,0.826 0.51561,0.72468 0.065,-0.0665 -0.1607,-0.69113 -0.50222,-1.39 -0.32451,-0.66406 -0.57441,-1.46206 -1.15628,-3.69235 -0.37221,-1.42669 -0.51043,-1.799 -0.83681,-2.25415 -0.31661,-0.44151 -0.64253,-0.5278 -1.19496,-0.31639 -0.39942,0.15285 -0.49745,0.15831 -2.45716,0.1367 l -2.04115,-0.0225 -0.6707,0.24432 c -1.06345,0.38741 -1.57595,0.31118 -2.02272,-0.30085 -0.45653,-0.6254 -0.5055,-1.38679 -0.13704,-2.13071 0.28692,-0.5793 0.59886,-0.89669 1.03016,-1.04816 0.65204,-0.229 2.30385,-0.94614 2.56001,-1.11143 0.14603,-0.0942 0.43889,-0.33201 0.6508,-0.52839 0.29755,-0.27574 0.49977,-0.39263 0.88801,-0.5133 0.85162,-0.2647 0.96725,-0.46815 1.05456,-1.85538 0.0323,-0.51246 0.0924,-0.93145 0.14264,-0.99338 0.15518,-0.19134 0.33419,-0.11516 0.59997,0.25535 0.28314,0.3947 0.43188,0.50456 0.68282,0.50433 0.15633,-1.4e-4 0.16247,0.0201 0.14015,0.462 l -0.0233,0.46216 -0.37471,0.0479 c -0.78701,0.10062 -0.79698,0.41596 -0.013,0.4098 l 0.46399,-0.004 0.15307,0.42961 c 0.22559,0.63312 0.29039,0.6571 0.59669,0.2208 0.14165,-0.20175 0.2876,-0.36683 0.32433,-0.36683 0.10426,0 0.64568,0.29132 0.80247,0.43179 0.0777,0.0696 0.36359,0.25862 0.6354,0.4201 1.08369,0.64383 3.08563,2.46116 4.15499,3.77184 0.27556,0.33775 0.74953,0.86731 1.05326,1.17681 0.57467,0.58557 0.7198,0.81966 0.60145,0.97008 -0.13572,0.17248 -0.0203,0.22403 0.27296,0.12186 0.2824,-0.0984 0.31432,-0.0931 0.8472,0.14024 1.28512,0.56275 2.04713,0.92617 2.20948,1.05378 l 0.17314,0.13608 -0.27904,0.0749 c -0.15347,0.0412 -0.5961,0.11021 -0.98363,0.15339 -0.38752,0.0432 -0.73372,0.10831 -0.76933,0.14475 -0.0393,0.0402 0.0354,0.1267 0.18961,0.21981 0.28368,0.17128 0.35916,0.32906 0.29079,0.60784 -0.0445,0.18136 -0.0389,0.18528 0.15521,0.10974 0.11074,-0.0431 0.297,-0.1375 0.41393,-0.20981 0.11692,-0.0723 0.62388,-0.34989 1.12658,-0.61685 1.26619,-0.67242 2.18542,-1.40487 2.90227,-2.31257 0.49112,-0.62187 0.64738,-0.93564 0.97146,-1.95064 0.30754,-0.96323 0.50595,-1.86501 0.61196,-2.78147 0.0437,-0.37748 0.12823,-0.78386 0.18792,-0.90307 0.0597,-0.1192 0.15687,-0.37925 0.21596,-0.57787 0.27386,-0.92058 1.02031,-2.37459 1.31607,-2.56361 0.12821,-0.0819 0.1342,-0.0719 0.0905,0.15189 -0.0258,0.1318 -0.12522,0.44015 -0.22103,0.68522 -0.23272,0.59526 -0.35262,1.1774 -0.26167,1.27047 0.17048,0.17445 0.49431,-0.17915 1.11295,-1.21529 0.27529,-0.46108 0.56853,-0.80475 1.23986,-1.4531 2.10311,-2.03112 3.28608,-3.02909 3.4237,-2.88827 0.10412,0.10655 -0.2341,0.55607 -1.09834,1.45978 -0.79207,0.82825 -0.99578,1.08365 -1.06049,1.32957 -0.0895,0.34007 -0.0441,0.58627 0.10803,0.58627 0.0554,0 0.35799,-0.2357 0.67248,-0.52378 1.30278,-1.19341 2.13151,-1.79893 3.27681,-2.39424 0.85077,-0.44222 1.2355,-0.571 1.2355,-0.41357 0,0.10428 -0.88086,0.91621 -1.57677,1.4534 -0.69503,0.5365 -1.10603,1.05729 -1.10603,1.40147 0,0.19657 0.0123,0.2046 0.25193,0.1648 0.13857,-0.023 0.43223,-0.16429 0.65259,-0.31396 0.94107,-0.63921 4.15793,-1.50686 4.35808,-1.17546 0.0733,0.12129 -0.14987,0.25192 -1.0972,0.64233 -1.16259,0.47913 -2.02988,0.93281 -2.19574,1.14858 -0.15229,0.19813 -0.17769,0.44406 -0.0458,0.44359 0.0485,-1.4e-4 0.80307,-0.16764 1.67675,-0.37214 1.52169,-0.35619 1.92976,-0.42222 2.02254,-0.32728 0.0907,0.0928 -0.0537,0.27181 -0.30832,0.3822 -0.1468,0.0636 -0.40989,0.19018 -0.58462,0.28118 -0.17474,0.091 -0.66717,0.30412 -1.0943,0.47359 -0.8247,0.32721 -1.34356,0.72344 -1.29239,0.98693 0.0338,0.17405 0.22889,0.14072 0.99358,-0.16973 0.93311,-0.37882 2.35911,-0.6337 2.63919,-0.47171 0.11255,0.0651 0.0649,0.10613 -0.34438,0.29662 -0.26125,0.12159 -0.51709,0.22108 -0.56854,0.22108 -0.186,0 -1.21944,0.56368 -1.37451,0.74972 -0.19977,0.23966 -0.19898,0.30373 0.005,0.4408 0.13836,0.0928 0.25261,0.0981 0.72365,0.0337 0.65186,-0.0891 1.62061,-0.0651 1.61336,0.0401 -0.003,0.0397 -0.33632,0.24108 -0.7413,0.44743 -0.8499,0.43305 -1.32105,0.86527 -1.19854,1.09951 0.0398,0.076 0.20769,0.18441 0.37316,0.24084 0.44877,0.15302 0.42502,0.28439 -0.15156,0.83814 -0.55584,0.53383 -0.60789,0.69458 -0.35975,1.11106 0.20779,0.34873 0.17986,0.74408 -0.0964,1.36424 -0.13081,0.29368 -0.25728,0.68839 -0.28106,0.87715 -0.0675,0.5359 -0.41308,1.35963 -0.86217,2.05513 -0.45106,0.69855 -1.751,2.08325 -2.32545,2.47708 -0.19415,0.13311 -0.49597,0.38604 -0.6707,0.56208 l -0.3177,0.32006 0.4942,-0.30591 c 0.54082,-0.33478 1.59409,-1.08872 2.2592,-1.61716 0.57509,-0.45693 1.60323,-1.49589 1.73131,-1.74955 0.0574,-0.11359 0.17255,-0.26319 0.25597,-0.33244 0.0868,-0.072 0.18953,-0.28837 0.24016,-0.50572 0.0487,-0.2089 0.13068,-0.44628 0.18227,-0.52751 0.0516,-0.0812 0.15334,-0.39149 0.2261,-0.68947 0.15422,-0.6315 0.21467,-0.76087 0.46952,-1.00484 0.17903,-0.17138 0.18606,-0.20423 0.14133,-0.66 -0.0434,-0.44239 -0.0322,-0.50264 0.14431,-0.77558 0.26512,-0.40996 0.30367,-0.85126 0.11009,-1.26045 -0.2031,-0.42934 -0.11687,-0.61541 0.45708,-0.98635 0.63691,-0.41162 0.75389,-0.61028 0.74429,-1.26395 -0.005,-0.348 0.0406,-0.68877 0.13263,-0.98928 0.1806,-0.58957 0.18151,-0.57644 -0.0807,-1.15856 -0.19932,-0.44252 -0.213,-0.51394 -0.12913,-0.6743 0.084,-0.16052 0.0766,-0.19808 -0.0698,-0.35761 -0.09,-0.098 -0.27812,-0.21572 -0.41802,-0.2615 -0.28658,-0.0938 -0.57207,-0.33116 -0.57207,-0.47565 0,-0.0528 0.0635,-0.21735 0.1412,-0.36563 0.19008,-0.36292 0.17832,-0.49772 -0.0652,-0.74688 -0.18537,-0.18969 -0.25264,-0.21118 -0.66106,-0.21118 -0.25009,0 -0.62373,0.0328 -0.83031,0.0729 -0.52088,0.10108 -1.12041,0.10648 -1.21379,0.0109 -0.1,-0.10231 -0.009,-0.31465 0.33018,-0.76911 0.7283,-0.97637 -0.22704,-1.11521 -2.25188,-0.32727 -0.41417,0.16116 -0.77896,0.27663 -0.81065,0.25658 -0.0317,-0.02 -0.0418,-0.17998 -0.0225,-0.35541 0.0316,-0.28736 0.0158,-0.3319 -0.15964,-0.44956 -0.50629,-0.33947 -1.41634,0.0665 -2.72875,1.2173 -0.65304,0.57261 -1.48882,1.42 -1.90621,1.93267 l -0.3232,0.39698 -0.25831,-0.12605 c -0.42801,-0.20887 -0.68237,-0.167 -1.06178,0.17475 -0.90691,0.8169 -1.5227,2.09797 -1.9086,3.97064 -0.49014,2.37844 -0.9984,4.04212 -1.31333,4.29891 -0.23308,0.19005 -0.41287,0.18424 -0.69468,-0.0225 -0.36289,-0.26618 -0.45789,-0.44272 -0.63478,-1.17958 -0.14712,-0.61284 -0.35789,-0.93843 -0.6075,-0.93843 -0.15617,0 -0.24565,-0.24504 -0.24565,-0.67274 0,-0.45003 -0.0296,-0.48646 -0.56566,-0.69619 -0.21309,-0.0834 -0.45122,-0.20772 -0.52918,-0.27633 -0.20978,-0.18466 -0.62052,-0.72979 -0.82886,-1.10008 -0.26169,-0.46512 -0.68745,-0.88882 -1.0856,-1.08035 -0.29738,-0.14305 -0.41622,-0.15988 -0.8737,-0.12375 -0.66196,0.0523 -0.79265,-0.004 -1.3715,-0.5901 -0.38691,-0.39179 -0.53133,-0.48537 -1.00352,-0.65021 l -0.55156,-0.19256 -0.0941,-0.34354 c -0.11162,-0.40742 -0.27707,-0.51784 -0.94114,-0.6281 -0.77873,-0.12931 -0.90772,-0.10633 -1.51566,0.26992 -1.04451,0.64643 -1.74933,0.86728 -2.00683,0.62881 -0.20145,-0.18656 -0.7629,-0.10783 -1.0287,0.14426 -0.30355,0.28787 -0.58237,0.23011 -0.79452,-0.1646 -0.34975,-0.65073 -0.7541,-0.66685 -0.9562,-0.0381 -0.0615,0.19146 -0.14652,0.67321 -0.18885,1.07057 -0.0423,0.39735 -0.11055,0.75496 -0.15163,0.7947 -0.0523,0.0506 -0.0599,-0.036 -0.0253,-0.28898 0.0272,-0.19868 0.0784,-0.58306 0.11377,-0.85417 0.0354,-0.27112 0.10238,-0.62282 0.14885,-0.78155 0.0838,-0.28605 0.34438,-0.56778 0.52524,-0.56778 0.14889,0 0.59001,0.43209 0.63709,0.62404 0.0875,0.3566 0.39222,0.37109 0.69133,0.0329 0.10639,-0.1203 0.21733,-0.15118 0.54304,-0.15118 0.22514,0 0.49019,0.0377 0.58902,0.0838 0.30194,0.14078 0.85051,-0.0385 1.72239,-0.56283 l 0.78762,-0.47368 0.61763,0.0839 c 0.33969,0.0461 0.75094,0.14412 0.91389,0.21773 0.25486,0.11514 0.30963,0.18073 0.39183,0.46923 0.0926,0.32485 0.10986,0.3405 0.55094,0.49871 0.65035,0.23326 0.77199,0.3099 1.1101,0.6994 0.43906,0.50578 0.64353,0.59012 1.29059,0.53236 0.50038,-0.0447 0.55974,-0.0341 0.95324,0.17039 0.50217,0.26089 0.65527,0.42323 1.22512,1.29904 0.45758,0.70327 0.82664,1.04264 1.28747,1.18393 0.39443,0.12093 0.51367,0.29456 0.55455,0.80753 0.0346,0.43369 0.0416,0.44658 0.33483,0.61173 0.31705,0.17857 0.32185,0.1892 0.57737,1.27734 0.12582,0.5358 0.56055,0.95847 0.89695,0.87207 0.3376,-0.0867 0.83434,-1.44336 1.19782,-3.27136 0.52237,-2.62715 1.06702,-3.96471 1.99144,-4.89064 0.57566,-0.5766 0.83691,-0.66077 1.31968,-0.42519 l 0.25127,0.12262 0.22489,-0.28517 c 0.73188,-0.92806 2.10998,-2.21688 3.00146,-2.80702 0.8968,-0.59366 1.45442,-0.70035 1.85548,-0.35502 0.19822,0.17068 0.22053,0.22623 0.18863,0.4696 -0.036,0.27488 0.0472,0.3617 0.20102,0.2098 0.13572,-0.13398 1.8453,-0.66632 2.2703,-0.70693 0.4976,-0.0476 0.7639,0.0701 0.83745,0.36998 0.0494,0.20158 -0.0393,0.39432 -0.37671,0.81777 -0.26063,0.32713 -0.26466,0.52459 -0.0107,0.52459 0.0833,0 0.53699,-0.0524 1.00826,-0.11648 1.04318,-0.14182 1.38202,-0.0821 1.60413,0.28271 0.16424,0.26976 0.13848,0.53617 -0.0826,0.85384 -0.18732,0.2692 -0.13759,0.33641 0.46801,0.63243 0.48552,0.23733 0.70183,0.50873 0.53859,0.67578 -0.13036,0.1334 -0.099,0.31641 0.129,0.7537 0.11649,0.22339 0.2118,0.45022 0.2118,0.50407 0,0.0539 -0.0691,0.30123 -0.1535,0.54974 -0.10603,0.31208 -0.15516,0.63453 -0.15885,1.04256 -0.006,0.70449 -0.0808,0.8365 -0.74658,1.32378 -0.60236,0.44088 -0.6308,0.49837 -0.44258,0.89481 0.1891,0.3983 0.13966,0.86841 -0.1433,1.36249 -0.15876,0.27722 -0.17609,0.36083 -0.11786,0.5686 0.1289,0.45992 0.0878,0.64554 -0.20476,0.92392 -0.23707,0.2256 -0.28395,0.32476 -0.35599,0.75293 -0.0456,0.27121 -0.16137,0.64508 -0.2572,0.83082 -0.0958,0.18575 -0.20785,0.47951 -0.24894,0.6528 -0.0411,0.1733 -0.14453,0.38462 -0.22986,0.4696 -0.0853,0.085 -0.24729,0.2941 -0.35989,0.4647 -0.56088,0.84973 -3.08728,2.83614 -4.5938,3.61193 -0.99231,0.51099 -2.68075,0.94935 -2.87824,0.74726 -0.0595,-0.0609 -0.0245,-0.0818 0.13677,-0.0818 0.45205,0 1.47543,-0.22962 1.97847,-0.44392 0.28777,-0.12259 0.51363,-0.23249 0.50191,-0.24421 -0.0117,-0.0117 -0.24662,0.054 -0.522,0.14599 -1.00083,0.33442 -1.81795,0.42528 -3.91181,0.43501 -2.76594,0.0128 -3.04679,0.11989 -3.75934,1.43294 -0.0935,0.17239 -0.12317,0.39367 -0.12233,0.91381 0.002,1.10817 0.11841,1.49879 0.94957,3.18109 0.40892,0.82768 0.7435,1.52173 0.7435,1.54233 0,0.0206 -0.22647,-0.0939 -0.50327,-0.25436 -0.94915,-0.55038 -2.55132,-0.83425 -4.29753,-0.76142 -1.01634,0.0424 -1.3701,0.12487 -2.06941,0.48247 -0.23328,0.11929 -0.43671,0.21688 -0.45206,0.21688 -0.0154,0 -0.10552,-0.17958 -0.20038,-0.39908 -0.18949,-0.43845 -0.34307,-0.54011 -0.81596,-0.54011 -0.30452,0 -0.6276,0.24582 -0.6276,0.47751 0,0.11444 0.009,0.11466 0.12911,0.003 0.0846,-0.0784 0.25321,-0.11957 0.48916,-0.11957 0.38542,0 0.50789,0.0774 0.68871,0.4352 0.0569,0.11263 0.16651,0.22524 0.24354,0.25027 0.0804,0.0261 0.46668,-0.0626 0.90647,-0.20805 1.29331,-0.42784 2.24195,-0.50464 3.66915,-0.29703 1.32108,0.19217 1.99131,0.45656 2.72236,1.0739 0.52113,0.44007 0.61191,0.48041 0.61191,0.2719 0,-0.19278 -0.62661,-1.55069 -0.74781,-1.62056 -0.0556,-0.032 -0.18144,-0.22062 -0.27972,-0.41908 -0.25871,-0.52245 -0.94449,-2.36769 -0.99295,-2.67178 -0.10276,-0.64468 0.26871,-1.94032 0.66794,-2.32972 0.18012,-0.17568 0.57775,-0.3444 1.04202,-0.44213 0.32084,-0.0675 3.70701,-0.0981 3.68377,-0.0332 -0.0109,0.0303 -0.86411,0.0719 -1.89611,0.0925 -1.24021,0.0247 -1.98139,0.0694 -2.18616,0.13194 -0.71992,0.21973 -1.16333,1.05702 -1.15958,2.18968 0.002,0.59472 0.0297,0.72421 0.32478,1.51716 0.42544,1.14318 0.74869,1.82704 0.90378,1.91198 0.0693,0.038 0.19759,0.241 0.28506,0.45119 0.0875,0.2102 0.21591,0.51222 0.28541,0.67116 0.34404,0.78674 0.10561,0.99037 -0.52292,0.4466 -0.45996,-0.39794 -1.03256,-0.72679 -1.52068,-0.87332 -0.62567,-0.18784 -0.6456,-0.12588 -0.0401,0.12476 1.80898,0.74882 3.23664,2.326 3.6686,4.05278 0.1918,0.76674 0.26646,1.90149 0.17935,2.72579 -0.1064,1.00682 -0.23518,1.48536 -0.59797,2.22207 -0.87381,1.77442 -2.56209,2.95456 -4.65235,3.25206 -0.63452,0.0903 -2.14508,0.0892 -2.76303,-0.002 z m -8.14157,-11.78383 c 0.017,-0.12028 0.0928,-0.17707 0.30497,-0.22823 l 0.2824,-0.0681 -0.2824,-0.0809 c -0.24609,-0.0705 -0.28766,-0.11317 -0.32328,-0.33167 -0.0404,-0.24801 -0.10094,-0.2034 -0.14989,0.11048 -0.0156,0.0998 -0.10638,0.16574 -0.29374,0.21322 l -0.2712,0.0687 0.27195,0.0778 c 0.19773,0.0566 0.27811,0.12161 0.29452,0.23832 0.0291,0.20726 0.13749,0.20752 0.16667,3.6e-4 z m 6.5612,0.0278 c 0.0926,-0.0728 0.31133,-0.21877 0.48607,-0.32443 0.34904,-0.21105 0.30131,-0.25455 -0.0939,-0.0856 -0.31972,0.13671 -0.53651,0.06 -0.74726,-0.26454 -0.0958,-0.14748 -0.14329,-0.18474 -0.12265,-0.0962 0.0185,0.0795 0.0714,0.31517 0.11749,0.52378 0.0461,0.20861 0.10812,0.37929 0.13784,0.37929 0.0297,0 0.1298,-0.0595 0.22241,-0.13231 z m -8.54332,-0.93469 c 0.37116,-0.43915 1.1482,-0.8918 1.70991,-0.9961 0.14851,-0.0276 0.24382,-0.0756 0.2118,-0.10682 -0.032,-0.0312 -0.4077,-0.15827 -0.83483,-0.28243 -0.42713,-0.12415 -1.11208,-0.3377 -1.52212,-0.47454 -0.97773,-0.3263 -1.92731,-0.45041 -2.49887,-0.3266 -0.36616,0.0793 -0.47868,0.14826 -0.87211,0.5344 -0.77358,0.75927 -0.93008,1.35346 -0.44441,1.68727 0.23515,0.16161 0.27787,0.16487 2.16071,0.16487 h 1.92083 z m 5.22973,-0.68496 c 0.0251,-0.18068 0.28581,-0.24702 1.08156,-0.27522 l 0.4236,-0.015 -0.353,-0.0563 c -0.19415,-0.0309 -0.51822,-0.0591 -0.72015,-0.0626 -0.27147,-0.005 -0.38539,-0.0393 -0.43717,-0.13276 -0.0644,-0.11636 -0.0774,-0.11705 -0.16236,-0.009 -0.0508,0.0648 -0.18763,0.14117 -0.30412,0.16978 l -0.2118,0.052 0.2471,0.0831 c 0.17105,0.0575 0.25404,0.13312 0.26966,0.24564 0.0124,0.0894 0.0499,0.16255 0.0833,0.16255 0.0334,0 0.0709,-0.0731 0.0833,-0.16255 z m -9.79085,-1.71584 c 0,-0.12906 -0.0428,-0.18686 -0.14986,-0.20249 -0.16356,-0.0239 -0.25976,0.13383 -0.19194,0.31468 0.0703,0.18743 0.3418,0.0983 0.3418,-0.11219 z m 4.39981,-1.21044 c 0.0281,-0.20223 -0.16923,-0.29601 -0.31307,-0.14881 -0.14127,0.14456 -0.0499,0.36138 0.1406,0.33357 0.0933,-0.0136 0.1584,-0.0834 0.17247,-0.18476 z m 17.51732,-4.57323 c 0.079,-0.6435 0.15599,-0.71822 0.74133,-0.71908 0.23526,-3.6e-4 0.60249,-0.0232 0.81605,-0.0509 0.34525,-0.0447 0.36482,-0.0557 0.1765,-0.0992 -0.11649,-0.0269 -0.4183,-0.0531 -0.6707,-0.0583 -0.25239,-0.005 -0.57518,-0.029 -0.71731,-0.0531 l -0.25841,-0.0437 -0.0416,-0.49733 c -0.0229,-0.27352 -0.0638,-0.73302 -0.0909,-1.0211 l -0.0493,-0.52378 -0.057,0.57797 c -0.0314,0.31788 -0.0749,0.77795 -0.0968,1.02238 -0.0446,0.49724 -0.0776,0.52377 -0.66548,0.53499 -0.17473,0.003 -0.37975,0.0309 -0.45559,0.0613 -0.11677,0.0467 -0.1019,0.0626 0.0971,0.10329 0.12923,0.0265 0.36602,0.0486 0.52619,0.0492 0.16018,5.7e-4 0.33346,0.0285 0.38508,0.062 0.0774,0.0502 0.21246,0.757 0.22154,1.15906 0.006,0.25059 0.0796,-0.0166 0.13933,-0.50371 z m -11.05098,-1.46831 c 0.0491,-0.26811 0.19934,-0.33303 0.77403,-0.3346 0.16018,-4.4e-4 0.41831,-0.0241 0.57363,-0.0525 0.23917,-0.0438 0.16364,-0.0631 -0.49333,-0.12563 l -0.77573,-0.0739 -0.0498,-0.28898 c -0.0274,-0.15894 -0.0516,-0.49218 -0.0538,-0.74052 -0.005,-0.54554 -0.14266,-0.61125 -0.15145,-0.0722 -0.003,0.20861 -0.0272,0.54169 -0.053,0.74017 l -0.0468,0.36088 -0.353,0.0806 c -0.37647,0.0859 -0.3766,0.0858 0.2087,0.20969 0.13149,0.0278 0.18459,0.0977 0.21966,0.28898 0.0586,0.31948 0.14308,0.3229 0.20078,0.008 z m 19.52717,-1.22915 c 0,-0.20946 -0.15306,-0.28435 -0.32231,-0.15771 -0.16986,0.1271 -0.0815,0.33059 0.14359,0.33059 0.14143,0 0.17872,-0.0361 0.17872,-0.17288 z m -18.56781,-0.0722 c 0,-0.21208 -0.17067,-0.29236 -0.31266,-0.14706 -0.14199,0.1453 -0.0635,0.31995 0.14371,0.31995 0.13113,0 0.16895,-0.0387 0.16895,-0.17289 z m -0.26339,-1.21784 c 0.0539,-0.1581 -0.0289,-0.27093 -0.1989,-0.27093 -0.18763,0 -0.2745,0.10267 -0.21688,0.25632 0.0481,0.12831 0.37313,0.13973 0.41578,0.0146 z m -3.19601,-1.32875 c 0.25239,-0.0454 0.44301,-0.0896 0.4236,-0.0982 -0.0194,-0.009 -0.22483,-0.0528 -0.45646,-0.0981 -0.39239,-0.0768 -0.42495,-0.0985 -0.47655,-0.31723 -0.0305,-0.12914 -0.0823,-0.34046 -0.11512,-0.4696 l -0.0597,-0.2348 -0.0552,0.36123 c -0.0823,0.53871 -0.13471,0.60319 -0.53421,0.65742 -0.48164,0.0654 -0.49616,0.14711 -0.0366,0.20587 0.43593,0.0557 0.49439,0.10809 0.56885,0.50938 l 0.0536,0.28898 0.11444,-0.36123 0.11443,-0.36123 z m 13.75958,0.23615 c 0.11762,-0.14503 0.0173,-0.34599 -0.15969,-0.32002 -0.17336,0.0254 -0.24387,0.26496 -0.10458,0.35529 0.13086,0.0849 0.17121,0.0795 0.26427,-0.0353 z m -11.93601,-0.0995 c 0.093,-0.18496 0.0243,-0.30705 -0.17257,-0.30705 -0.20292,0 -0.29184,0.17291 -0.16766,0.32603 0.11669,0.14388 0.26247,0.13575 0.34023,-0.019 z m 21.32054,-0.86727 c 0.0287,-0.20708 -0.17017,-0.29505 -0.32013,-0.14159 -0.14997,0.15346 -0.064,0.357 0.13836,0.32759 0.10251,-0.0149 0.16721,-0.0811 0.18177,-0.186 z m -32.76036,-0.56564 c 0.58901,-0.0888 0.65511,-0.14994 0.22644,-0.2095 -0.56564,-0.0786 -0.61148,-0.11912 -0.66918,-0.5917 -0.0564,-0.46151 -0.13117,-0.41181 -0.20882,0.13869 -0.0517,0.36631 -0.0272,0.34818 -0.6399,0.47457 l -0.2824,0.0583 0.4185,0.10399 c 0.3673,0.0913 0.42629,0.13051 0.48215,0.32073 0.1265,0.43081 0.14221,0.43693 0.24205,0.0943 0.0959,-0.32925 0.10857,-0.34067 0.43116,-0.3893 z m 30.23071,0.15146 c 0.1258,-0.15511 0.0327,-0.34073 -0.15707,-0.31304 -0.18094,0.0264 -0.25678,0.26386 -0.11388,0.35654 0.13235,0.0858 0.1711,0.0796 0.27095,-0.0435 z m -26.10503,-2.33085 c 0.0394,-0.0497 0.14531,-0.0903 0.23534,-0.0903 0.09,0 0.18333,-0.0325 0.20732,-0.0722 0.0252,-0.0417 -0.0416,-0.0722 -0.15821,-0.0722 -0.2486,0 -0.37129,-0.11698 -0.37129,-0.35401 0,-0.22485 -0.11954,-0.11751 -0.15287,0.13727 -0.019,0.14502 -0.0691,0.1851 -0.25442,0.20336 -0.26224,0.0258 -0.24102,0.15787 0.0254,0.15787 0.096,0 0.18944,0.0488 0.20764,0.10837 0.10433,0.34176 0.12389,0.36867 0.1575,0.21674 0.0176,-0.0795 0.0642,-0.18513 0.10362,-0.2348 z m 1.32516,-0.83151 0.3883,-0.23412 -0.4942,-0.0454 c -0.27181,-0.0249 -0.6723,-0.0696 -0.88999,-0.0993 -0.25714,-0.0351 -0.4859,-0.0236 -0.65305,0.0329 -0.30599,0.10334 -0.34999,0.25721 -0.0564,0.19712 0.14085,-0.0288 0.3255,0.0224 0.61775,0.17131 0.22928,0.11683 0.48041,0.21224 0.55807,0.21202 0.0777,-2.2e-4 0.31593,-0.10576 0.5295,-0.23453 z m 23.10246,-1.91383 c 0.0394,-0.0497 0.16307,-0.0903 0.2748,-0.0903 0.11174,0 0.20316,-0.0325 0.20316,-0.0722 0,-0.0397 -0.0934,-0.0722 -0.20764,-0.0722 -0.22944,0 -0.28567,-0.0614 -0.35812,-0.39105 l -0.049,-0.22304 -0.0515,0.21674 c -0.0904,0.3802 -0.10264,0.39735 -0.2846,0.39735 -0.0983,0 -0.17872,0.0325 -0.17872,0.0722 0,0.0397 0.0811,0.0722 0.18018,0.0722 0.13941,0 0.19869,0.0531 0.26204,0.2348 0.0667,0.19128 0.0871,0.20802 0.10982,0.0903 0.0154,-0.0795 0.0602,-0.18513 0.0996,-0.2348 z m 7.18496,32.37674 c -0.81205,-0.22233 -1.359,-0.71202 -1.88802,-1.69033 -0.11817,-0.21854 -0.44057,-0.97554 -0.71644,-1.68223 -0.61616,-1.5784 -0.72053,-1.7902 -1.07733,-2.1863 -0.35416,-0.39319 -0.75055,-0.55139 -1.41418,-0.56443 l -0.51673,-0.0102 v 2.27575 c 0,2.00887 0.0141,2.30213 0.12044,2.5008 0.1576,0.29449 0.48284,0.44483 1.18089,0.54585 l 0.56957,0.0824 v 0.31385 0.31385 h -3.3182 -3.31821 v -0.31385 -0.31385 l 0.56957,-0.0824 c 0.69805,-0.10102 1.02329,-0.25136 1.18089,-0.54585 0.11003,-0.20561 0.12044,-0.63099 0.12044,-4.92104 0,-4.03071 -0.015,-4.72636 -0.1059,-4.91047 -0.1368,-0.27709 -0.56931,-0.52267 -1.02013,-0.57924 -0.75695,-0.095 -0.74487,-0.0881 -0.74487,-0.42417 v -0.30336 h 3.31821 3.3182 v 0.30336 c 0,0.33528 0.0231,0.32198 -0.73965,0.42543 -0.47459,0.0644 -0.85524,0.2756 -1.00625,0.55838 -0.10915,0.20441 -0.12788,0.48372 -0.1477,2.20279 l -0.0227,1.9687 h 0.62764 c 1.50566,0 1.83798,-0.32318 2.89048,-2.81092 0.68341,-1.61533 1.14297,-2.22369 1.98811,-2.63181 0.41712,-0.20142 0.54057,-0.22686 1.10498,-0.22766 0.54861,-7.8e-4 0.67794,0.0238 0.94685,0.17971 0.44158,0.25608 0.5915,0.49528 0.62723,1.00079 0.0578,0.81737 -0.35808,1.27679 -1.15048,1.27102 -0.33425,-0.002 -0.51625,-0.0519 -0.86284,-0.23437 -0.24158,-0.12721 -0.51846,-0.2313 -0.61529,-0.2313 -0.29117,0 -0.62705,0.37572 -0.91652,1.02522 -0.8666,1.9445 -1.24232,2.55861 -1.76402,2.88327 -0.19045,0.11852 -0.19747,0.13545 -0.0734,0.17693 0.40656,0.13589 1.16965,0.56831 1.47925,0.83825 0.65417,0.57037 1.44442,1.64842 2.15269,2.93665 0.44825,0.8153 0.66773,1.12729 0.91059,1.29436 0.38967,0.26807 0.77608,0.20578 1.0978,-0.17697 l 0.15233,-0.18121 0.29634,0.15471 c 0.16299,0.0851 0.29634,0.17159 0.29634,0.19224 0,0.0206 -0.062,0.16194 -0.13782,0.31399 -0.30711,0.61601 -0.83649,1.067 -1.48313,1.26351 -0.47258,0.14361 -1.38471,0.14366 -1.90905,7e-5 z m -18.21282,-24.1262 c -0.13481,-0.0974 -0.28572,-0.17707 -0.33535,-0.17707 -0.25745,0 -0.0189,-0.14064 0.55909,-0.32958 0.64922,-0.21223 1.25687,-0.54112 1.25687,-0.68027 0,-0.11872 -0.36878,-0.0854 -0.8185,0.0739 -0.59563,0.21101 -1.31142,0.2893 -1.92351,0.2104 -0.46077,-0.0594 -0.69133,-0.13721 -1.62788,-0.54934 -0.32353,-0.14238 -0.22915,-0.2147 0.49041,-0.37581 0.79081,-0.17707 3.02747,-1.26812 2.88937,-1.40945 -0.0202,-0.0207 -0.2267,0.0443 -0.45879,0.14441 -0.2321,0.10014 -0.54908,0.21222 -0.7044,0.24907 -0.15532,0.0369 -0.35388,0.0836 -0.44125,0.10391 -0.0874,0.0203 -0.15885,0.006 -0.15885,-0.0318 0,-0.0503 0.98611,-0.94518 1.33552,-1.212 0.10592,-0.0809 -0.0884,-0.0718 -0.38826,0.0182 -0.22982,0.0689 -0.56274,0.2753 -0.95053,0.58918 -0.94652,0.76612 -2.13904,1.16502 -2.86285,0.95764 -0.37687,-0.10797 -0.65543,-0.37606 -1.34916,-1.29847 -0.25402,-0.33775 -0.76767,-0.91106 -1.14144,-1.27402 l -0.67958,-0.65994 0.3177,-0.0808 c 1.32989,-0.33811 1.69845,-0.46876 2.02924,-0.71939 0.19171,-0.14524 0.50071,-0.37203 0.68669,-0.50398 0.21325,-0.1513 0.3134,-0.26521 0.27116,-0.30844 -0.0787,-0.0806 -0.45323,0.0427 -1.01532,0.33425 -0.57465,0.29805 -1.27525,0.52308 -1.88529,0.60555 -0.78251,0.10579 -1.07488,0.12731 -1.07488,0.0791 0,-0.0796 0.59805,-0.51269 0.95441,-0.69111 0.29205,-0.14622 0.53368,-0.1918 1.34232,-0.25325 0.817,-0.0621 1.10571,-0.11715 1.68306,-0.32104 0.7271,-0.25678 0.80293,-0.2953 0.7294,-0.37054 -0.0245,-0.0251 -0.16482,0.0143 -0.31182,0.0874 -0.28744,0.14302 -0.85578,0.16631 -2.64199,0.10829 -0.8556,-0.0278 -0.90477,-0.0214 -1.20099,0.15625 -0.16988,0.10188 -0.45148,0.31998 -0.62578,0.48468 l -0.31691,0.29945 0.46508,-0.29145 c 0.81845,-0.51289 1.1968,-0.5879 2.25302,-0.44669 l 0.4589,0.0614 -0.40893,0.01 c -0.507,0.0123 -1.40376,0.19606 -1.77967,0.36477 -0.15532,0.0697 -0.38736,0.24906 -0.51564,0.39858 l -0.23324,0.27184 -0.64926,-0.41607 c -0.69853,-0.44764 -0.89636,-0.59947 -0.89636,-0.68791 0,-0.10244 1.57962,-0.55868 2.07769,-0.60009 0.26906,-0.0224 0.51987,-0.0721 0.55736,-0.11043 0.12085,-0.12366 -0.28614,-0.17064 -1.15943,-0.13384 -0.46212,0.0195 -0.84022,0.0245 -0.84022,0.0111 0,-0.0687 0.62198,-0.33005 1.36416,-0.57312 0.98742,-0.32339 0.97184,-0.43651 -0.0515,-0.37399 -0.89435,0.0547 -1.6393,0.31745 -2.26122,0.7977 -0.26709,0.20626 -0.52785,0.40707 -0.57945,0.44625 -0.17546,0.13323 -0.38988,-0.19992 -0.51882,-0.8061 -0.0662,-0.31106 -0.14418,-0.64201 -0.17336,-0.73544 -0.0495,-0.1584 -0.0388,-0.16666 0.15836,-0.12235 0.65364,0.14691 1.44153,-0.0493 2.02348,-0.50385 0.71132,-0.55562 1.07347,-0.60014 1.99452,-0.24518 0.0913,0.0352 0.23925,0.23339 0.35711,0.47842 0.17178,0.35713 0.24195,0.43165 0.47952,0.50928 0.69202,0.22612 0.92339,0.3495 1.28659,0.68608 0.55228,0.51181 0.90983,0.65731 1.60391,0.65268 0.32766,-0.002 0.6389,0.0351 0.7413,0.0888 0.18661,0.0979 0.67226,0.69103 1.22245,1.49305 0.37741,0.55015 0.62693,0.75626 1.08712,0.89798 0.48665,0.14988 0.52912,0.20748 0.4757,0.64506 -0.0428,0.35089 -0.0331,0.38585 0.14198,0.51186 0.57818,0.41603 0.59761,0.44427 0.59274,0.86147 -0.005,0.43219 0.16819,0.85837 0.49289,1.21258 0.25263,0.27559 0.41299,0.35913 0.7791,0.40588 l 0.30888,0.0394 -0.34418,0.42979 c -0.81017,1.01169 -1.56036,1.71042 -1.82295,1.69792 -0.0409,-0.002 -0.18473,-0.0832 -0.31954,-0.18061 z m 0.73931,-2.48894 c 0,-0.23701 -0.28266,-0.29902 -0.35149,-0.0771 -0.0618,0.19927 0.0148,0.30682 0.1993,0.27991 0.10949,-0.016 0.15219,-0.0729 0.15219,-0.20281 z m -2.29525,-0.9744 c 0.11731,-0.14464 0.0392,-0.32602 -0.14045,-0.32602 -0.16018,0 -0.24963,0.15613 -0.18627,0.3251 0.052,0.1387 0.21462,0.13915 0.32672,9.2e-4 z m -2.9665,-0.83069 c 1.25912,-0.65041 2.80819,-1.9218 2.6005,-2.13433 -0.0592,-0.0606 -2.03365,1.21481 -2.03365,1.31366 0,0.0814 0.34597,-0.0811 0.706,-0.33147 0.91761,-0.63821 0.69277,-0.36396 -0.29233,0.35656 -1.03319,0.75571 -1.51607,0.9527 -1.59342,0.65003 -0.0394,-0.15397 -0.23225,-0.20284 -0.23225,-0.0588 0,0.10043 0.2795,0.42007 0.36732,0.42007 0.0332,0 0.24819,-0.0971 0.47783,-0.21568 z m -1.30405,-4.26356 c 0,-0.11281 -0.0456,-0.18762 -0.12377,-0.20302 -0.13975,-0.0275 -0.23063,0.14544 -0.1664,0.31673 0.0673,0.17956 0.29017,0.0922 0.29017,-0.11371 z m -2.0474,-1.80614 c 0,-0.13241 -0.0425,-0.18679 -0.15917,-0.20375 -0.0955,-0.0139 -0.17619,0.0223 -0.2017,0.0903 -0.0703,0.18745 0.0282,0.34239 0.2017,0.31718 0.11668,-0.017 0.15917,-0.0713 0.15917,-0.20374 z m -3.87727,3.05969 c -0.0599,-0.15967 -0.01,-0.19701 0.0935,-0.0697 0.0501,0.0618 0.0572,0.1207 0.0175,0.14582 -0.0367,0.0232 -0.0866,-0.0111 -0.11099,-0.0762 z m 0.34726,-1.21245 c 0,-0.99403 0.0677,-0.99284 0.14096,0.002 0.0357,0.48497 0.0242,0.67403 -0.0468,0.77011 -0.08,0.1083 -0.0941,-0.007 -0.0941,-0.77258 z m -0.34441,0.35947 c -0.14897,-0.60685 -0.15136,-1.11308 -0.005,-1.17034 0.0599,-0.0235 0.12392,-0.0274 0.14224,-0.009 0.0183,0.0187 0.0536,0.39663 0.0783,0.83975 0.0519,0.92783 -0.0364,1.0671 -0.21505,0.3393 z m -0.32132,-0.51496 c 0.003,-0.15563 0.0334,-0.34798 0.0681,-0.42745 0.0412,-0.0944 0.0484,-0.007 0.0208,0.25286 -0.0509,0.47727 -0.0957,0.56537 -0.0889,0.17459 z"
       id="path6282"
       inkscape:connector-curvature="0" />
  </g>
</svg>
