<?xml version="1.0" encoding="UTF-8" standalone="no"?>
<!-- Created with Inkscape (http://www.inkscape.org/) -->

<svg
   xmlns:dc="http://purl.org/dc/elements/1.1/"
   xmlns:cc="http://creativecommons.org/ns#"
   xmlns:rdf="http://www.w3.org/1999/02/22-rdf-syntax-ns#"
   xmlns:svg="http://www.w3.org/2000/svg"
   xmlns="http://www.w3.org/2000/svg"
   xmlns:xlink="http://www.w3.org/1999/xlink"
   xmlns:sodipodi="http://sodipodi.sourceforge.net/DTD/sodipodi-0.dtd"
   xmlns:inkscape="http://www.inkscape.org/namespaces/inkscape"
   width="124.65556mm"
   height="24.557581mm"
   viewBox="0 0 124.65557 24.557581"
   version="1.1"
   id="svg8"
   inkscape:version="0.92.1 r15371"
   sodipodi:docname="promocod.svg">
  <defs
     id="defs2">
    <linearGradient
       id="linearGradient5075"
       inkscape:collect="always">
      <stop
         id="stop5071"
         offset="0"
         style="stop-color:#00a3ab;stop-opacity:1" />
      <stop
         id="stop5073"
         offset="1"
         style="stop-color:#8bfffc;stop-opacity:0.99215686" />
    </linearGradient>
    <linearGradient
       inkscape:collect="always"
       id="linearGradient4681">
      <stop
         style="stop-color:#ffdf57;stop-opacity:1"
         offset="0"
         id="stop4677" />
      <stop
         style="stop-color:#ffaa05;stop-opacity:0.99215686"
         offset="1"
         id="stop4679" />
    </linearGradient>
    <radialGradient
       inkscape:collect="always"
       xlink:href="#linearGradient4681"
       id="radialGradient4685"
       cx="101.15352"
       cy="162.09581"
       fx="101.15352"
       fy="162.09581"
       r="4.6449823"
       gradientTransform="matrix(0.46575677,0.0227113,-0.01328369,0.21912753,34.113435,128.70721)"
       gradientUnits="userSpaceOnUse" />
    <linearGradient
       inkscape:collect="always"
       xlink:href="#linearGradient4681"
       id="linearGradient4767"
       x1="91.139709"
       y1="169.70282"
       x2="94.148567"
       y2="169.70282"
       gradientUnits="userSpaceOnUse"
       gradientTransform="matrix(0.39119589,0,0,0.35085276,39.48186,109.53199)" />
    <linearGradient
       inkscape:collect="always"
       xlink:href="#linearGradient4681"
       id="linearGradient4775"
       x1="91.114014"
       y1="171.38681"
       x2="92.699791"
       y2="171.38681"
       gradientUnits="userSpaceOnUse"
       gradientTransform="matrix(0.39119589,0,0,0.35085276,39.48186,109.53199)" />
    <filter
       inkscape:collect="always"
       style="color-interpolation-filters:sRGB"
       id="filter4831"
       x="-0.22316344"
       width="1.4463269"
       y="-0.082063764"
       height="1.1641275">
      <feGaussianBlur
         inkscape:collect="always"
         stdDeviation="0.040839375"
         id="feGaussianBlur4833" />
    </filter>
    <radialGradient
       inkscape:collect="always"
       xlink:href="#linearGradient4681"
       id="radialGradient4885"
       gradientUnits="userSpaceOnUse"
       gradientTransform="matrix(0.46575677,0.0227113,-0.01328369,0.21912753,34.113435,128.70721)"
       cx="101.15352"
       cy="162.09581"
       fx="101.15352"
       fy="162.09581"
       r="4.6449823" />
    <linearGradient
       inkscape:collect="always"
       xlink:href="#linearGradient5075"
       id="linearGradient5057"
       x1="29.536787"
       y1="211.1454"
       x2="99.161011"
       y2="211.1454"
       gradientUnits="userSpaceOnUse" />
    <linearGradient
       inkscape:collect="always"
       xlink:href="#linearGradient4681"
       id="linearGradient4547"
       x1="36.929707"
       y1="192.06342"
       x2="75.058205"
       y2="192.06342"
       gradientUnits="userSpaceOnUse"
       gradientTransform="translate(-41.884585,-4.3838668)" />
    <linearGradient
       inkscape:collect="always"
       xlink:href="#linearGradient4681"
       id="linearGradient4547-2"
       x1="36.929707"
       y1="192.06342"
       x2="75.058205"
       y2="192.06342"
       gradientUnits="userSpaceOnUse"
       gradientTransform="matrix(0.34980581,0,0,0.34980582,-17.279293,142.40667)" />
  </defs>
  <sodipodi:namedview
     id="base"
     pagecolor="#ffffff"
     bordercolor="#666666"
     borderopacity="1.0"
     inkscape:pageopacity="0.0"
     inkscape:pageshadow="2"
     inkscape:zoom="0.9899495"
     inkscape:cx="198.96773"
     inkscape:cy="162.44842"
     inkscape:document-units="mm"
     inkscape:current-layer="layer1"
     showgrid="false"
     inkscape:snap-global="false"
     inkscape:window-width="1536"
     inkscape:window-height="793"
     inkscape:window-x="-8"
     inkscape:window-y="-8"
     inkscape:window-maximized="1"
     showguides="true"
     fit-margin-top="0"
     fit-margin-left="0"
     fit-margin-right="0"
     fit-margin-bottom="0" />
  <metadata
     id="metadata5">
    <rdf:RDF>
      <cc:Work
         rdf:about="">
        <dc:format>image/svg+xml</dc:format>
        <dc:type
           rdf:resource="http://purl.org/dc/dcmitype/StillImage" />
        <dc:title></dc:title>
      </cc:Work>
    </rdf:RDF>
  </metadata>
  <g
     inkscape:label="Layer 1"
     inkscape:groupmode="layer"
     id="layer1"
     transform="translate(4.950786,-178.73084)">
    <text
       xml:space="preserve"
       style="font-style:normal;font-weight:normal;font-size:10.58333302px;line-height:1.25;font-family:sans-serif;letter-spacing:0px;word-spacing:0px;fill:#000000;fill-opacity:1;stroke:none;stroke-width:0.26458332"
       x="60.135643"
       y="220.42728"
       id="text4849"><tspan
         sodipodi:role="line"
         id="tspan4847"
         x="60.135643"
         y="229.79105"
         style="stroke-width:0.26458332" /></text>
    <text
       xml:space="preserve"
       style="font-style:normal;font-variant:normal;font-weight:normal;font-stretch:normal;font-size:27.23653984px;line-height:1.25;font-family:'French Script MT';-inkscape-font-specification:'French Script MT, Normal';font-variant-ligatures:normal;font-variant-caps:normal;font-variant-numeric:normal;font-feature-settings:normal;text-align:start;letter-spacing:0px;word-spacing:0px;writing-mode:lr-tb;text-anchor:start;fill:url(#linearGradient4547);fill-opacity:1;stroke:none;stroke-width:0.68091345"
       x="-5.9124198"
       y="196.44365"
       id="text4837"
       transform="scale(0.99917269,1.000828)"><tspan
         sodipodi:role="line"
         id="tspan4835"
         x="-5.9124198"
         y="196.44365"
         style="font-style:normal;font-variant:normal;font-weight:normal;font-stretch:normal;font-size:27.23653984px;font-family:'French Script MT';-inkscape-font-specification:'French Script MT, Normal';font-variant-ligatures:normal;font-variant-caps:normal;font-variant-numeric:normal;font-feature-settings:normal;text-align:start;writing-mode:lr-tb;text-anchor:start;fill:url(#linearGradient4547);fill-opacity:1;stroke-width:0.68091345">SKbonus_code</tspan></text>
    <g
       id="g4883"
       transform="matrix(1.085465,-0.03506224,0.03649251,1.1126355,-15.104263,1.9422723)">
      <path
         sodipodi:nodetypes="cccccccc"
         inkscape:connector-curvature="0"
         id="path4579"
         d="m 75.261911,169.61854 -0.17328,0.1409 0.141356,0.23807 0.221792,0.0622 0.247208,-0.12225 -0.08317,-0.32947 -0.26338,-0.0684 z"
         style="fill:#00eaff;fill-opacity:1;stroke:#009fad;stroke-width:0.01852378;stroke-linecap:butt;stroke-linejoin:miter;stroke-miterlimit:4;stroke-dasharray:none;stroke-opacity:1" />
      <path
         inkscape:connector-curvature="0"
         id="path4781"
         d="m 75.68397,169.93534 -0.161725,-0.36986 -0.418174,0.20513"
         style="fill:none;stroke:#009fad;stroke-width:0.01852378;stroke-linecap:butt;stroke-linejoin:miter;stroke-miterlimit:4;stroke-dasharray:none;stroke-opacity:1" />
      <path
         inkscape:connector-curvature="0"
         id="path4783"
         d="m 75.40423,169.86108 0.09048,-0.26278"
         style="fill:none;stroke:#009fad;stroke-width:0.01852378;stroke-linecap:butt;stroke-linejoin:miter;stroke-miterlimit:4;stroke-dasharray:none;stroke-opacity:1" />
      <path
         sodipodi:nodetypes="cccccccc"
         inkscape:connector-curvature="0"
         id="path4577"
         d="m 75.384779,169.50849 -0.254137,0.14919 0.300349,-0.0808 0.0092,0.21136 0.166348,-0.16784 0.12938,0.20306 -0.04159,-0.26523 z"
         style="fill:url(#linearGradient4775);fill-opacity:1;stroke:#ffad09;stroke-width:0.01852378;stroke-linecap:butt;stroke-linejoin:miter;stroke-miterlimit:4;stroke-dasharray:none;stroke-opacity:0.99509804" />
      <path
         style="fill:#808080;fill-opacity:1;stroke:#000000;stroke-width:0.02408091;stroke-linecap:butt;stroke-linejoin:miter;stroke-miterlimit:4;stroke-dasharray:none;stroke-opacity:1"
         d="m 82.647458,178.95162 -0.134395,0.55105 0.448541,-0.63064 z"
         id="path4520"
         inkscape:connector-curvature="0"
         sodipodi:nodetypes="cccc" />
      <path
         style="fill:#cccccc;fill-opacity:1;stroke:#000000;stroke-width:0.02408091;stroke-linecap:butt;stroke-linejoin:miter;stroke-miterlimit:4;stroke-dasharray:none;stroke-opacity:1"
         d="m 84.020392,175.41993 2.125505,0.0935 c 0,0 0.0122,0.32389 -0.0673,0.46178 -0.13987,0.2426 -0.67074,0.55627 -0.67074,0.55627 l -1.933361,2.09618 c 0,0 0.213651,0.35846 0.196161,0.55044 -0.02652,0.29134 -0.444895,0.78089 -0.444895,0.78089 0,0 0.20855,-0.52649 0.118254,-0.77399 -0.05237,-0.14348 -0.351059,-0.32557 -0.351059,-0.32557 0,0 -0.69769,0.14825 -0.955512,0.35316 -0.165632,0.13164 -0.324958,0.51924 -0.324958,0.51924 0,0 -0.09309,-0.4958 0.03928,-0.69494 0.155027,-0.23297 1.358056,-0.55629 1.358056,-0.55629 l 1.807274,-2.0689 c -0.394099,-0.29952 -1.028845,-0.5714 -0.896691,-0.99174 z"
         id="path4518"
         inkscape:connector-curvature="0"
         sodipodi:nodetypes="ccaccacacacsccc" />
      <path
         sodipodi:nodetypes="ccaccacacacsccc"
         inkscape:connector-curvature="0"
         id="path4512"
         d="m 81.447152,175.93198 2.07932,0.40613 c 0,0 -0.04744,0.32128 -0.151178,0.44554 -0.182509,0.21863 -0.763724,0.44961 -0.763724,0.44961 l -2.291872,1.782 c 0,0 0.144915,0.38512 0.09241,0.5719 -0.07967,0.28344 -0.582209,0.70451 -0.582209,0.70451 0,0 0.302379,-0.4885 0.258761,-0.74596 -0.02531,-0.14925 -0.286485,-0.37297 -0.286485,-0.37297 0,0 -0.715384,0.0432 -1.007313,0.20721 -0.18754,0.10537 -0.415865,0.46415 -0.415865,0.46415 0,0 -9.39e-4,-0.50278 0.166346,-0.67965 0.19569,-0.20689 1.441661,-0.34811 1.441661,-0.34811 l 2.162491,-1.77371 c -0.333721,-0.35364 -0.909878,-0.71557 -0.702345,-1.11065 z"
         style="fill:#cccccc;fill-opacity:1;stroke:#000000;stroke-width:0.02408091;stroke-linecap:butt;stroke-linejoin:miter;stroke-miterlimit:4;stroke-dasharray:none;stroke-opacity:1" />
      <path
         sodipodi:nodetypes="ccaacacacc"
         inkscape:connector-curvature="0"
         id="path4516"
         d="m 81.44752,175.93332 2.078024,0.39853 c 0,0 -0.03024,0.27209 -0.104554,0.38681 -0.09262,0.14302 -0.247389,0.25092 -0.402439,0.34046 -0.125461,0.0724 -0.414398,0.15184 -0.414398,0.15184 0,0 -0.121936,0.11715 -0.18297,0.0879 -0.05889,-0.0282 -0.0196,-0.17876 -0.0196,-0.17876 0,0 -0.228388,0.0835 -0.284263,0.0147 -0.02132,-0.0263 0.03921,-0.0909 0.03921,-0.0909 -0.251543,-0.257 -0.912367,-0.66431 -0.709011,-1.11061 z"
         style="fill:#000000;fill-opacity:1;stroke:#000000;stroke-width:0.02408091;stroke-linecap:butt;stroke-linejoin:miter;stroke-miterlimit:4;stroke-dasharray:none;stroke-opacity:1" />
      <path
         sodipodi:nodetypes="cscac"
         inkscape:connector-curvature="0"
         id="path4510"
         d="m 78.554586,172.3597 c 0,0 0.01592,1.30603 1.238351,2.65227 1.501347,1.65343 4.454364,1.49191 4.454364,1.49191 0,0 -2.502422,-6.91465 -5.338916,-6.25949 -0.769854,0.17782 -0.353799,2.11531 -0.353799,2.11531 z"
         style="fill:#cccccc;fill-opacity:1;stroke:#000000;stroke-width:0.02408091;stroke-linecap:butt;stroke-linejoin:miter;stroke-miterlimit:4;stroke-dasharray:none;stroke-opacity:1" />
      <path
         sodipodi:nodetypes="cccc"
         inkscape:connector-curvature="0"
         id="path4514"
         d="m 79.444472,179.21267 -0.233744,0.52368 0.558217,-0.55578 z"
         style="fill:#808080;fill-opacity:1;stroke:#000000;stroke-width:0.02408091;stroke-linecap:butt;stroke-linejoin:miter;stroke-miterlimit:4;stroke-dasharray:none;stroke-opacity:1" />
      <path
         style="fill:#ededed;fill-opacity:1;stroke:none;stroke-width:0.02408091;stroke-linecap:butt;stroke-linejoin:miter;stroke-miterlimit:4;stroke-dasharray:none;stroke-opacity:1"
         d="m 78.628515,172.17735 c 0,0 0.01592,1.30604 1.23835,2.65228 1.501348,1.65342 4.454364,1.49191 4.454364,1.49191 0,0 -2.502421,-6.91465 -5.338916,-6.25949 -0.76985,0.17782 -0.353798,2.1153 -0.353798,2.1153 z"
         id="path4603"
         inkscape:connector-curvature="0"
         sodipodi:nodetypes="cscac" />
      <path
         sodipodi:nodetypes="cscscsaccc"
         inkscape:connector-curvature="0"
         id="path4508"
         d="m 88.572287,176.93487 c 0,0 3.89398,4.16452 3.30936,4.36288 -0.29701,0.10078 -1.65936,-1.73237 -1.65936,-1.73237 0,0 3.48945,4.08154 3.1925,4.27312 -0.8996,0.58042 -4.62071,-4.05242 -4.62071,-4.05242 0,0 1.78322,2.04916 1.48536,2.28391 -0.31192,0.24583 -1.21796,-0.55192 -1.72634,-0.95047 -2.39805,-1.87995 -6.043183,-6.638 -6.043183,-6.638 l 2.603833,-0.14415 z"
         style="fill:#000000;fill-opacity:1;stroke:#000000;stroke-width:0.02408091;stroke-linecap:butt;stroke-linejoin:miter;stroke-miterlimit:4;stroke-dasharray:none;stroke-opacity:1" />
      <path
         style="fill:#000000;fill-opacity:1;stroke:#000000;stroke-width:0.02408091;stroke-linecap:butt;stroke-linejoin:miter;stroke-miterlimit:4;stroke-dasharray:none;stroke-opacity:1"
         d="m 84.020998,175.42119 2.122829,0.0862 c 0,0 0.0202,0.27284 -0.0321,0.39697 -0.0651,0.15474 -0.19794,0.28404 -0.33443,0.39525 -0.11045,0.09 -0.38086,0.21098 -0.38086,0.21098 0,0 -0.0988,0.13355 -0.16433,0.11374 -0.0633,-0.0191 -0.0521,-0.17342 -0.0521,-0.17342 0,0 -0.20995,0.11606 -0.27769,0.0564 -0.0259,-0.0227 0.022,-0.0954 0.022,-0.0954 -0.295301,-0.21635 -1.021893,-0.52049 -0.903262,-0.99074 z"
         id="path4522"
         inkscape:connector-curvature="0"
         sodipodi:nodetypes="ccaacacacc" />
      <path
         sodipodi:nodetypes="cscscccsscscscscscsscc"
         inkscape:connector-curvature="0"
         id="path4506"
         d="m 79.565531,171.39709 c -0.118646,0.71842 -0.315382,1.53975 0.467233,2.06299 0.08505,0.0569 0.07515,-0.22271 0.07515,-0.22271 0,0 0.330866,0.88542 0.793964,0.87032 0.153544,-0.005 0.04901,-0.35458 0.04901,-0.35458 0.175784,0.76215 1.30954,1.61371 1.426707,1.43554 0.01925,-0.31107 -0.311349,-0.73503 -0.472647,-1.08389 0.573306,1.04051 0.932044,1.25513 1.18931,1.40659 0.206395,0.1215 0.104308,-0.18791 -0.07903,-0.53307 -0.146131,-0.27513 -0.36533,-0.5922 -0.36533,-0.5922 0,0 0.815174,1.30386 1.077428,1.19447 0.155505,-0.0649 -0.293268,-0.86627 -0.293268,-0.86627 0,0 0.718533,1.02301 0.979269,1.00638 0.261667,-0.0167 -0.187316,-0.65071 -0.187316,-0.65071 0.330651,0.55839 0.998056,1.21899 1.305676,1.15641 0.18907,-0.0385 -0.26753,-0.59832 -0.63386,-1.06666 0.34143,0.45218 2.05646,1.88478 2.20833,1.55269 0.12699,-0.27771 -0.93407,-1.01936 -1.33268,-1.50581 0.3681,0.39565 2.27033,2.07797 2.93743,1.8381 0.1673,-0.0601 -0.4635,-0.59064 -1.04326,-1.14654 -1.05833,-1.01477 -2.41475,-2.40974 -2.4823,-2.37946 -0.10455,0.0469 -5.619817,-2.12159 -5.619816,-2.12159 z"
         style="fill:#a8a8a8;fill-opacity:1;stroke:#000000;stroke-width:0.02408091;stroke-linecap:butt;stroke-linejoin:miter;stroke-miterlimit:4;stroke-dasharray:none;stroke-opacity:1" />
      <path
         sodipodi:nodetypes="ccccc"
         inkscape:connector-curvature="0"
         id="path4504"
         d="m 86.108517,172.54011 1.83288,3.6145 -2.63842,-2.55387 0.18297,-1.5238 z"
         style="fill:#7c7c7c;fill-opacity:1;stroke:#000000;stroke-width:0.02408091;stroke-linecap:butt;stroke-linejoin:miter;stroke-miterlimit:4;stroke-dasharray:none;stroke-opacity:1" />
      <path
         style="fill:#cccccc;fill-opacity:1;stroke:none;stroke-width:0.02132873;stroke-linecap:butt;stroke-linejoin:miter;stroke-miterlimit:4;stroke-dasharray:none;stroke-opacity:1"
         d="m 79.662027,171.27717 c -0.104985,0.63692 -0.279071,1.36508 0.413436,1.82896 0.07526,0.0504 0.0665,-0.19744 0.0665,-0.19744 0,0 0.292771,0.78498 0.702545,0.7716 0.135866,-0.004 0.04337,-0.31436 0.04337,-0.31436 0.155543,0.67569 1.158757,1.43065 1.262436,1.27269 0.01702,-0.27578 -0.2755,-0.65164 -0.418227,-0.96093 0.507295,0.92247 0.772455,1.1948 1.0001,1.32907 0.182629,0.10773 0.14457,-0.24863 -0.01764,-0.55465 -0.129302,-0.24391 -0.323265,-0.52502 -0.323265,-0.52502 0,0 0.721314,1.15596 0.953372,1.05898 0.137603,-0.0575 -0.2595,-0.768 -0.2595,-0.768 0,0 0.85853,1.02657 0.971073,0.84534 0.07471,-0.12031 -0.03505,-0.43625 -0.03505,-0.43625 0.29258,0.49505 0.647891,0.98694 0.92009,0.93146 0.1673,-0.0341 -0.236725,-0.53045 -0.560874,-0.94566 0.30212,0.40088 1.741264,1.75302 1.875644,1.4586 0.11237,-0.2462 -0.74811,-0.98577 -1.10082,-1.41703 0.32572,0.35076 2.00892,1.84225 2.59922,1.62959 0.14804,-0.0533 -0.41013,-0.52365 -0.92314,-1.01649 -0.93648,-0.89966 -2.136711,-2.13639 -2.196486,-2.10953 -0.09252,0.0416 -4.972753,-1.88093 -4.972753,-1.88093 z"
         id="path4593"
         inkscape:connector-curvature="0"
         sodipodi:nodetypes="cscscccsscscscscscssccc" />
      <path
         style="fill:#a8a8a8;fill-opacity:1;stroke:none;stroke-width:0.02018169;stroke-linecap:butt;stroke-linejoin:miter;stroke-miterlimit:4;stroke-dasharray:none;stroke-opacity:1"
         d="m 85.890887,172.56985 1.52697,3.04733 -2.19806,-2.15313 0.15243,-1.2847 z"
         id="path4599"
         inkscape:connector-curvature="0"
         sodipodi:nodetypes="ccccc" />
      <path
         sodipodi:nodetypes="ccccc"
         inkscape:connector-curvature="0"
         id="path4601"
         d="m 85.423767,172.42588 1.40117,2.59492 -1.87196,-1.78084 0.0367,-1.13142 z"
         style="fill:#cccccc;fill-opacity:1;stroke:none;stroke-width:0.01679661;stroke-linecap:butt;stroke-linejoin:miter;stroke-miterlimit:4;stroke-dasharray:none;stroke-opacity:1" />
      <path
         sodipodi:nodetypes="cscscacacacscacscccc"
         inkscape:connector-curvature="0"
         id="path4502"
         d="m 83.480264,170.0721 c 0.959263,0.2665 3.508963,2.95388 2.375983,2.55255 -0.15679,-0.0555 -0.30099,-0.15771 -0.30099,-0.15771 0,0 0.46879,0.8773 0.34666,1.04086 -0.0673,0.0901 -0.3229,-0.0829 -0.3229,-0.0829 0,0 0.34173,0.53449 0.14218,0.67985 -0.27443,0.19991 -0.980207,-0.36337 -0.980207,-0.36337 0,0 -0.07177,0.22065 -0.176433,0.24029 -0.340626,0.0639 -0.875645,-0.50988 -0.875645,-0.50988 0,0 -0.05613,0.26692 -0.176437,0.29304 -0.27717,0.0602 -0.705745,-0.4337 -0.705745,-0.4337 0,0 -0.105959,0.25735 -0.39208,0.25787 -0.194679,3.5e-4 -0.509709,-0.34578 -0.509709,-0.34578 0,0 -0.08449,0.13198 -0.156826,0.1348 -0.270868,0.0106 -0.633867,-0.45714 -0.633867,-0.45714 0,0 -0.156024,0.10131 -0.440338,0.003 -0.167776,-0.058 -0.389971,-0.33424 -0.389971,-0.33424 0,0 -0.04288,0.10561 -0.133457,0.0433 -0.970122,-0.81931 -0.466325,-1.79935 -0.401977,-1.90409 z"
         style="fill:#ededed;fill-opacity:1;stroke:#000000;stroke-width:0.02408091;stroke-linecap:butt;stroke-linejoin:miter;stroke-miterlimit:4;stroke-dasharray:none;stroke-opacity:1" />
      <path
         style="fill:#fbfbfb;fill-opacity:1;stroke:none;stroke-width:0.02201393;stroke-linecap:butt;stroke-linejoin:miter;stroke-miterlimit:4;stroke-dasharray:none;stroke-opacity:1"
         d="m 83.360976,170.02137 c 0.876056,0.24386 3.204591,2.70301 2.169881,2.33576 -0.14318,-0.0508 -0.27487,-0.14432 -0.27487,-0.14432 0,0 0.42812,0.8028 0.31659,0.95247 -0.0614,0.0824 -0.29489,-0.0759 -0.29489,-0.0759 0,0 0.31208,0.48909 0.12984,0.62211 -0.25063,0.18293 -0.895179,-0.33251 -0.895179,-0.33251 0,0 -0.06555,0.20191 -0.16113,0.21989 -0.311079,0.0585 -0.79969,-0.46659 -0.79969,-0.46659 0,0 -0.05127,0.24426 -0.161134,0.26816 -0.253127,0.0551 -0.644526,-0.39687 -0.644526,-0.39687 0,0 -0.09677,0.23549 -0.358074,0.23598 -0.17779,3.1e-4 -0.465495,-0.31642 -0.465495,-0.31642 0,0 -0.07716,0.12077 -0.143221,0.12335 -0.247373,0.01 -0.578884,-0.41832 -0.578884,-0.41832 0,0 -0.142493,0.0927 -0.402142,0.003 -0.153223,-0.0531 -0.356148,-0.30586 -0.356148,-0.30586 0,0 -0.03916,0.0966 -0.121877,0.0397 -0.885973,-0.74973 -0.425876,-1.64654 -0.36711,-1.74238 z"
         id="path4595"
         inkscape:connector-curvature="0"
         sodipodi:nodetypes="cscscacacacscacscccc" />
      <path
         sodipodi:nodetypes="cscccscscacscacacsccccccc"
         inkscape:connector-curvature="0"
         id="path4498"
         d="m 76.487702,167.85718 c 0,0 0.787606,-1.0079 2.228324,-0.96116 1.370914,0.0445 2.099619,0.96838 3.262613,2.10226 0.16197,0.16666 0.358527,0.38239 0.591038,0.53367 0.549716,0.3363 1.755613,0.88881 0.761545,0.75503 0,0 0.487363,0.53098 0.403432,0.66469 -0.07382,0.1176 -0.362677,-0.0938 -0.503171,-0.1641 0.163371,0.24028 0.449992,0.5293 0.398612,0.6271 -0.07225,0.13753 -0.52277,-0.13773 -0.52277,-0.13773 0,0 0.679949,0.56478 0.463962,0.79121 -0.160085,0.16782 -0.699212,-0.21392 -0.699212,-0.21392 0,0 0.07599,0.22694 -0.01307,0.24615 -0.40964,0.0883 -1.225249,-0.94652 -1.225249,-0.94652 0,0 0.135569,0.30001 0.0196,0.36044 -0.270113,0.14078 -0.790693,-0.45128 -0.790693,-0.45128 0,0 0.09632,0.2263 0.0098,0.27546 -0.169528,0.0963 -0.53584,-0.24615 -0.53584,-0.24615 0,0 0.01267,0.1756 -0.05881,0.20512 -0.208589,0.0861 -0.40842,-0.24094 -0.646827,-0.40059 -0.828279,-0.55534 -1.009981,1.0771 -1.084861,1.50828 l -0.705745,-2.7194 -0.79723,-0.84395 c 0,0 0.967131,-0.38681 0.901785,-0.41025 -0.06535,-0.0234 -1.457232,-0.57436 -1.457233,-0.57436 z"
         style="fill:#000000;fill-opacity:1;stroke:#000000;stroke-width:0.02408091;stroke-linecap:butt;stroke-linejoin:miter;stroke-miterlimit:4;stroke-dasharray:none;stroke-opacity:1" />
      <path
         sodipodi:nodetypes="ccccccc"
         inkscape:connector-curvature="0"
         id="path4524"
         d="m 74.67319,168.6465 c 0.387248,-0.42141 1.061249,-0.71357 1.829801,-0.78739 0.693559,0.10754 1.08025,0.3527 1.598765,0.53874 -0.2905,0.24301 -0.349805,0.36692 -0.998073,0.42898 -0.93804,0.0319 -1.533543,-0.0428 -2.162492,-0.13889 l 1.030418,-0.11189 c -0.422103,0.0146 -0.827066,-0.0104 -1.298419,0.0704 z"
         style="fill:#000000;fill-opacity:1;stroke:#000000;stroke-width:0.02408091;stroke-linecap:butt;stroke-linejoin:miter;stroke-miterlimit:4;stroke-dasharray:none;stroke-opacity:1" />
      <path
         inkscape:connector-curvature="0"
         id="path4556"
         d="m 77.339278,167.24635 c -0.01269,-0.006 -0.0215,-0.0167 -0.02564,-0.0307 -0.0039,-0.0125 -7.82e-4,-0.0302 0.0066,-0.0418 0.008,-0.0125 0.0079,-0.0131 -0.0031,-0.0192 -0.02749,-0.0156 -0.04575,-0.0452 -0.04829,-0.0765 -9.38e-4,-0.0153 0.0032,-0.0383 0.01122,-0.0524 0.0062,-0.0116 0.01649,-0.0241 0.02718,-0.0329 0.0039,-0.003 0.0069,-0.007 0.0065,-0.007 -4.3e-4,-3.5e-4 -0.006,-0.005 -0.01206,-0.01 -0.07225,-0.053 -0.115165,-0.14321 -0.110778,-0.23365 0.0013,-0.02 0.01027,-0.0641 0.01747,-0.0819 0.01742,-0.0438 0.04662,-0.0815 0.08848,-0.11441 0.03032,-0.0239 0.07805,-0.0476 0.114457,-0.057 0.03013,-0.008 0.06274,-0.003 0.08762,0.0136 0.0655,0.0427 0.08335,0.15603 0.03339,0.21294 -0.0079,0.009 -0.0274,0.0211 -0.03969,0.0244 -0.03031,0.008 -0.06614,0.004 -0.10213,-0.0132 -0.0087,-0.005 -0.01626,-0.008 -0.01665,-0.008 -2.21e-4,-3e-4 4.31e-4,-0.002 0.0024,-0.003 0.0024,-0.002 0.0023,-0.004 -0.0029,-0.0118 -0.02361,-0.0448 0.01648,-0.0996 0.07044,-0.0961 0.03424,0.002 0.06146,0.0262 0.06384,0.0562 9.39e-4,0.0153 0.0015,0.0156 0.0047,0.007 0.0071,-0.0189 0.0091,-0.0587 0.0041,-0.0771 -0.0034,-0.0133 -0.01119,-0.0235 -0.02182,-0.0303 -0.0096,-0.006 -0.01032,-0.006 -0.02528,-0.008 -0.01977,-0.002 -0.03284,-2.1e-4 -0.05479,0.01 -0.05471,0.0235 -0.09669,0.0589 -0.127506,0.1074 -0.03278,0.0516 -0.04045,0.0975 -0.02346,0.14041 0.01,0.0258 0.04101,0.0582 0.07501,0.08 0.01672,0.0106 0.04642,0.0242 0.06552,0.0301 0.0093,0.003 0.02568,0.007 0.03924,0.009 0.01933,0.003 0.02558,0.004 0.03707,0.003 0.05669,-0.005 0.103999,-0.0389 0.147628,-0.10616 0.02013,-0.0312 0.0412,-0.073 0.06717,-0.13365 0.0379,-0.0886 0.06843,-0.14057 0.111775,-0.19014 0.03405,-0.039 0.06569,-0.0661 0.102538,-0.0881 0.04117,-0.0246 0.07725,-0.0368 0.118084,-0.0401 0.0084,-10e-4 0.01753,1.4e-4 0.04013,0.004 0.01632,0.002 0.02951,0.005 0.02959,0.004 8.2e-5,-3.5e-4 -2.73e-4,-0.008 -6.65e-4,-0.0165 -0.0026,-0.0518 0.01315,-0.10186 0.05277,-0.16379 0.06996,-0.10927 0.152037,-0.165 0.236938,-0.16093 0.05523,0.003 0.117022,0.0379 0.159139,0.0909 0.01894,0.0234 0.03097,0.0451 0.045,0.0787 0.03235,0.0785 0.02033,0.15621 -0.02975,0.19094 -0.02059,0.0143 -0.05401,0.0254 -0.08349,0.0278 -0.01187,0.001 -0.0182,2e-4 -0.04221,-0.003 -0.02594,-0.004 -0.02935,-0.006 -0.04373,-0.0105 -0.03426,-0.0143 -0.05229,-0.0305 -0.05968,-0.0541 -0.0091,-0.0279 -0.0038,-0.0583 0.014,-0.0759 0.03151,-0.0317 0.08351,-0.0305 0.109951,0.003 0.01317,0.0172 0.01708,0.0363 0.0109,0.0569 -0.004,0.0146 -0.01681,0.0296 -0.03146,0.0383 -0.0057,0.003 -0.01,0.006 -0.01011,0.007 -4.3e-4,0.002 0.01568,0.006 0.02664,0.006 0.01437,5e-5 0.02727,-0.004 0.0392,-0.01 0.03291,-0.0184 0.04894,-0.0704 0.0395,-0.12821 -0.0055,-0.0334 -0.01675,-0.0593 -0.03683,-0.0843 -0.02014,-0.0253 -0.03929,-0.0363 -0.0694,-0.0408 -0.03205,-0.005 -0.05992,0.002 -0.09824,0.025 -0.05375,0.032 -0.10189,0.079 -0.126525,0.12351 -0.0055,0.01 -0.007,0.0148 -0.01183,0.0373 -0.0051,0.024 -0.0054,0.0269 -0.0032,0.0392 0.0037,0.0252 0.01233,0.0459 0.02932,0.0683 0.02111,0.0281 0.04625,0.0505 0.08344,0.0747 0.05015,0.0327 0.0936,0.0547 0.165553,0.0837 0.04355,0.0175 0.05019,0.0192 0.07083,0.0185 0.05209,-0.002 0.133358,0.009 0.192331,0.0257 0.04046,0.0119 0.08802,0.0317 0.12237,0.0517 0.01064,0.006 0.0194,0.0107 0.01944,0.0107 3.92e-4,-2.2e-4 -0.01103,-0.018 -0.02907,-0.0442 -0.01158,-0.0159 -0.05583,-0.0789 -0.05686,-0.08 -3.79e-4,-3.5e-4 -0.0085,-0.0126 -0.01839,-0.0267 -0.034,-0.049 -0.06113,-0.0954 -0.08075,-0.13579 -0.06732,-0.13867 -0.06003,-0.25256 0.023,-0.35905 0.03865,-0.0496 0.07917,-0.079 0.14087,-0.10224 0.05937,-0.0224 0.114851,-0.0315 0.169024,-0.0276 0.0094,7.1e-4 0.01733,7.1e-4 0.01764,7.1e-4 3.21e-4,-2.2e-4 0.0035,-0.007 0.0072,-0.0144 0.02625,-0.0562 0.07762,-0.12193 0.12683,-0.16197 0.01549,-0.0126 0.04866,-0.0321 0.06161,-0.0364 0.02554,-0.008 0.04832,-0.009 0.06825,-0.001 0.01314,0.005 0.03169,0.0171 0.04327,0.0292 0.04153,0.0431 0.07694,0.1395 0.08073,0.22095 l 2.62e-4,0.015 0.01205,0.003 c 0.0398,0.009 0.09256,0.0325 0.126118,0.0559 0.02574,0.0181 0.05702,0.0475 0.07398,0.0702 0.03133,0.0414 0.04977,0.0925 0.0534,0.14601 0.0054,0.0787 -0.0124,0.13875 -0.06194,0.20566 -0.03677,0.05 -0.07967,0.0908 -0.154213,0.14687 -0.02343,0.0177 -0.07345,0.053 -0.0912,0.0646 -0.05045,0.0328 -0.119009,0.0803 -0.119565,0.0829 -7e-5,3.6e-4 0.0088,-3.5e-4 0.02007,-0.004 0.04346,-0.009 0.09277,-0.0135 0.14396,-0.012 0.02308,7e-4 0.03384,0.002 0.07817,0.009 0.05389,0.008 0.06414,0.0108 0.102919,0.0235 0.02457,0.008 0.02429,0.008 0.07013,0.005 0.07531,-0.005 0.125363,-0.0119 0.183201,-0.0257 0.07545,-0.0179 0.134016,-0.0478 0.163219,-0.0833 0.01393,-0.017 0.02136,-0.0314 0.02688,-0.0528 0.0086,-0.0309 0.0065,-0.0553 -0.0064,-0.0939 -0.01678,-0.0512 -0.04976,-0.10323 -0.08276,-0.13052 -0.01807,-0.0149 -0.0345,-0.0227 -0.0577,-0.0259 -0.02852,-0.004 -0.04821,6e-5 -0.07672,0.0161 -0.03771,0.0216 -0.06375,0.0495 -0.08393,0.0898 -0.01068,0.0214 -0.01948,0.055 -0.01854,0.0711 0.0012,0.0212 0.01174,0.0423 0.0257,0.0516 0.0078,0.005 0.01592,0.008 0.02813,0.0117 0.0079,0.002 0.0084,0.002 0.0092,-3.5e-4 3.83e-4,-0.002 -1.33e-4,-0.003 -0.0012,-0.003 -0.0023,-3.5e-4 -0.0092,-0.0159 -0.01158,-0.0262 -0.0023,-0.0125 0.0016,-0.0329 0.009,-0.0442 0.01033,-0.0155 0.02879,-0.0285 0.04585,-0.0325 0.01815,-0.004 0.04094,-7e-4 0.0578,0.01 0.0264,0.0166 0.03638,0.0507 0.02265,0.0801 -0.0065,0.014 -0.01694,0.0259 -0.02895,0.0333 -0.05895,0.036 -0.160109,0.0187 -0.206325,-0.0351 -0.01502,-0.0173 -0.02222,-0.0353 -0.02339,-0.0573 -7.82e-4,-0.0146 0.006,-0.0496 0.01291,-0.0656 0.01342,-0.0309 0.03787,-0.0628 0.07293,-0.095 0.05186,-0.0477 0.118744,-0.0778 0.184567,-0.0831 0.02296,-0.002 0.05651,0.003 0.07617,0.0111 0.05995,0.0246 0.103807,0.0821 0.125198,0.166 0.01264,0.0481 0.01757,0.0872 0.01604,0.12555 -0.0012,0.0314 -0.01279,0.0753 -0.02578,0.097 -0.0042,0.007 -0.0064,0.0131 -0.004,0.0133 3.87e-4,9e-5 0.0083,1.6e-4 0.01643,0.001 0.02648,0.001 0.05217,0.01 0.07552,0.0228 0.05579,0.032 0.100161,0.091 0.126567,0.16803 0.0214,0.0623 0.02887,0.11523 0.02824,0.19879 -7.82e-4,0.12173 0.0052,0.1776 0.02453,0.22491 0.01796,0.0442 0.04471,0.0707 0.08516,0.0845 0.0214,0.007 0.06083,0.0114 0.08739,0.0102 0.03278,-0.002 0.06054,-0.009 0.09427,-0.0216 0.03282,-0.0127 0.0483,-0.0225 0.06639,-0.042 0.01987,-0.0214 0.02766,-0.0381 0.03368,-0.0716 0.0039,-0.0214 0.0035,-0.0258 0.002,-0.0444 -0.0045,-0.0504 -0.0203,-0.0914 -0.0499,-0.12842 -0.02609,-0.0329 -0.04954,-0.0501 -0.07498,-0.0566 -0.03239,-0.008 -0.05969,0.0123 -0.07765,0.0573 -0.0054,0.0141 -0.01099,0.0367 -0.0108,0.0466 1.92e-4,0.006 1.92e-4,0.006 0.0043,-0.005 0.01185,-0.0271 0.03818,-0.0437 0.06902,-0.0435 0.04277,3.6e-4 0.07471,0.0369 0.06637,0.0762 -0.0027,0.016 -0.01303,0.0309 -0.02558,0.0396 -0.0066,0.005 -0.008,0.007 -0.0042,0.008 3.79e-4,3.5e-4 0.0023,7e-4 0.002,0.002 -0.0016,0.004 -0.03861,0.007 -0.05702,0.006 -0.05676,-0.004 -0.09054,-0.0303 -0.09573,-0.0767 -0.0012,-0.01 -2.55e-4,-0.0152 0.0035,-0.0341 0.0027,-0.0156 0.0068,-0.0257 0.01048,-0.0335 0.02332,-0.0491 0.06695,-0.0883 0.110114,-0.099 0.04014,-0.01 0.07141,-0.002 0.107121,0.0275 0.06317,0.0522 0.09891,0.12171 0.100499,0.19517 3.91e-4,0.0224 -0.0081,0.0674 -0.01659,0.0902 -0.02543,0.0653 -0.06785,0.11652 -0.128617,0.15538 -0.01487,0.01 -0.04176,0.0229 -0.05815,0.0288 -0.0076,0.002 -0.01412,0.006 -0.01432,0.007 -1.53e-4,0.002 7.82e-4,0.006 0.0043,0.0105 0.01854,0.0334 0.01408,0.0759 -0.01091,0.10686 -0.01365,0.0169 -0.03478,0.0314 -0.05263,0.036 -0.01322,0.004 -0.01444,0.007 -0.0058,0.0124 0.0067,0.004 0.01248,0.0139 0.01471,0.024 0.0023,0.0123 -0.002,0.0342 -0.0097,0.0448 -0.01123,0.0155 -0.0313,0.0246 -0.04856,0.022 -0.0084,-0.002 -0.03341,-0.0139 -0.05358,-0.0268 -0.0053,-0.003 -0.02656,-0.016 -0.04722,-0.0277 -0.295936,-0.16894 -0.599027,-0.29941 -0.909593,-0.39155 -0.120461,-0.0358 -0.245163,-0.0658 -0.387151,-0.0932 -0.04809,-0.009 -0.209638,-0.0341 -0.262152,-0.0403 -0.140475,-0.0166 -0.286221,-0.0256 -0.433009,-0.0267 -0.230348,-0.002 -0.44948,0.0148 -0.687918,0.0517 -0.100104,0.0155 -0.192364,0.0331 -0.309523,0.0591 -0.0384,0.009 -0.04793,0.0101 -0.05597,0.009 -0.0045,-7e-4 -0.0114,-0.002 -0.01357,-0.003 z m 0.153136,-0.12851 c 0.186183,-0.038 0.3833,-0.0658 0.565594,-0.0796 0.275146,-0.0209 0.535637,-0.0159 0.801751,0.0154 0.01807,0.002 0.03345,0.004 0.03423,0.003 3.91e-4,-1.4e-4 -3.92e-4,-0.006 -0.0027,-0.0118 -0.0058,-0.0183 -0.0062,-0.0325 -0.0012,-0.0529 0.0072,-0.0293 0.02179,-0.0478 0.04981,-0.0649 0.0083,-0.005 0.01534,-0.01 0.01541,-0.01 3.79e-4,-0.002 -0.0031,-0.008 -0.01001,-0.0206 -0.04983,-0.0864 -0.124032,-0.15003 -0.215474,-0.18526 -0.03458,-0.0133 -0.05243,-0.0179 -0.09574,-0.0243 -0.05412,-0.008 -0.09007,-0.009 -0.138257,-0.002 -0.02705,0.004 -0.07419,0.0156 -0.09515,0.0243 -0.06575,0.0272 -0.104573,0.0721 -0.09877,0.11398 0.0038,0.0274 0.01753,0.051 0.03748,0.0653 0.0079,0.006 0.0081,0.006 0.03009,0.009 0.01978,0.003 0.03821,0.004 0.04057,0.003 3.91e-4,-1.3e-4 -0.0031,-0.005 -0.008,-0.0108 -0.01496,-0.0173 -0.01969,-0.0363 -0.01523,-0.0582 0.0083,-0.0393 0.04913,-0.0659 0.09142,-0.0594 0.04371,0.007 0.07195,0.0485 0.05976,0.0888 -0.004,0.0147 -0.01195,0.0272 -0.02732,0.0445 -0.03359,0.038 -0.07407,0.0593 -0.126497,0.0664 -0.01491,0.002 -0.01801,0.002 -0.03701,-7.1e-4 -0.01816,-0.002 -0.02213,-0.004 -0.03113,-0.009 -0.01494,-0.008 -0.0254,-0.0164 -0.03711,-0.0297 -0.03339,-0.0385 -0.05699,-0.0992 -0.05647,-0.14482 3.66e-4,-0.0202 0.0074,-0.0469 0.01701,-0.0634 0.0093,-0.016 0.02257,-0.0319 0.03719,-0.0444 0.0065,-0.006 0.01129,-0.0103 0.01098,-0.0107 -5.47e-4,-3.5e-4 -0.08122,0.0127 -0.115048,0.0195 -0.119356,0.0239 -0.218762,0.0527 -0.27973,0.081 -0.02483,0.0115 -0.05518,0.0293 -0.06811,0.0397 -0.03733,0.0304 -0.04855,0.0641 -0.03254,0.0977 0.01026,0.022 0.02567,0.0397 0.04759,0.0553 0.03178,0.0232 0.06039,0.0267 0.08725,0.0112 0.01131,-0.007 0.01663,-0.0116 0.02826,-0.0267 0.0085,-0.011 0.0072,-0.0127 -0.0065,-0.009 -0.02037,0.006 -0.0419,0.002 -0.05988,-0.009 -0.03597,-0.023 -0.03865,-0.0684 -0.0056,-0.10163 0.0038,-0.004 0.0085,-0.009 0.01028,-0.0108 0.0056,-0.006 0.0213,-0.0137 0.03105,-0.0147 0.05521,-0.005 0.107881,0.0211 0.116033,0.0586 0.0073,0.0332 -0.0055,0.0683 -0.03999,0.10903 -0.03659,0.0433 -0.08608,0.0722 -0.138636,0.0808 -0.01341,0.002 -0.01589,0.002 -0.03606,-7.1e-4 -0.01816,-0.002 -0.02328,-0.004 -0.03161,-0.008 -0.02647,-0.0128 -0.05074,-0.039 -0.06641,-0.0716 -0.01002,-0.0206 -0.02404,-0.0686 -0.02466,-0.0838 -3.11e-4,-0.002 -5.87e-4,-0.005 -0.0011,-0.004 -5.08e-4,-1.2e-4 -0.0043,0.005 -0.0082,0.0103 -0.04614,0.068 -0.119217,0.11471 -0.202323,0.12941 -0.0059,0.001 -0.01097,0.003 -0.01159,0.004 -4.69e-4,7e-4 3.4e-5,0.006 0.0013,0.0101 0.0064,0.0178 0.007,0.0287 0.0039,0.0471 -0.003,0.0166 -0.0051,0.0228 -0.01383,0.0383 -0.0024,0.004 -3.58e-4,0.004 0.02049,-1.3e-4 z m 2.912295,0.44365 c 7e-5,-3.2e-4 -9e-5,-0.006 -7.82e-4,-0.0112 -0.0016,-0.0225 0.004,-0.0462 0.01616,-0.064 0.0031,-0.005 0.0068,-0.0107 0.0075,-0.0129 7.82e-4,-0.004 3.6e-4,-0.004 -0.009,-0.009 -0.02695,-0.0134 -0.05575,-0.0346 -0.07734,-0.0569 -0.03067,-0.0319 -0.05329,-0.0741 -0.06398,-0.12016 -0.0027,-0.01 -0.0045,-0.0183 -0.005,-0.019 -3.8e-4,-3.5e-4 -0.0058,0.005 -0.01095,0.0138 -0.02703,0.0417 -0.06739,0.0794 -0.101312,0.0946 -0.02711,0.0122 -0.04669,0.015 -0.07353,0.0109 -0.01612,-0.002 -0.01991,-0.004 -0.03251,-0.01 -0.02758,-0.0133 -0.05212,-0.0344 -0.06907,-0.0592 -0.02343,-0.035 -0.03759,-0.0721 -0.03888,-0.10473 -0.0023,-0.0505 0.0198,-0.0852 0.06032,-0.0953 0.01729,-0.004 0.03298,-0.005 0.05664,-0.001 0.02445,0.004 0.0363,0.009 0.04884,0.0205 0.03775,0.0358 0.02206,0.0956 -0.0295,0.112 -0.01209,0.004 -0.02875,0.005 -0.04024,0.002 -0.0096,-0.003 -0.02903,-0.0128 -0.03188,-0.0172 -0.0012,-0.001 -0.0027,-0.002 -0.0035,-0.003 -0.002,-1.9e-4 -0.002,0.002 -7.82e-4,0.01 0.0035,0.0268 0.01627,0.0497 0.03431,0.0591 0.02543,0.0131 0.06149,0.01 0.100768,-0.0114 0.01283,-0.007 0.03071,-0.0194 0.03913,-0.028 0.03071,-0.0309 0.02762,-0.0735 -0.009,-0.12039 -0.02296,-0.0299 -0.05756,-0.0613 -0.104207,-0.0957 -0.0282,-0.0209 -0.09269,-0.0624 -0.131743,-0.0852 -0.02805,-0.0163 -0.120226,-0.0665 -0.123031,-0.0669 -0.0031,-3.5e-4 -0.002,0.002 0.0039,0.013 0.0088,0.0155 0.01541,0.0374 0.01702,0.0549 0.0012,0.0133 7.82e-4,0.0177 -0.0031,0.0366 -0.005,0.0238 -0.01013,0.0353 -0.02269,0.0548 -0.01702,0.0258 -0.04606,0.0547 -0.07793,0.0776 -0.02539,0.0183 -0.04427,0.0264 -0.06885,0.0293 -0.03791,0.005 -0.08893,-0.0173 -0.120645,-0.0505 -0.02187,-0.0231 -0.04178,-0.0671 -0.04268,-0.093 -0.0012,-0.033 0.02817,-0.0671 0.06535,-0.0764 0.01318,-0.003 0.014,-0.003 0.03184,-3.5e-4 0.01772,0.002 0.01897,0.002 0.02993,0.01 0.01314,0.008 0.02453,0.0211 0.02914,0.0334 0.0066,0.0171 0.0039,0.0442 -0.007,0.0608 -0.0061,0.0103 -0.01944,0.0226 -0.02887,0.0271 -0.01248,0.006 -0.0087,0.008 0.02124,0.013 0.03016,0.005 0.04262,0.001 0.06524,-0.0166 0.03145,-0.0252 0.04317,-0.0509 0.03802,-0.0827 -0.01095,-0.0675 -0.102246,-0.13804 -0.21689,-0.16766 -0.02515,-0.006 -0.08477,-0.0142 -0.111941,-0.014 -0.09942,-7e-4 -0.188826,0.0254 -0.270215,0.079 -0.02879,0.0189 -0.06737,0.0496 -0.06837,0.0542 -1.57e-4,0.002 0.0047,0.008 0.01005,0.0156 0.01854,0.0238 0.02457,0.0485 0.01807,0.0777 -0.0039,0.0173 -0.0099,0.0308 -0.02144,0.0454 -0.0035,0.005 -0.0061,0.01 -0.0061,0.0105 3.79e-4,3.5e-4 0.02148,0.005 0.04623,0.01 0.11874,0.0215 0.273587,0.0584 0.38917,0.0926 0.109871,0.0325 0.235973,0.0753 0.333486,0.11321 0.173942,0.0676 0.354318,0.15126 0.507647,0.2353 0.04315,0.0237 0.05222,0.0283 0.05262,0.0262 z m -2.617023,-0.84874 c 0.09375,-0.0636 0.262628,-0.0971 0.501423,-0.0993 0.03945,-7e-4 0.0978,2.8e-4 0.104296,0.001 0.0025,3.5e-4 0.004,1.1e-4 0.004,6e-5 -3.5e-5,-3.5e-4 -0.01016,-0.004 -0.02285,-0.008 -0.07794,-0.0234 -0.145301,-0.0557 -0.190716,-0.0913 -0.01237,-0.009 -0.02044,-0.0175 -0.04362,-0.042 -0.0054,-0.006 -0.0132,-0.0117 -0.01767,-0.0143 -0.01892,-0.01 -0.088,-0.021 -0.121625,-0.0204 -0.0499,0.001 -0.08674,0.0149 -0.117689,0.0433 -0.03822,0.0351 -0.06238,0.0824 -0.09692,0.19 -0.007,0.0217 -0.01366,0.0423 -0.01489,0.0457 -8.99e-4,0.003 -0.0018,0.006 -3.14e-4,0.006 5.08e-4,-7e-5 0.0083,-0.005 0.01666,-0.0106 z m 1.244035,0.20008 c 7.82e-4,-2.4e-4 0.0056,-0.007 0.0097,-0.0149 0.02605,-0.0443 0.05446,-0.0733 0.104007,-0.1062 0.01721,-0.0114 0.02504,-0.019 0.03869,-0.037 0.02754,-0.0368 0.0575,-0.0638 0.148643,-0.1335 0.122855,-0.0941 0.144652,-0.11279 0.183561,-0.15735 0.05686,-0.065 0.08021,-0.12735 0.07687,-0.20497 -0.0027,-0.0687 -0.03118,-0.12416 -0.0872,-0.17136 -0.03529,-0.0297 -0.06969,-0.0454 -0.114378,-0.0521 -0.03938,-0.006 -0.07245,-0.002 -0.10545,0.013 -0.01514,0.007 -0.04473,0.026 -0.05366,0.0348 l -0.0074,0.007 7.83e-4,0.0191 c 7.82e-4,0.0103 7.82e-4,0.0256 3.91e-4,0.0338 -0.0012,0.0286 -0.0012,0.0321 0.0062,0.057 0.0035,0.0138 0.01381,0.0556 0.02242,0.0929 l 0.01577,0.0677 -0.0023,0.0152 c -0.0031,0.0174 -0.0071,0.0284 -0.02089,0.0554 -0.02629,0.0513 -0.07365,0.12174 -0.113987,0.16943 -0.03075,0.0363 -0.04765,0.0513 -0.05629,0.0499 -0.0068,-0.001 -0.01663,-0.0216 -0.03067,-0.0656 -0.03259,-0.10063 -0.05453,-0.2211 -0.04686,-0.25709 0.0035,-0.0173 0.03016,-0.0529 0.102642,-0.13802 0.03071,-0.0361 0.03712,-0.046 0.04524,-0.0702 0.0016,-0.004 0.0048,-0.0124 0.0084,-0.018 0.0091,-0.0167 0.0092,-0.019 7.83e-4,-0.0332 -0.01936,-0.0309 -0.04732,-0.0546 -0.08023,-0.0686 -0.01803,-0.007 -0.05829,-0.0146 -0.07843,-0.0143 -0.03071,0.001 -0.06297,0.007 -0.0978,0.0202 -0.02601,0.01 -0.0659,0.0332 -0.08396,0.0497 -0.02425,0.022 -0.04636,0.0516 -0.06346,0.0846 -0.01291,0.0249 -0.01764,0.0381 -0.02343,0.0661 -0.01225,0.0588 -0.0043,0.11356 0.02613,0.18424 0.0162,0.0374 0.03212,0.0665 0.06995,0.12747 0.07753,0.12519 0.09702,0.16445 0.109621,0.21792 0.0035,0.014 0.0045,0.0168 0.01592,0.0322 0.0214,0.0295 0.03572,0.0561 0.04477,0.0842 0.0031,0.01 0.0058,0.0199 0.0066,0.0231 0.0039,0.0291 0.0085,0.0371 0.02179,0.0376 0.0035,2.9e-4 0.0073,3e-5 0.0083,-0.001 z m 1.246319,0.13768 c 0.01095,-0.10123 0.01025,-0.14713 -0.0035,-0.18898 -0.01956,-0.0591 -0.06416,-0.0928 -0.143037,-0.10787 -0.02644,-0.005 -0.07799,-0.009 -0.08665,-0.007 -0.0023,7e-4 -0.01197,0.006 -0.0221,0.0115 -0.06085,0.0344 -0.156314,0.0531 -0.264343,0.0519 -0.0153,-1.4e-4 -0.02785,-7e-5 -0.02809,0.001 -2.39e-4,3.5e-4 0.002,7.1e-4 0.004,0.002 0.0059,7e-4 0.05145,0.0145 0.08834,0.0264 0.09438,0.0305 0.188658,0.0685 0.250874,0.10129 0.08008,0.0421 0.13296,0.0806 0.170996,0.12448 0.0063,0.007 0.01502,0.0181 0.01843,0.0248 0.0072,0.0109 0.0074,0.0111 0.0084,0.007 3.91e-4,-0.002 0.0031,-0.0232 0.0063,-0.0463 z m -1.056131,-1.03543 c 0.0259,-0.022 0.05615,-0.0373 0.0887,-0.0453 0.01702,-0.004 0.04515,-0.008 0.0522,-0.007 0.002,1.8e-4 0.0035,2.6e-4 0.0027,-0.001 -2.7e-5,-3.5e-4 -0.0047,-0.008 -0.01142,-0.0165 -0.04225,-0.0536 -0.08298,-0.0797 -0.125355,-0.0805 -0.03411,-7e-4 -0.07016,0.0121 -0.121486,0.0428 l -0.02953,0.0177 0.01389,0.005 c 0.04528,0.0157 0.07934,0.0417 0.101531,0.0776 0.0041,0.007 0.0084,0.014 0.0094,0.0155 0.0012,0.002 0.0031,0.003 0.0035,0.002 3.87e-4,1.8e-4 0.0078,-0.005 0.0153,-0.0114 z"
         style="fill:url(#radialGradient4885);fill-opacity:1;stroke-width:0.00156925" />
      <path
         sodipodi:nodetypes="ccsssccssc"
         inkscape:connector-curvature="0"
         id="path4575"
         d="m 75.856092,168.57605 h 0.28186 c 0.452277,0.55366 -0.122096,1.03449 -0.563725,0.99046 -0.08071,-0.008 -0.181761,-0.0433 -0.252595,-0.10169 -0.07918,-0.0653 -0.132439,-0.14224 -0.162358,-0.26093 -0.04702,-0.18652 0.02953,-0.40954 0.137713,-0.47036 l 0.203308,0.0414 c 0,0 -0.105728,0.12652 -0.137873,0.26487 -0.03834,0.165 0.05021,0.34201 0.149425,0.37955 0.484387,0.1833 0.600728,-0.81054 0.344245,-0.84334 z"
         style="fill:url(#linearGradient4767);fill-opacity:1;stroke:#ffad0a;stroke-width:0.01852378;stroke-linecap:butt;stroke-linejoin:miter;stroke-miterlimit:4;stroke-dasharray:none;stroke-opacity:0.99215686" />
      <path
         sodipodi:nodetypes="ccccccccccc"
         inkscape:connector-curvature="0"
         id="path4665"
         d="m 80.52301,167.90052 c 0.325581,-0.0204 1.779883,1.72705 1.719349,1.75595 0,0 -1.183449,-0.90286 -1.153679,-0.84598 0.02977,0.0569 0.468918,0.88864 0.468918,0.88864 l -0.684765,-0.76068 0.133977,0.51897 -0.282838,-0.72513 0.349827,0.27014 -0.148866,-0.43365 0.424256,0.27015 z"
         style="opacity:0.444;fill:#ffffff;fill-opacity:1;stroke:none;stroke-width:0.08147075px;stroke-linecap:butt;stroke-linejoin:miter;stroke-opacity:1" />
      <path
         sodipodi:nodetypes="ccccccccccc"
         inkscape:connector-curvature="0"
         id="path4669"
         d="m 78.087471,169.86273 c 0.107527,0.66581 0.272543,1.61939 0.335164,1.59432 0,0 -0.06709,-1.39217 -0.03535,-1.33616 0.03174,0.056 0.493609,0.87782 0.493609,0.87782 l -0.248417,-0.95192 0.374202,0.41367 -0.464105,-0.64568 0.02269,0.41353 -0.290023,-0.37178 -0.02303,0.46619 z"
         style="opacity:0.444;fill:#ffffff;fill-opacity:1;stroke:none;stroke-width:0.08147075px;stroke-linecap:butt;stroke-linejoin:miter;stroke-opacity:1" />
      <path
         sodipodi:nodetypes="ccccscccccc"
         inkscape:connector-curvature="0"
         id="path4673"
         d="m 85.023587,176.78569 c -0.0665,0.55529 2.57275,3.71524 3.88139,4.24364 l -1.03805,-1.187 1.23502,0.96381 c 0,0 -0.61573,-1.05003 -0.61573,-0.98372 0,0.0663 0.76584,0.54419 0.76584,0.54419 -0.83193,-0.70098 -1.6064,-1.6081 -2.36937,-2.5565 l 0.87635,1.32947 -1.70042,-1.80686 1.53337,2.05641 z"
         style="opacity:0.38399999;fill:#ffffff;fill-opacity:1;stroke:none;stroke-width:0.09802166px;stroke-linecap:butt;stroke-linejoin:miter;stroke-opacity:1" />
      <path
         sodipodi:nodetypes="ccccccc"
         inkscape:connector-curvature="0"
         id="path4675"
         d="m 91.262597,181.17284 c 0.65003,0.70756 1.26595,1.43806 1.77743,2.23882 l -0.67961,-0.5978 v 0.19927 l -0.70574,-0.71502 0.41822,0.24615 z"
         style="opacity:0.375;fill:#ffffff;fill-opacity:1;stroke:none;stroke-width:0.09802166px;stroke-linecap:butt;stroke-linejoin:miter;stroke-opacity:1" />
      <path
         sodipodi:nodetypes="ccccc"
         inkscape:connector-curvature="0"
         id="path4687"
         d="m 79.189537,166.14538 -0.150176,0.18856 0.0439,0.28595 0.154796,-0.25122 z"
         style="fill:#00eaff;fill-opacity:1;stroke:none;stroke-width:0.01852378;stroke-linecap:butt;stroke-linejoin:miter;stroke-miterlimit:4;stroke-dasharray:none;stroke-opacity:1" />
      <path
         style="fill:#8cf6ff;fill-opacity:1;stroke:none;stroke-width:0.01684359;stroke-linecap:butt;stroke-linejoin:miter;stroke-miterlimit:4;stroke-dasharray:none;stroke-opacity:1"
         d="m 79.18791,166.16569 -0.136477,0.17309 0.0356,0.26515 0.141386,-0.23106 z"
         id="path4689"
         inkscape:connector-curvature="0"
         sodipodi:nodetypes="ccccc" />
      <path
         sodipodi:nodetypes="cccccc"
         inkscape:connector-curvature="0"
         id="path4779"
         d="m 75.106299,169.77433 0.576631,0.16687 -0.228561,0.11358 -0.05984,-0.18963 -0.163194,0.12599 z"
         style="fill:none;stroke:#009fad;stroke-width:0.01852378;stroke-linecap:butt;stroke-linejoin:miter;stroke-miterlimit:4;stroke-dasharray:none;stroke-opacity:1" />
      <path
         transform="matrix(0.39119589,0,0,0.35085276,39.48186,109.53199)"
         inkscape:connector-curvature="0"
         id="path4785"
         d="m 93.519277,170.46458 c 0,0 0.593005,-0.48443 0.400905,-1.19437"
         style="opacity:1;fill:none;stroke:#f5f5f5;stroke-width:0.16500001;stroke-linecap:butt;stroke-linejoin:miter;stroke-miterlimit:4;stroke-dasharray:none;stroke-opacity:1;filter:url(#filter4831)" />
    </g>
  </g>
</svg>
