<?xml version="1.0" encoding="UTF-8" standalone="no"?>
<!-- Created with Inkscape (http://www.inkscape.org/) -->

<svg
   xmlns:dc="http://purl.org/dc/elements/1.1/"
   xmlns:cc="http://creativecommons.org/ns#"
   xmlns:rdf="http://www.w3.org/1999/02/22-rdf-syntax-ns#"
   xmlns:svg="http://www.w3.org/2000/svg"
   xmlns="http://www.w3.org/2000/svg"
   xmlns:sodipodi="http://sodipodi.sourceforge.net/DTD/sodipodi-0.dtd"
   xmlns:inkscape="http://www.inkscape.org/namespaces/inkscape"
   width="99.596725mm"
   height="101.86459mm"
   viewBox="0 0 99.596725 101.86459"
   version="1.1"
   id="svg5069"
   inkscape:version="0.92.1 r15371"
   sodipodi:docname="tg.svg">
  <defs
     id="defs5063" />
  <sodipodi:namedview
     id="base"
     pagecolor="#ffffff"
     bordercolor="#666666"
     borderopacity="1.0"
     inkscape:pageopacity="0.0"
     inkscape:pageshadow="2"
     inkscape:zoom="0.7"
     inkscape:cx="194.43011"
     inkscape:cy="241.16451"
     inkscape:document-units="mm"
     inkscape:current-layer="layer1"
     showgrid="false"
     fit-margin-top="0"
     fit-margin-left="0"
     fit-margin-right="0"
     fit-margin-bottom="0"
     inkscape:window-width="1536"
     inkscape:window-height="793"
     inkscape:window-x="-8"
     inkscape:window-y="-8"
     inkscape:window-maximized="1" />
  <metadata
     id="metadata5066">
    <rdf:RDF>
      <cc:Work
         rdf:about="">
        <dc:format>image/svg+xml</dc:format>
        <dc:type
           rdf:resource="http://purl.org/dc/dcmitype/StillImage" />
        <dc:title></dc:title>
      </cc:Work>
    </rdf:RDF>
  </metadata>
  <g
     inkscape:label="Layer 1"
     inkscape:groupmode="layer"
     id="layer1"
     transform="translate(-72.665924,-94.121281)">
    <ellipse
       style="opacity:0.76599995;fill:#c1b5ff;fill-opacity:1;stroke:none;stroke-width:0.8670001;stroke-miterlimit:4;stroke-dasharray:none;stroke-dashoffset:0;stroke-opacity:1;paint-order:fill markers stroke"
       id="path4865"
       cx="122.46429"
       cy="145.05357"
       rx="49.798363"
       ry="50.932293" />
    <path
       style="fill:#ffffff;fill-opacity:1;stroke-width:0.13897529"
       d="m 136.70174,177.32125 c -0.19806,-0.0628 -0.50438,-0.18945 -0.68071,-0.28146 -0.27805,-0.14507 -11.64752,-7.64099 -16.57764,-10.92967 l -1.7134,-1.14294 -4.90198,3.44158 c -2.69609,1.89286 -5.10856,3.52798 -5.36106,3.63359 -0.55238,0.23103 -1.65233,0.26794 -2.16439,0.0726 -0.62277,-0.23755 -1.35761,-0.9645 -1.59003,-1.57297 -0.12118,-0.31723 -1.29367,-4.55116 -2.60553,-9.40872 -1.311861,-4.85757 -2.413331,-8.85936 -2.447709,-8.89287 -0.03438,-0.0335 -3.917263,-1.49871 -8.628636,-3.25598 -4.711372,-1.75725 -8.762576,-3.29429 -9.00268,-3.41562 -0.6332,-0.31998 -1.287171,-1.10524 -1.469147,-1.7641 -0.290197,-1.05066 0.198295,-2.34838 1.099149,-2.91997 0.580725,-0.36847 66.473583,-25.97339 67.398433,-26.18996 0.75108,-0.17589 1.40846,-0.0479 2.14456,0.41736 0.65278,0.41265 1.28802,1.45992 1.28802,2.12346 0,0.21415 -2.53616,13.37003 -5.63591,29.23529 -4.25717,21.78923 -5.71398,28.99699 -5.95506,29.46342 -0.56352,1.09031 -2.07007,1.74404 -3.19628,1.38696 z m -1.2039,-7.66479 c 0.0405,-0.13207 1.97689,-9.9965 4.3031,-21.92094 2.32621,-11.92445 4.25586,-21.7924 4.28811,-21.92878 0.0322,-0.13639 0.009,-0.22901 -0.051,-0.20583 -0.15717,0.0604 -31.25628,29.24993 -31.25498,29.33582 5.6e-4,0.0393 3.45968,2.35618 7.68686,5.14862 4.22718,2.79243 9.27795,6.13833 11.22395,7.43534 1.94599,1.297 3.5814,2.36217 3.63425,2.36704 0.0528,0.005 0.12921,-0.0992 0.1697,-0.23127 z m -25.09288,-6.38074 c 1.2241,-0.84905 2.22626,-1.5746 2.22702,-1.61234 7.2e-4,-0.0377 -1.27559,-0.90222 -2.83634,-1.92108 -1.56074,-1.01887 -3.08836,-2.06851 -3.39471,-2.33255 -0.43236,-0.37264 -0.53813,-0.4187 -0.47273,-0.20582 0.0463,0.15082 0.50167,1.81796 1.01185,3.70474 1.09787,4.06023 1.05364,3.91078 1.1573,3.91078 0.0451,0 1.08352,-0.69468 2.30761,-1.54373 z m -3.25863,-10.8061 c 0.83098,-0.79245 7.66306,-7.21052 15.18239,-14.26238 7.51934,-7.05186 13.65229,-12.84032 13.62877,-12.86324 -0.0235,-0.0229 -10.20387,3.89866 -22.62302,8.71462 -12.41914,4.81597 -22.706943,8.80242 -22.861769,8.85878 -0.254213,0.0925 -0.258725,0.11494 -0.04653,0.2311 0.129239,0.0707 2.820819,1.09169 5.981287,2.26877 3.160468,1.17708 5.917532,2.22646 6.126802,2.33197 0.43617,0.21989 0.98215,0.8949 1.2098,1.4957 0.0858,0.22642 0.44742,1.49227 0.80362,2.81302 0.87112,3.23 0.8006,3.05296 0.95648,2.40135 0.10595,-0.44293 0.42294,-0.82699 1.64217,-1.98969 z"
       id="path5640"
       inkscape:connector-curvature="0" />
  </g>
</svg>
