<?xml version="1.0" encoding="UTF-8" standalone="no"?>
<!-- Created with Inkscape (http://www.inkscape.org/) -->

<svg
   xmlns:dc="http://purl.org/dc/elements/1.1/"
   xmlns:cc="http://creativecommons.org/ns#"
   xmlns:rdf="http://www.w3.org/1999/02/22-rdf-syntax-ns#"
   xmlns:svg="http://www.w3.org/2000/svg"
   xmlns="http://www.w3.org/2000/svg"
   xmlns:sodipodi="http://sodipodi.sourceforge.net/DTD/sodipodi-0.dtd"
   xmlns:inkscape="http://www.inkscape.org/namespaces/inkscape"
   width="99.596725mm"
   height="101.86459mm"
   viewBox="0 0 99.596725 101.86459"
   version="1.1"
   id="svg6236"
   inkscape:version="0.92.1 r15371"
   sodipodi:docname="tw.svg">
  <defs
     id="defs6230" />
  <sodipodi:namedview
     id="base"
     pagecolor="#ffffff"
     bordercolor="#666666"
     borderopacity="1.0"
     inkscape:pageopacity="0.0"
     inkscape:pageshadow="2"
     inkscape:zoom="0.7"
     inkscape:cx="-75.659985"
     inkscape:cy="140.00571"
     inkscape:document-units="mm"
     inkscape:current-layer="layer1"
     showgrid="false"
     fit-margin-top="0"
     fit-margin-left="0"
     fit-margin-right="0"
     fit-margin-bottom="0"
     inkscape:window-width="1536"
     inkscape:window-height="793"
     inkscape:window-x="-8"
     inkscape:window-y="-8"
     inkscape:window-maximized="1" />
  <metadata
     id="metadata6233">
    <rdf:RDF>
      <cc:Work
         rdf:about="">
        <dc:format>image/svg+xml</dc:format>
        <dc:type
           rdf:resource="http://purl.org/dc/dcmitype/StillImage" />
        <dc:title></dc:title>
      </cc:Work>
    </rdf:RDF>
  </metadata>
  <g
     inkscape:label="Layer 1"
     inkscape:groupmode="layer"
     id="layer1"
     transform="translate(-53.23011,-112.39305)">
    <ellipse
       style="opacity:0.76599995;fill:#c1b5ff;fill-opacity:1;stroke:none;stroke-width:0.8670001;stroke-miterlimit:4;stroke-dasharray:none;stroke-dashoffset:0;stroke-opacity:1;paint-order:fill markers stroke"
       id="path4865"
       cx="103.02847"
       cy="163.32535"
       rx="49.798363"
       ry="50.932293" />
    <path
       style="fill:#ffffff;fill-opacity:1;stroke-width:0.14146967"
       d="m 88.604645,193.01649 c -6.667176,-0.42695 -13.239632,-2.37852 -18.899634,-5.61187 l -1.199275,-0.68509 2.460189,0.0674 c 7.127175,0.19552 13.438572,-1.60745 18.941866,-5.41104 l 1.005796,-0.69516 -1.150939,-0.10586 c -5.18173,-0.47657 -9.866683,-3.52947 -12.110587,-7.89173 -1.1098,-2.1575 -1.270531,-1.94812 1.488094,-1.9386 1.480913,0.005 2.735319,-0.0638 3.368654,-0.18509 l 1.009097,-0.19324 -1.444525,-0.43536 c -5.169562,-1.558 -9.08735,-5.54632 -10.290763,-10.47602 -0.236815,-0.9701 -0.47644,-3.38737 -0.335791,-3.38737 0.04291,0 0.493557,0.18325 1.001448,0.40722 1.3436,0.59251 3.375261,1.11849 4.62458,1.19723 l 1.088571,0.0686 -0.435428,-0.31887 c -3.066907,-2.24587 -5.085645,-5.20903 -5.883238,-8.63559 -0.541321,-2.32558 -0.31355,-5.71817 0.526208,-7.8377 0.31416,-0.79294 1.015273,-2.22508 1.166241,-2.38224 0.0308,-0.032 0.29764,0.21613 0.592972,0.55156 1.054355,1.19748 3.332662,3.35668 4.853568,4.59986 5.962895,4.87399 13.324442,8.15462 21.023671,9.36907 1.65445,0.26096 4.77771,0.55619 4.87782,0.46109 0.0393,-0.0373 -0.006,-0.48847 -0.0999,-1.00251 -0.24548,-1.3393 -0.0891,-4.68125 0.27708,-5.92318 0.84941,-2.88043 2.03677,-4.75511 4.32424,-6.82737 2.98035,-2.69994 6.25577,-3.92746 10.43273,-3.90985 4.07862,0.0172 7.33131,1.1712 10.05584,3.56763 l 1.04176,0.91632 0.83749,-0.16474 c 2.19664,-0.43209 5.45399,-1.5799 7.63236,-2.68947 0.54406,-0.2771 1.01828,-0.47618 1.05384,-0.4424 0.11132,0.10576 -0.36021,1.22794 -0.95945,2.28335 -1.02644,1.80788 -2.76111,3.65261 -4.56699,4.85677 l -0.87085,0.58069 0.94343,-0.0952 c 1.73326,-0.17489 4.56464,-0.89085 6.54264,-1.65442 0.49967,-0.1929 0.93057,-0.32976 0.95752,-0.30414 0.0269,0.0256 -0.37813,0.58459 -0.90022,1.24217 -1.27586,1.60695 -3.46698,3.75722 -5.14851,5.05251 l -1.37886,1.06214 -0.0282,2.2618 c -0.0434,3.48977 -0.43333,6.30183 -1.35555,9.77677 -1.97576,7.44471 -6.34898,14.54725 -12.35326,20.06292 -3.28793,3.02036 -5.59939,4.61985 -9.19559,6.36317 -7.22911,3.50444 -15.097938,4.99514 -23.520199,4.45579 z"
       id="path6798"
       inkscape:connector-curvature="0" />
  </g>
</svg>
